<svg xmlns="http://www.w3.org/2000/svg" viewBox="0 0 2264 3352"><defs><style>.cls-1{fill:#bc8e31;}</style></defs><g id="Layer_2" data-name="Layer 2"><g id="Ñëîé_1" data-name="Ñëîé 1"><rect width="2264" height="3352" rx="228"/><path class="cls-1" d="M2132.47,949.72c.08-10.38.11-20.76,0-31.14-.22-18.78-.31-37.67-.75-56.43-1.12-46.65-8.65-93.74-11.55-140.51-2.08-33.57-3.61-67.17-4.31-100.8-1-50.35-2.6-101,2.64-151.25,3.11-29.79-1.85-61.14-1.77-91.17.13-51.69-1.74-102.06-9.58-153.41-2.72-17.83-11.64-30.93-21.47-45.59-8-11.9-12.65-13.16-26-22.18-29.09-19.62-70.38-14.77-104.28-16.21-20.67-.88-41.31-2.38-62-2.31l-55.49.2-83.74.33-107.24.43-126,.53-140.06.6-149.37.65-153.94.68-153.79.7-148.89.69-139.28.68-124.91.63-105.83.58q-41,.24-82,.5-26.73.18-53.45.41c-6.6.06-13.59-.49-20.16.3-37.79,4.52-75.77,16-92,53.67-9,21-11.37,44.64-12.47,67.25-1.72,35.28.12,70.74,2.24,106,1.67,28,4.42,55.85,5.8,83.83,1.32,26.75-2.21,53.36-1.6,80.31.72,31.78,4.55,63.31,5.67,95,.86,24.38,1.23,48.78,1.8,73.16.54,23.27,7.09,47.2,5.95,70.28-.54,10.86.12,21.78.37,32.74.65,28.67.49,57.36.15,86-.51,42.13-1.79,84.24-2.84,126.36-.52,20.92-1.08,41.94-1.75,62.79-1.52,47.47-1.47,95.85-2.18,143.72-.42,27.82-3.31,56-5.11,83.64-1.93,29.69,2.21,60.19,2.06,90-.11,23.15,7,39.7,7.48,60.32,0-.5-1.49,80.42-1.32,81,2.83,9.5.81,22.92,1,32.69q.9,36.42,1.55,72.83c.83,44.5,4.71,90.64,1.14,135.08-1.77,22-.12,44-1,66.06-1,24.57-2.2,50.1-3.15,75.05-.8,21.1-2,42.2-2.52,63.32-.31,12.93-.16,25.87.09,38.81.55,28.52,1.81,57,1.71,85.56q-.11,29.4-1.05,58.78c-.32,9.68-.46,19.44-1.27,29.09a1198.94,1198.94,0,0,0-3.95,136.53c1.21,39.84,1.05,79.76,1.87,119.44a311.65,311.65,0,0,0,2.34,32.15c2.92,23.47,1.91,47.18,2.3,70.77.24,14.3,1.22,28.36,2.18,42.72,2,29.47,5.17,61.12.45,90.47-.2,1.24-.41,2.48-.69,3.71-2.1,9.42-2.36,114-2.6,143,0-2.55.08,1.27.09,1.87.16,5,.14,10.11.21,15.16q.39,29.3.92,58.59c.94,49.88,1.91,99.82,5,149.61.69,11.13,1.42,22.28,2.82,33.35,2.9,23,10.4,47,26.45,64.33,12.41,13.4,29.83,19.76,47,24.6,32.74,9.25,68.6,12.91,102.59,11.53,26.08-1.06,52.17-.05,78.24.84,51.47,1.75,103.46-2.32,154.73-5.62,42.4-2.72,44.25.5,53.9.83,12.86.44,53.44-5.39,88.37-3.58,2.29.12,4.72,1,6.85.52,16-3.66,54.33-2.12,64-1.88,4.11-3.4,42.32.61,48.92-1.07a51.08,51.08,0,0,1,19.11-1.42c3.34.4,6.87-1.21,10.27-1,9.93.51,19.78,2.78,29.8,1.12,12,2.22,24.88,1.59,37,1.86,23.82.53,47.66.66,71.49.69,56,.08,112-.39,168-2.05,16.56-.49,33.12-1,49.64-2.14a125.49,125.49,0,0,1,24.45.82c18.63,2.23,37.06-2,55.63-1.13,16.6.77,33.1-.41,49.68-.89,21-.59,42.94.77,64.3.94,11.46.09,23-1.36,34.39-1.2,25.76.36,51.54.12,77.27,1.46,12,.63,23.27,2.19,35.1.82,38.74-4.49,77.48,7.09,116.15,5.93,33.94-1,68.37,1.46,102.15,5.33,15.15-1.34,30.39-.82,45.55.06,74.86,4.34,152.56,13.13,221.08-25.64,10.94-6.19,21.32-13.69,29.76-23.07,17.88-19.89,21.22-53.76,25-79,4.42-29.88,6.34-59.51,9.8-89.46,4-34.76,7.94-69.06,8.33-104.29.38-34.26,2.25-68.62,1.93-103-.23-25.88-.08-51.77-.4-77.64-.31-23.74-3.22-47.48-2.42-71.19.39-11.51,1.54-23,1.82-34.53.59-23.93.85-47.87,1-71.8.16-27.17.17-54.36-.26-81.53-.25-15.78.64-32.63-2.19-48.24-8.27-45.45-6-1121.34-5.32-1171C2118.85,1151.19,2132.24,981.5,2132.47,949.72Zm-23.71-106.89c13.69,28.14-20.72,27.82-38.85,27.56-8.64-.13-31.91,1.13-36.53-6.48-2.36-3.9-3.13-18.4.64-21.76s7.32-4.4,11.37-3.65c40.57,7.56,45,1.11,56.58-.56C2104.91,837.52,2107.19,839.62,2108.76,842.83Zm3,57.54c-.57,2.16-20.77,6.7-23.76,7.56-6.68,1.91-13.48,3.46-20.46,3.55-8.36.11-30.4,2.33-35.52-6.14-2.43-4,.77-13.79,1-18.18,13.85-.54,61.56,1.57,77.76-4.16C2114,888.86,2113.36,894.35,2111.77,900.37Zm-24.95-76.43c-29.33,3.1-38.53-2.36-54.73-7.37-1-8-3.15-16,1-24.46,46.86,5.25,28.67,5,70.93.37C2107.88,817.44,2109.19,821.58,2086.82,823.94Zm-49.33-50.79c-12.62-3-10-21.78-2.28-20.68,42.32,6.06,39.87-1.61,66.12-2.62,3.14,6.92.71,14.46,3.16,22C2083.9,780.07,2058.89,778.29,2037.49,773.15ZM2098.8,482c.67,5.94,2.14,11.26-1.45,16.79-2.52,3.89-46.37,4.76-50.94,4.07-29.12-4.38-10-19.52,7.88-22.45C2068.92,478,2084.65,476.51,2098.8,482Zm-41.5-42.12c3.82-.23,40.35-.31,41.28,3.09,2.13,7.8,2.15,9,.31,19.13l-31.75,1c-7.52.24-21.22,3.45-27-1.44C2026.33,450,2047.76,440.47,2057.3,439.9Zm-12.87,105.54c6.61-3.93,14.72-3.7,22.12-3.06,5.34.08,32.61-3.73,30.13,7.49a4.38,4.38,0,0,1-.54,1.33c-4.35,7.23-29.72,6.94-35.85,7.77-4.95.67-9.95,1.34-14.92.88C2034.82,558.88,2037.64,549.49,2044.43,545.44Zm-6.37-18.89c6.35-8.07,19.19-6.24,55.89-8,1.09,0,2.22.47,4,.88.38,2.74.77,5.6,1.12,8.14C2094.63,530.9,2047.18,530.89,2038.06,526.55Zm54.32,70c3.62,2.69,2.41,8.38-1.4,10-9.51,4-19.06,8.11-29,10.94-5.29,1.51-26.22,7.95-30.43,2.88-6.37-7.66,10.49-9.9,13.76-10.68,6.09-1.45,12-3.22,17.92-5.17s11.6-4.06,17.4-6.22C2084,597,2089,594.06,2092.38,596.53Zm-55.1,39.71c9-2,18.3-2.78,27.12-4.79,3.27-.74,31.64-11.44,31.68-13.76.67,10.59,1.22,19.27,1.78,28.22-7.74,9-25.74,10.41-36.6,11.13-4.86.33-27.26.56-33.56-5.76C2021,644.51,2031.69,637.51,2037.28,636.24ZM2032,672c6.5-2.79,15.86-.82,22.68,0a74.88,74.88,0,0,0,24.45-.74c2.13-.46,15.81-4.93,17-2.77,3.5,6.09,3.33,12.21,2.85,18.36-.39,4.91-8.1,7-13,7.59-15.58,1.82-31.91,3.21-47.34-.47-4-.94-8-2.41-10.84-5.38C2022.23,682.66,2024.83,675.08,2032,672Zm53.8-97c-7.12,19.15-71.27,33-52.78,7.11C2039.6,572.93,2088.18,568.6,2085.78,575.05Zm-60.37,136.3c3.71-6.8,18.32-2,24.54-1.88,16.77.21,34.33,4.64,51,1.72-.38.06-.24,12.77-.21,13.81.17,7.54-.86,9.8-9.41,10.67-14.88,1.51-31.8,4.67-46.64,1.83-5.06-1-15.42-2.68-18.57-7.13C2023.53,726.65,2023.25,715.3,2025.41,711.35Zm75.16-304.82c2.25,2.94,3,10.37.35,13.17a6.07,6.07,0,0,1-2.06,1.36c-4.78,2-13.6.83-17.63.92-8.2.18-16.39.42-24.59.47-4,0-12.24,1.23-15.81-1.43-2.67-2-2.62-3.94-2.48-7.17.38-8.85,9.4-10.64,16.59-10.92,10.6-.41,21.11-.7,31.8-.57C2091.2,402.41,2097.58,402.61,2100.57,406.53ZM2043,377.68c7.17-9.75,55.14-3,55.15-3.61l-.17,11.48c0-.32-45.61,2.89-51.85-.26-2.18-1.1-3.55-1.45-4-4.1A4.52,4.52,0,0,1,2043,377.68Zm50.23-20.92c-4.93,3.39-12.88,2.9-18.49,3.37q-13.34,1.14-26.71,1.52c-1.74.05-3.77-.06-4.74-1.48a5.22,5.22,0,0,1-.69-2.39c-1-8.44-3.92-21.4-.24-29.35,5.86-12.67,37.83-5.49,46.84-1.13C2100.27,332.64,2104.49,348.8,2093.27,356.76Zm4.27-49.75c-6.94.34-64.5,3-55.48-10,1.9-2.74,11.34-4.43,14.48-5.5,3.69-1.25,35.42-12.69,37.59-9.55C2099,289,2097.86,298.91,2097.54,307Zm-17-75.63c1.74-2.11,3.67-7.58,7.13-6.88a3.94,3.94,0,0,1,1.24.5c3.35,1.95,3.24,15.19,3.36,18.62.1,3,1.85,10.77.95,13.48-1.57,4.79-12.08,7.57-16.28,9.16a163.37,163.37,0,0,1-25.26,7.27c-2.89.59-12.7,3.82-15.24,2.21-8.9-5.63,12.08-17.49,15.18-19.88C2061.31,248.39,2072.7,240.85,2080.5,231.38Zm-10.92-39.89c3.54,2.43,9.42,8.79,9,13.52a11.75,11.75,0,0,1-1.77,4.65c-4.9,8.6-11.26,12.46-18.25,18.83a304,304,0,0,1-27,22.47c-7.45,5.36-12.23-2.16-8.75-9.07,5.7-11.29,13.88-21.28,22.65-30.32C2048.37,208.53,2065.31,188.56,2069.58,191.49Zm-37.4-20.77a10.27,10.27,0,0,1,5-1.44c3.94,0,8.43,2.6,11.31,5.06,3.61,3.07,4,5.87.52,8.55-3.86,3-31.65,41.7-42.51,53.33-5.64-9.46-7.55-15.36-3-25.89,4.91-11.42,11.24-22.38,19.79-31.48C2025.94,176,2028.83,172.61,2032.18,170.72Zm-55.08-4.78c3.2-6.91,13.91-4.53,20.12-4.58,2.12,0,4.35,0,6.19,1a4.19,4.19,0,0,1,1.87,3.92c0,7.45-9.48,21.8-11.33,26-5,11.22-9.42,22.65-13.26,34.29-.27.8-1.11,1.78-1.73,1.22a176.66,176.66,0,0,0,1.83-22.83,175.78,175.78,0,0,0-1.52-19.17C1979.36,179.65,1974.28,172.05,1977.1,165.94Zm-43.17-3.72c3.6-7.32,14.81-3.33,20.8-1.72,2.72,7.37,6.15,14.84,7.67,22.59,1.2,6.13.4,12.36.78,18.64.27,4.42.19,9.05-1.82,13-3.75,7.37-23.39,10-27.72,1.56-1.67-3.24,1.27-8.65,1.78-11.87.87-5.51.27-11-.54-16.47C1933.67,179.79,1930,170.15,1933.93,162.22Zm-41.82-2.73c6.92-.19,16.49-4.63,21.92,2.49,6.63,8.69,5.63,29.72,5.71,40.09.07,7.9-4,15.07-11.81,17.12-1.74.45-18,.82-18.07,0-.5-6.93,2.85-13.05,4.18-19.56C1894.78,195.93,1892.85,159.47,1892.11,159.49ZM1859,155a16.5,16.5,0,0,1,6,2c8.9,5.14,10.57,18.11,10,28.38-.23,4.2-6.51,29.39-9.36,29.87-4.49.75-17.9,4.95-22,.91-3.19-3.18-.28-11.31.19-15a115.09,115.09,0,0,0-1.9-38.5C1839.62,151.61,1850.58,153.83,1859,155Zm-63.25,1.14a38.48,38.48,0,0,1,25.56-1.9c4.12,10.08,4.29,20.74,5,31.41.73,11.36-4.11,20.81-9,30.86-6.58.44-13.36,1.4-19.89-.23-.34-.88-.64-1.25-.59-1.56,3-17.27,4.51-15.71,1.91-37.42C1797.65,169,1794.41,162.67,1795.7,156.16Zm-23.06-.65a44.18,44.18,0,0,1,5.82,16c2.9,21.07,6.75,29.53-4.07,42.84-4.43,5.45-12.85,4.13-25.58,4.6,1.51-.06,3.41-23.08,3.24-25.71a229.19,229.19,0,0,0-4.88-33.51C1755.62,156.05,1763.64,154.28,1772.64,155.51Zm-68.52,4.36c6.07-3.77,12.22-3.16,18.66-3.5,4,6.57,5.92,14,8.34,21.09,5.56,16.37,3.53,22.27-3.51,38.73-1.9,4.44-21.36,4.49-26.42,3.29C1708.42,190.86,1709.33,197.59,1704.12,159.87ZM1651,172.72c-1.34-3.22-3.3-4.49-2-8.42a7.52,7.52,0,0,1,.58-1.35c2.7-5.07,10-5.43,15.12-5.55,4.74-.1,13.64-1.28,17.71,1.49,7.68,5.22,6.8,24.78,6.59,33-.18,7.09-7.51,30.55-14.23,29-7.59-1.71-22.91,1.2-27.66-.74,3.79-11.15,6.78-22.81,6.62-34.67A31.6,31.6,0,0,0,1651,172.72Zm-49.8,36.48c.52-8.83,1-19.72,1-21.62-.1-7.25-1.62-23.88,8-26.28,14.08-3.51,24.34,3.33,26.14,17.6,1.36,10.76,3.64,30.5-5.87,38.67-8,6.85-20.93,6.7-30.32,3.37C1600.36,221,1600.77,215.67,1601.16,209.2Zm-29.71-28.43c-.5-4.8-3.18-11.74-1.39-16.47a10.23,10.23,0,0,1,.75-1.56c2.6-4.32,8.17-5.48,13-3,10,5.19,6.11,24.57,4.72,33.35-.72,4.56.12,9.56-1.25,13.95-2.25,7.18-14.84,19.55-20.25,8.92-2.61-5.14,3.37-11.1,4.6-15.89C1573.17,194,1572.09,186.92,1571.45,180.77Zm-52.33-23.24c.73-.07,1.51-.12,2.36-.14,6.83-.14,14.94-2.74,21.55-.1,8.59,3.44,9.12,15.14,10,23.19,1,9.66-.54,26.45-6.8,34.48-6.47,8.31-20.56,4.77-29.35,3.58-6.3-.85-6.87-1.59-7.16-8.45-.43-10.19,3.58-20.1,3.44-30.2C1513,169.23,1506,158.88,1519.12,157.53ZM1473,214.58c2.87-18,6.17-36.05,3.57-54.13,2-2.9,4.13-2.93,5.74-.48,13.63,20.76,15,24.84,1,57l-9.4-.14C1473.48,215.86,1472.89,215.17,1473,214.58Zm-20.37-52.48c15.66,7.47,3.11,40.45-1.37,56.56l-8.08-2c-.59-1.57-1.08-2.28-1.09-3-.28-21.42,3.59-11.59-.12-53.48C1446.34,157.08,1449.38,160.56,1452.61,162.1ZM1419,159.5c9.45,12,7.75,46.82.64,56.39-3.44-1.24-2.68-3.47-2.13-5,7.58-21.07,3.64-31.07-.54-50.32Zm-31,0,.4-.34c5.36-4.17,8.08.15,10.23,4.93,5.59,12.38,6.61,26.44,1.78,39.22-3.74,9.91-2.35,17.07-14.38,13.32,1.29-10.18,3.39-20.92,3.31-31.23C1389.22,178,1380.88,165.67,1387.94,159.5Zm-56.76-.54c-.68-1.87,21.7-1.66,23.73-1.16,9.4,2.34,15,15.77,15.58,24.55.87,13.07-5.79,23.56-12,34.47-9,3.38-18.67,3.62-29.25.76C1332.88,206.75,1341.61,187.08,1331.18,159Zm-54.36-2.06c10.07-1.33,20.88-.62,31.09-.83,5.53,5.21,9.2,11.48,8.61,19.92-.68,9.64,2.45,27.16-10.07,40.75a64.74,64.74,0,0,1-20.65-.3c-11.47-2.16-6.23-16.23-6.48-24.92C1279.24,188.6,1276.5,156.94,1276.82,156.9Zm-27.9-1.69c10.81,2.81,13.2,17.84,12.9,30.78a94.84,94.84,0,0,1-1.54,15c-.34,1.77-5.82,16.6-8,16.21-9-1.58-18.59.25-28.29-1.54,4.55-45,5.08-35.36-.34-61.44C1223.62,154,1246.88,154.68,1248.92,155.21Zm-71.57,1.51c1.39-2.89,4.66-4.1,8.29-4.28A24.28,24.28,0,0,1,1198,155.2c11.51,6.83,12.36,19.72,11.13,31.52-.92,8.82,1.17,24.09-8.31,29.37-3.69,2.06-14.85,1.09-18.57-.85-1.55-.82-1.69-2.93-1.67-4.69.08-7.76-1.69-15.5-1.48-23.19.15-5.39,1.22-10.23.34-15.77C1178.77,167.68,1175.5,160.56,1177.35,156.72ZM1130.66,159c.48-1.58,2-2.56,3.51-3.25.8-.37,1.62-.72,2.46-1,19.83-7.62,29.55,9.21,30.19,27.2.27,7.48.57,25.12-4.65,31.26-4.52,5.33-18.13,3.18-24.24,3.61-5.38.38-6.41-50-7.21-54.69A6.73,6.73,0,0,1,1130.66,159Zm-63.93-.09c2.58-4.92,14.14-5.94,25.32-4.68,10.22,1.15,20.12,4.22,22.52,8,5.66,8.82,11.62,57.47-6.07,58.42-6.13.33-13.74-1.69-20.19-1.79l-13-.19c-.27-16.6,1.91-33.48-4.8-49.15C1069.47,167,1065.2,161.82,1066.73,158.9Zm-34.69-.81c1.28-2.24,3.21-2.4,5.36-1.42,5.12,2.33,11.47,11.1,13,13.46,7.37,11.08,15.21,39.27,4.89,50.58-4.15,4.54-12,6.42-15.26.47-2.42-4.39-.4-11-.53-15.76a151.43,151.43,0,0,0-4-31.16C1034.77,171,1030.24,161.25,1032,158.09Zm-11.9,11.25c2.94,9.46,2.82,20.79,2.61,30.58,0,1.68-2.89,30.26-10,21.55a6.86,6.86,0,0,1-1.15-3.35c-1.5-9.52.32-18.37.06-27.89-.23-8.51-1-17-1.53-25.49C1015.24,163.78,1018.55,164.23,1020.14,169.34ZM959.42,193.6c1.25-8.95-.92-18.15.63-27.13a24.06,24.06,0,0,1,1.33-5.21,8.67,8.67,0,0,1,3.71-4.27c15.45-9.08,24.8,11.8,27.7,23.24,2.27,8.92,3.11,32.27-4.12,38.72-6.2,5.53-26.26,6.49-31-1.55C953.83,211,958.5,200.16,959.42,193.6Zm-31.79-13.27c0-5.26-3.3-14.26.89-18.6,4.49-4.63,11.79,4.86,12.25,9.1,1.4,13,4.34,25.9.74,38.69a17.53,17.53,0,0,1-2.82,6.23c-3.07,3.87-8.14,4.95-12.76,4.65-2.38-.15-.19-9,1.24-14.41.53-2.05,1-3.63,1-4.11C928.75,194.94,927.69,187.35,927.63,180.33Zm-30.55-25c5.65-5.49,15.28,2.93,15.59,8.77.55,10.23,1.9,47.74-6.33,55.35-13,4.39-8.62-8.75-6-24.14a62,62,0,0,0-1-24C898.4,167,893.12,159.16,897.08,155.32Zm-27.18,2.14c19.56,15.19,15.73,74-9.19,62.29,1-10.45,3.08-12.58-.05-30.09-1.14-6.36-2.58-12.81-2.58-19.31C858.08,160.05,860.79,159.5,869.9,157.46Zm-38.57,5.06c3.47-5.84,8-3,11,.88a18.24,18.24,0,0,1,2.53,4.49c2.9,7.87,3.78,16.45,3.85,24.78.07,7,1.15,18.47-1.58,24.94a7.89,7.89,0,0,1-5.11,4.77c-10.75,2.55-6.75-11.15-6-16.29a69.12,69.12,0,0,0-1.21-25.67C833.74,175.82,828.59,167.14,831.33,162.52Zm-29.65-3.8a27,27,0,0,1,9.05,4.22A23.89,23.89,0,0,1,818,171.6c8.25,16.47-3.33,34.11-5.39,50.31-9.36,2.19-18.57.38-27.48,1.37-2.54-3.16-1.22-6.33-.2-8.94,5-12.74.3-41.39-3.41-54.5C781,158.06,799.45,158.13,801.68,158.72Zm-71.95,11a10.57,10.57,0,0,1,2.26-6.5c10.64-12.57,28.7-.5,33,11.39a56.45,56.45,0,0,1,3.24,18.84c0,3.81-.56,27.14-4.06,28.25-9.85,3.1-18.88-.66-27.65.2-3.26-4.23-1-18.8-2.07-24.66C732.83,188.19,729.21,179.07,729.73,169.74Zm-48.16,1.07c1.95-9.37,14.87-13.5,22.16-9.58,10.25,5.52,23.73,60.23,7.55,60l-25.7-.38C687.81,220.87,680.71,174.92,681.57,170.81ZM635,164.32c7.66-.62,20.91-5.14,27.36.94,12.26,11.56,5.28,33.6,3.68,47.59-1.21,10.55-15,8-22.44,6.56-8.61-1.62-10.19-6-11.3-14.35C631.82,201.43,630.42,164.69,635,164.32Zm-54.65,1.27c3.11-3.4,26.53-6,29.88-2.69,4,4,4.21,9.1,4.28,14,.18,13.22,3.71,26.82-4.16,39.84-21.09.28-30.85,3.13-30.77-5.1C579.8,188.37,586.1,193.28,580.36,165.59ZM541.78,164c28.71-8.48,34.48,66.81-8.3,49.61C534.23,163.46,530.81,167.21,541.78,164Zm-50,2.9c1.34-1.63,20.35-1.75,20.86-.59,4.15,9.46,5.87,31-1.06,45.37-6.62,0-12.75.78-19-2.35C489.88,207.94,489.59,169.53,491.76,166.86Zm-34.16-3.18c25.36,1.25,15.37,30.36,10.91,45-9.44,2.63-20.15,1.16-29.82,1.61C437.11,190.69,427,162.17,457.6,163.68Zm-70.45,8c4-9,16.44-5,25-4.53,7.27,13.72,9.89,27.64,2,42.46-4.49,8.4-23.21.29-25.95-4.63C385,199.17,384.41,177.85,387.15,171.64Zm-44.62-3.42c2.37-4.1,13.71-4.48,20.75-2.48,2.56.73,4.55,1.77,5.35,3.06,2.17,3.51,2.19,7.89,2.15,12-.16,17.08,1.66,30.4-19.16,30.31C348.73,202.81,338,176.09,342.53,168.22Zm-29.68.43c7.46,7.1,21.4,39.3,4.48,43-19.32,4.2-17.39-43.5-18.34-43.22C303.8,167,308,167.63,312.85,168.65Zm-45.58-2.24c13.34.63,14.55,43.14,7.46,44.05a4.31,4.31,0,0,1-3.55-2c-6-13.72-6.15-22.95-20.66-41.35C257.32,166.75,262.31,166.17,267.27,166.41ZM258.2,522.17c-1.62,13.19-34.88,33.88-46,40.09-12.27,6.83-15.64,13-23.66,8.58,1-8.63,3.87-15.22,12-19.72,9.74-5.36,12.56-14,26.31-19.49C241.69,525.73,248.48,520.5,258.2,522.17ZM188.58,2644.08a16.9,16.9,0,0,1,6.17-4.42c6.14-2.5,12.43-2.26,18.91-2.55s12.66-1.71,19.37-.7c4.88.73,9.85,2,13.78,5,5.25,4,8.75,12.26,2.61,16.69-5.6,4-16.61,3.28-23.19,3.82-11.06.92-22.32,0-33.41.31-5.24.16-7.2,1.62-8.69-4.5C183,2653.07,185.56,2647.47,188.58,2644.08Zm4.5-49.33c4.86-1.94,10.24-2,15.47-2.08,12-.12,22.43.37,34,4.11a5.2,5.2,0,0,1,2.14,1.1,5.26,5.26,0,0,1,1.14,3.32c.27,2.59,1.09,23.72-3.38,23.29-36.41-3.07-21-3.16-57.53.63C184.38,2614,180.05,2600,193.08,2594.75Zm55.29-11a2,2,0,0,1-.89.89,2,2,0,0,1-1.38-.22,58,58,0,0,0-11.62-3.64c-18.51-3.69-33.63-.47-52.27,1.94-.78-5.66-2.61-12.37-.74-16.9,1.12-2.73,3.6-4.67,8.46-5.09,16.43-1.44,38.18-4.45,54.31-.19C255.05,2563.43,253,2576.31,248.37,2583.78Zm-63.48,144.43c7.86-10.62,27.77-10.81,40.08-8.07,5.1,1.14,34.15,4.29,24.72,16.1-3.89,4.88-22.7,4.33-28.8,5.19-9.9,1.4-19.8,2.8-29.69,4.3-7.1,1.07-9,2.69-9.56-4.45C181.18,2735.78,182.46,2731.49,184.89,2728.21Zm58.67,100.6c-5.33,0-10.81-.95-16.13-1.3a235.15,235.15,0,0,0-32.4-.26c-7.9.57-13.29,4.19-14-4.74a49.78,49.78,0,0,1,.18-11.89c5.07-7.24,23.43-1.12,29.92.56,14,3.6,26.81,10.47,40.61,15,.66.22,1.13,1,2.4,2.12C252.52,2826.81,245.72,2828.8,243.56,2828.81Zm7.42,19.27c-.11-1.85-47.73,3-50.4,3.44-5.21.83-13.41,5-18.07.74-5.24-4.76-2.21-8,2.43-10a35.94,35.94,0,0,1,10.63-2.49c19.06-1.1,37.09.42,55.29,6.27Zm-67-57.34c-.56-2.25-1.08-4.36-1.76-7.15,15.64-8.4,63.86-14.36,74.94,4.2,2.5,4.18,3.56,11.62.1,15.77-6.67,8-20.9-1.5-30.15-4.35C212.76,2794.81,198.73,2792.72,183.93,2790.74Zm71.69-29c-1.33,3.36-61.11.11-69.19.74,15.19-8.07,28.81-10.77,46.41-10.33C237.13,2752.27,258.32,2754.89,255.62,2761.76Zm-1.54-57.1a6.28,6.28,0,0,1-1.21,3.87c-1.51,1.65-4.15,1.32-6.34.85-17.12-3.66-33.51-6-51.09-4.16-6.29.66-9,1.35-11.11-5.31-1.48-4.59-1-10.7.18-15.3a7.39,7.39,0,0,1,1.63-3.49c3.31-2.88,7.71-4.12,12-4.93,11.38-2.15,24-2,35.49-.81,5.11.52,12.76.93,16.86,4.51C256.6,2685.21,254.63,2697.5,254.08,2704.66ZM241.63,592.13c-11.68-5-26.32-4.54-37.75-1.49,10.92-9.14,31.35-16.07,46.41-29.93,1-1,2.65-1.26,4-1.78.29-.11.72.19,1.85.53-2.67,22.54-2,13.19-2.32,35.23C252.22,596.52,243.88,593.09,241.63,592.13Zm-70.52,709c-1.15-3.74-.76-12.8.79-16.47,2.75-6.53,9.82-9.12,17.53-10,14.17-1.55,28.39.75,42.45,3.06,9.83,1.62,14.63,24.11,4.52,25.38-7.55.95-16.11-1.45-23.69-1.87a137.69,137.69,0,0,0-28.47,1.36c-2.21.33-9.24,3-11.09,2.16C170.15,1303.47,172.08,1304.32,171.11,1301.14ZM203.2,862.32a69.5,69.5,0,0,1,20.11,0c4.58.56,9.28,1.41,13.13,4a11.45,11.45,0,0,1,5.4,11.57c-.43,4-1,10.47-4.18,13.46a5.16,5.16,0,0,1-.82.66c-2.51,1.66-5.63,2.07-8.62,2.32a116.68,116.68,0,0,1-38.06-3.18,7.41,7.41,0,0,1-2.78-1.14,7.09,7.09,0,0,1-2.12-4.32C182.17,870.83,189,864.73,203.2,862.32Zm-18.41-31.23c1.55-4.64,6.44-7.55,12.84-8.52,11.64-1.78,25.2-6.67,36.59-1.31,10.39,4.88,4.35,19.91,2.38,28.93-23.29-9.08-37.06-1-48.31-.92a6,6,0,0,1-2.07-.83C185.79,843.26,185.36,838.07,184.79,831.09ZM174.23,2245.75c22.69-6.58,45.23-6,67.82-1.31,1.45.3,3.2,17.4,2.44,20.41-1.64,6.47-6.64,6.22-12.79,6.45-14.51.52-31.1-5-45.31-2-7.84,1.62-11.86,3-13.37-6.47C172.73,2261,172.27,2246.33,174.23,2245.75Zm.12-35.89c.1-7,22.52-6.74,26.24-7,11.08-.84,21.15-.35,31.94,3.25a18.72,18.72,0,0,1,6.88,3.55c3.4,3.1,3.8,11.28,1.37,15.18-2.32,3.7-5,3.5-9.6,3.22-12.49-.75-25.44.81-37.94,1.23-3.66.13-14.58,2.43-17.57.53a4.83,4.83,0,0,1-1.68-1.85C171.63,2223.46,174.28,2214.52,174.35,2209.86Zm6.24-86c6.11-5,15.09-5.94,22.66-6.28,10-.45,21-1.32,30.65,1.9a15.55,15.55,0,0,1,6.42,3.48,12,12,0,0,1,2.77,4.67c5.21,14.51-1.3,22.2-16,22.27-7.4,0-14.54-1.08-21.93-.83-8.17.28-18.57,1.09-26.13-2.59C169.8,2142,174.4,2128.89,180.59,2123.88Zm-3.18-42.34c.52-2.47,1.2-4.33,2-4.94,13.7-10.09,35.75-5.74,51.4-3.87,3.14.37,6.55.95,8.68,3.29,5.2,5.69,6.36,24.28-2,28.23-1.65.78-3.57.57-5.38.35-7.84-.95-16-2.86-23.74-2.63-8.41.25-16.78,2.41-25.21,2.85a10.77,10.77,0,0,1-5.64-.76C173,2101.67,176.48,2085.91,177.41,2081.54Zm57-23.78c-14.95,3.29-32.7,1.53-48,1-7.44-.27-8.78-3.34-9.56-11.16-.35-3.57-.56-15,2.18-17.63,7.55-7.26,19.69-8.09,29.57-7.43,8.61.58,24.87,2.49,31.13,8.84a12.16,12.16,0,0,1,2.57,3.88C246.51,2045.15,245.49,2055.32,234.42,2057.76Zm-56-64.19a6.29,6.29,0,0,1,.51-1.85c1-1.91,2.93-3.12,4.86-4.06,10.28-5,25.17-5,36.29-4.57,5,.21,12.69.19,16.9,3.4,3.15,2.4,5.08,21.83,2.66,21.86-16.82.19-33.16-2.68-50-1.58-3.27.21-7.17,1-9.62-1.71C178.53,2003.4,177.92,1997.11,178.44,1993.57Zm61.3-21.42c-4.47,2.18-9.9.51-14.48,0-13.84-1.44-27.59,1.76-41.43,1-7-.36-8-1.92-8-9.53-.07-5.59-.16-12.12,2.26-16.81a11,11,0,0,1,8.41-6c12.46-2.21,27.57-3.52,40-1.2,6.67,1.25,15.54,3.27,17.21,11C244.76,1955.78,245.31,1969.43,239.74,1972.15Zm-3.51-122.08c-5,3.35-9.44.66-14.77-.36a55.4,55.4,0,0,0-19.39.07c-5.83.9-15.88,4.69-19.9-1-2.85-4-1.84-15.65-.34-19.94,4.46-12.82,28.95-6.9,39-7.25,3.57-.12,7.32,0,10.45,1.73,4.34,2.36,5.21,7.2,5.22,11.7C236.47,1836,235.7,1850.42,236.23,1850.07Zm-51.07-199.9c4-4.43,13.21-4.45,18.61-4.64,8.34-.31,17,1.29,25.28,2.1,1.84.18,3.85.44,5.14,1.76s1.47,3,1.66,4.7c.51,4.45,3.49,18.53-.06,21.26a1.76,1.76,0,0,1-.37.23c-2.85,1.39-9.33-1.71-12.41-2.13-6.56-.9-13.6-.54-20.19,0-5.18.38-12.07,3-16.36-1.21C182.43,1668.23,181.35,1654.39,185.16,1650.17ZM237,1619.9l-.2,13.07c-17.56-2.9-34.63-1.63-52.51-1.66C168.61,1599,220.12,1606.79,237,1619.9Zm-.88-26.85a8.79,8.79,0,0,1-6.72,2.78,31.65,31.65,0,0,1-7.4-1.19c-9-2.07-19.55-3.59-28.8-2.19-7.17,1.08-11.15,2.52-11.76-6.81-.31-4.65-.7-8.93,1.29-12a8.12,8.12,0,0,1,3.67-2.93c10.4-4.52,27.4-.67,38.06,1.44C232.28,1573.75,243.23,1584.42,236.09,1593.05Zm-51.81,99.58a13.12,13.12,0,0,1,8.26-4.63,87.15,87.15,0,0,1,33.45.15c9.9,2,16.41,18.09,9,26.13-2.71,2.94-7.35,2.52-11.33,2.19-11.39-.93-24.64,2.38-35.69-.1-4.9-1.1-4-.23-5.81-4.64C180,1706.45,180.74,1697.16,184.28,1692.63Zm53.84,68.91c-15.7,1.51-31.67,3.59-47.43,3.31-9.54-.17-7.27-8.63-8-15.38a25.42,25.42,0,0,1,.62-10.42c1-3,2.9-5.38,6.18-6.21,13.77-3.47,28.92-1.33,42.87.41a9,9,0,0,1,3.67,1C241.29,1737.55,238.57,1756.27,238.12,1761.54ZM234.59,1804c-5.33,3.86-12.61.65-18.49.31-10.45-.61-21,1.76-31.51,1.85-.8-2.41-2.3-4.82-2.24-7.19.35-12.15,5.51-21.1,18.28-22,13.76-1,50.87,1.58,36.3,24.54A9.07,9.07,0,0,1,234.59,1804Zm-4.88-249.83c-6.66,1.85-13.86.48-20.68.68-8,.24-16.24,1.06-24-1.55a7.13,7.13,0,0,1-4.23-4.08c-2.08-4.62-1.2-11.67.71-15.4,2.7-5.27,10.27-7.1,16.23-8.15,7-1.23,14.14-.81,21.13.15,2,.29,19.32,2.24,19.66,3.69C240.94,1539.8,241.61,1550.8,229.71,1554.12Zm-48.93,316.2c25.14-8.27,45.21-4.87,54.54.65.55,4.13,1.08,8.19,1.66,12.58a14.42,14.42,0,0,1-12,2.13c-20.88-5.45-33.51.5-44.4,1.35C178.66,1881.34,179.78,1876.14,180.78,1870.32Zm-1.14,41.36c2.79-9.63,37.81-10.85,55.56-7.24,7.14,1.45,4.91,3.09,3,20.82-38.63-4.58-22.89-4.68-58.66.76C177.66,1921.32,178.28,1916.38,179.64,1911.68Zm.09-476.34a10.68,10.68,0,0,1,5.21-4.44c11.52-5,26.87-3.8,39.1-3.74,3.88,0,8.11.16,11.06,2.67s6.06,24,.54,24.41c-22.42,1.58-52.71,4.5-53.18,4.54C179.43,1452,176,1441.78,179.73,1435.34Zm59.41-221c-1.66.64-3.51.28-5.26-.06-13.85-2.73-28.2-3.83-42.22-1.8-4.24.61-11.66,4.5-14.54,1.11-1.75-2-.57-7.71-.38-10.17a21.77,21.77,0,0,1,1-5.42c5.16-15.07,33.53-10.55,45.07-8.47C229.24,1190.66,254.82,1208.28,239.14,1214.31Zm-6,47c-3.83.68-7.76,0-11.61-.56-13.55-2.07-24.95,1.19-38.1,1a10.72,10.72,0,0,1-3.83-.56c-3.08-1.23-4.46-4.81-5-8.08-2.29-14,6.48-20.85,19.15-24a57.72,57.72,0,0,1,9.5-1.55c6.3-.51,12.69-.69,19-.65,4.37,0,8.92.67,12.49,3.18C243.36,1236,245.46,1259.12,233.18,1261.28ZM190.84,676.45c8.21,2.72,16.71,1.88,25.09,2.49,7.55.55,15.58-3.43,22.6-2.73,7.68.76,9,11.32,8.87,17.38-.14,7.68-3.12,9.87-10.63,9.5-18.35-.91-34.19-5.3-52.09,2.46a5.76,5.76,0,0,1-4.56.12C179.06,690,173.43,670.67,190.84,676.45Zm-10.25-24.38c.71-5,11.45-9.06,16.47-10.52,14.37-4.17,31.94-6.8,46.62-3.9,7.87,1.55-3.64,17.75-5.89,19.37-7.2,5.19-20.24,4-28.87,4.66-7.22.56-17.75.3-24.11-3.64C181.47,656,180.33,654,180.59,652.07ZM237.31,989.3c-16-4.32-29-2.55-54.7-.89-.84.05.58-20.37,1-22.28a11.68,11.68,0,0,1,1.38-3.36c4.38-7.15,15.86-7,24-7.27l9.88-.35c4.37-.15,8.91-.28,12.95,1.42,8.58,3.6,5.93,10.31,5.66,17.47C237.5,975.16,236.75,989.14,237.31,989.3Zm-54.15,22.78c16.47-9,37.72-6.17,55.5,1.29-.95,13.12,1.88,24.46-14.09,23-13.59-1.28-27.52,1.1-40.68,2.1a2.28,2.28,0,0,1-1.69-.34,2.35,2.35,0,0,1-.6-1.55C180.56,1028.57,182.4,1020.11,183.16,1012.08Zm28.28,39.74c7.06-.07,15.25,1.63,21.4,5.17a15.69,15.69,0,0,1,4.75,4.15c3.83,5.08,4.2,12.12,3.89,19-.4,8.8-4.09,6.38-11.24,5.68-13.71-1.34-27.5,0-41.16,1.27-6.94.63-8.45,0-9.21-7.16a54.55,54.55,0,0,1,.06-13.75C181.92,1054,201.59,1051.93,211.44,1051.82Zm-24.85,98.62c34.38-6.11,36.19-1.15,54.34,7.64-1.32,5.89,1.51,12.14-2.65,18.31-37.52-6-21.94-4.59-58.13-5.13-2-4-2.06-8.1-1.74-12.25C178.92,1152.38,179.59,1151.69,186.59,1150.44Zm53.71-16.09c-1.7,0-3.64.28-5.41-.14-16.36-3.9-29.81-4.07-46.53-1.85-1.91.25-4,.45-5.63-.53-2-1.21-2.76-3.82-2.79-6.19,0-4.83,1.15-9.63.94-14.44,14-9,29.05-10.15,44.56-8.54,4.11.43,12.32,6.07,15.85,8.24C242.49,1135.36,243.13,1129.44,240.3,1134.35ZM184.65,916.86c3.34-10.83,26.08-7.42,34.2-7,4.36.25,8.88.55,12.74,2.6,6.22,3.31,5.6,8.25,5.8,14.14.22,6.18.92,10.17-1.38,11.92-1.39,1.06-3.88,1.3-8.23.71a93.45,93.45,0,0,0-34.4,1.39c-2.5.59-5.31,1.26-7.49-.11a7.42,7.42,0,0,1-2.82-4.24C181.34,930.91,183,922.22,184.65,916.86ZM180,752.94c-2.05-4.32-.5-10.47-.37-15.05.29-10.39,6.64-12,16.25-14.86,19-5.67,32.34,0,50.54,3.92,2.55,6.81,7.07,21,2.39,27.49-2.64,3.67-6.05,4.07-9.57,3.23-3.86-.93-7.86-3.34-11.16-4.58-9.59-3.62-23.36-1.27-33,1C189,755.61,183.41,760.06,180,752.94ZM224.7,621c-13.42,2.4-29.37,5.66-42.95,3.5-5.33-.84-5.71-4.52-5.7-9.09a8,8,0,0,1,2.4-6.07c6.56-6.27,24.8-2.35,32.7-1.77,11.11.81,30.93,1.5,37.93,12.06C246.39,615.52,228.54,620.26,224.7,621Zm-48.41-78.66a6,6,0,0,1-1.4-1c-3-2.8-3.59-13.36-3.09-17.17.88-6.8,4.51-6,10.73-7.18,11.35-2.13,23.26-5.27,34.85-3.19-1.87-.34-12.76,10.37-14.85,11.9-5.5,4-11.15,7.87-16.64,11.94C182.71,539.94,179.81,544.09,176.29,542.29Zm-2.07-49.16c-1.19-4.05.18-8.33,1.41-12.52,35.43-1.72,6.37.6,59.81-7,1.45,4.74,2.19,8.72.64,13.87C191.8,497.71,188.26,502.08,174.22,493.13ZM234,448c-15.59,2.27-32.87,20.76-55.77,11.32-6.34-2.61-4.46-3.81-5.26-22.73,22.38,5.45,42.75,2.34,63.41-1.6,1.51,1.33,2.54,3,1.16,5.57C236.28,442.86,235.26,445.33,234,448Zm-.72-34.22c-3.81,2.9-9.65,4.27-14,6.18-11.61,5.08-26.11,2.46-38.19-.54-2.24-.56-7.22-1.22-8.81-3.34-.82-1.11-2.1-8.24-.78-8.68,7.26-2.37,14.47.57,21.67.21,27.27-1.37,12.49,1.14,44.5-5C239.93,402.12,234.6,412.77,233.29,413.76ZM232.72,380c-3.2,2.81-5,5.36-9.19,6.88-11.58,4.21-27.43,3.1-39.43,1.67-5.5-.65-12-1.64-14.57-7.23-3.59-7.76-2.67-13.5,1.74-16,2.69-1.52,6.7-1.83,11.77-.64,18.27,4.29,36.2,3.06,54.62,1.14C237.92,373.6,238.42,375,232.72,380Zm-.26,1131.22c-10.11,2-20.14-1.67-30.16-1.23-4.24.19-16,2.89-19.75,1.06-6-2.94-2.42-17.45-2.52-22.6-.09-5.34-.5-9.16,5.63-10.27,14-2.52,37.41-10.61,49.92.08C243.93,1485.4,245.05,1508.76,232.46,1511.22Zm6.29-106.76c-4,5.32-12.91,3.6-18.62,3.56-16.22-.1-28.72,1.79-44.38,5.19-1.42.31-2.59-21.56-2.72-23.49-.44-6.92-.34-9.42,6.33-12.43,9.17-4.14,20.35-3.71,30.2-4.21,11.1-.55,24.78-.76,29.08,11.72C240.35,1389.8,242.28,1399.79,238.75,1404.46Zm-63,762.76c3.15-8.56,40.85-5.59,47.19-4.44,6.18,1.12,15.45,3.88,19.38,9.26,3.31,4.54,2.22,10.66,1.3,16-11.61,1.35-23.79-.83-35.43-1.7a123.32,123.32,0,0,0-17.3.16c-3.25.21-12.75,2.81-15.49,1.25C169.18,2184.24,174.07,2171.8,175.75,2167.22ZM173.49,2295c2.64-9.62,45-14.16,72.88-3.73-.74,5.67-1.4,10.83-2.08,16-5.66,1.74-13.44-.2-19.52.1-8.6.44-17.19-.16-25.81.55-7,.58-17.91,4.77-24.66,2.15C170.58,2305.48,172.09,2300.08,173.49,2295ZM239.92,804.32c-9,.68-17.52-1.19-26.5-.69-7.87.44-26.35,5.48-29.37-2.88-2-5.65.53-16.27,2.63-21.7a4.8,4.8,0,0,1,.65-1.28c9.73-12.29,30.44-13.52,44.34-9.31,7.42,2.24,13.09,6.27,14.58,14.42C247.33,788.82,248.15,803.71,239.92,804.32ZM248,2389.84a9.11,9.11,0,0,1-5.25,3.63c-4,1.2-8.25.68-12.41.43-8.47-.52-18.85-1.57-27.25-.59-7.08.82-16.9,5.81-23.9,2.67-4.3-1.95-4.63-10.9-4.54-14.74.18-7.52,1.82-10.51,8.69-13.55,12.75-5.64,57.7-17.3,63.44,3.13C248.45,2376.74,251.28,2384.87,248,2389.84Zm-71.47,27.77c1.45-6.88,15.58-8.11,20.78-8.8,11.7-1.54,25.32-2.78,37-2.3,4,.17,8.12.87,11.35,3.21,8.36,6.05,3.91,17.44,3.38,25.9-25.73-5.86-30.84-9.6-68.88,3C170.72,2441.81,174.31,2428.1,176.53,2417.61ZM250.89,2510c-5.66,3.61-18.42.34-24.95-.56a119.37,119.37,0,0,0-32.15-.58c-12,1.57-18.59-.73-17.11-14.14a17.74,17.74,0,0,1,.52-3.4c.46-1.35,1.44-2.07,4.33-3.8,7.77-4.65,17.31-6.49,26.27-6.68,11.3-.24,22.48,2.09,33.46,4.77a15.18,15.18,0,0,1,6,2.41C250,2490.14,253.13,2508.57,250.89,2510ZM204.06,175.65c7.29-3.46,16.32-.88,23,2.52,8.15,4.13,26.22,19.3,17.44,30a4.47,4.47,0,0,1-1.41,1.16c-10.3,5.51-26.5-11.45-34.77-15.28-5.12-2.37-11.42-.53-12.87-6.72C194.51,183.15,200.84,177.19,204.06,175.65Zm-25.17,33.83a9.42,9.42,0,0,1,3.16-3c4.39-2.38,9.26,1.73,14.63,4.61a419,419,0,0,1,42.51,26.82c.52,3.28,1.05,6.61,1.64,10.31a12.28,12.28,0,0,1-14.24.39c-9.53-6.22-35.63-15.28-45.15-24.55C176.61,219.32,174.74,215.47,178.89,209.48Zm-6.39,34.7c20.88.8,32.94,20.17,51.69,25.1,2.41.63,4.42,2.78,6.84,4.39-8.17,7-24.53,3.88-33.73.62-4.82-1.72-9.38-4.12-14.2-5.83s-11.68-3.13-13.89-8.38C168.27,257.84,169.45,244.07,172.5,244.18Zm-5.39,40.62c1-.21,1.45-.49,1.7-.35,34,18.75,71.45-1.56,64.7,20.76-16.15,7.08-37.42,2.83-54.33.69C166.89,304.35,163.41,296.46,167.11,284.8Zm-.21,40.42,67.89,4.24c2.38.15,2.6,9,2.3,10.42-1,4.45-1.45,4.43-5.51,6.46-7.89,3.93-18.69,5-27.35,4.3-9.92-.84-20.4-.12-30.19-2.9a16.1,16.1,0,0,1-6.62-3.17C161.2,339,164.93,331.61,166.9,325.22ZM167.55,1329c1.08-5.63,22.25-7.8,26.77-8.41,12.43-1.66,27.23-1.3,38.36,5.17,6.73,3.91,8.68,7.61,8.9,15.16.08,2.82,1.25,14.38-4.07,13.75a163.16,163.16,0,0,0-68,5.79C167.92,1349.22,165.54,1339.44,167.55,1329Zm11.45,998c1.22-.37,2.49-.72,3.8-1.06,18.61-4.78,39.16-5.2,58-2.17,7.23,1.16,5.87,6.53,5.22,12.28-.38,3.4-.55,6.85-3.72,8.94-6.1,4-12.8,1.92-19.53,1.48a110.34,110.34,0,0,0-21.8.74c-6.61.88-18.9,7.33-25,3.91C168.36,2346.76,171.29,2329.21,179,2326.9Zm-5.18,133.62c1-3.78,3.83-5.66,8.58-8.23,17.27-9.37,33.48-7.32,52-4.53,3.64.55,7.41,1.15,10.47,3.19s10.15,22,2,20.63c-20.36-3.36-38.2-6.55-58.89-2.59-7.54,1.44-14.46,6-14.65-4.16A15.33,15.33,0,0,1,173.82,2460.52Zm2.85,81c-3.66-4.88-2.12-12,2.5-15.69,15.26-12.14,46.35-6.24,63.7-3.18a12.74,12.74,0,0,1,5.73,2c5.06,3.92,4.3,19.19-.76,22.81-16.77-2-34.17-4.16-51-1.62-5.95.9-12.7,1.87-17.63-1.82A12.39,12.39,0,0,1,176.67,2541.56Zm7.93,330.83c6.64-3.21,16.8-4.52,20.6-4.92,11.06-1.16,22.1-3.69,33.28-3,4.67.3,11.53.85,15.29,4.06,1.61,1.38,6.54,10.21,1.64,11.27-9.85,2.12-19.55,1.46-29.43,2.7-11.59,1.45-23,4.25-34.52,5.51-3.27.36-7,.33-9.33-2C175.63,2879.56,178.73,2875.23,184.6,2872.39Zm66.81,44.75c-1,1.69-17.35.91-19.84,1l-21.46,1.14c-6.67.35-15.44,2.39-22,1.16-6.81-1.28-8.24-9.67-4.82-14.88a12.76,12.76,0,0,1,.9-1.19c4.81-5.48,13.23-3.19,19.75-3.91,16-1.79,33.51-3,49,2.3C254.36,2907.77,254.23,2912.47,251.41,2917.14Zm-58.37,17c11.89-2.66,24.18-2,36.08,0,4.93.83,22.8-.68,23.1,7.1.15,3.85,1.71,12.08-2.06,14.83-4.14,3-13.67-.82-18.44-1a246.58,246.58,0,0,0-25.93.7c-5.85.44-19.21,3.85-23.69-1.48C174.74,2945.65,184.39,2936.12,193,2934.18ZM184.26,2981a8.37,8.37,0,0,1,2-3.61c2.58-2.61,6.74-2.62,11.39-3.4,15.2-2.56,31-1.42,46.1,1.47,3.37.64,5.09.56,6.78,3.67.83,1.52.23,13.62.3,13.62-50.49-.75-56.27,2.16-66,4C185.2,2996.73,183.82,2982.49,184.26,2981Zm2.88,34.42c2.41-3,6.4-5.11,11.37-6,14.53-2.47,32.85-4,47.4-1.29a7.45,7.45,0,0,1,4,1.71,6.62,6.62,0,0,1,1.59,3.41c1.64,7.68-1.5,12.14-9.15,12.93a78.09,78.09,0,0,1-12.42.18c-6.62-.37-42.4,5.67-42.68,5.17C183.55,3025,184,3019.43,187.14,3015.45Zm-2.29,45c-.81-4.95,1.63-8.3,5.55-11,8.35-5.81,20.84-6.66,30.68-7.32,2.31-.15,31,1.12,30.82,3.79,0,.7-.06,1.4-.1,2.1-19,4.1-36.2,10.91-54.6,16.22C191.57,3065.84,186.11,3068.22,184.85,3060.46Zm8,41.27c-8-14.29-5.74-15.31,3-18.94,29.63-12.25,31.27-14.31,61.05-13.87C248.62,3073.89,193.23,3101.66,192.84,3101.73Zm9.3,31.21c-3.8-1.57-5.86-5.82-6.64-11.84,8.06-6.32,59.46-32.24,78.7-36.32,5-1.07,7-.34,11.83,4.49a201,201,0,0,1-47.91,32.81,177.85,177.85,0,0,1-28,10.84C206.87,3133.85,204.24,3133.81,202.14,3132.94Zm22.84,26.7c-7.51-4.85-16.46-9.2-4.95-14.09,12.38-5.25,24.64-10.83,36.66-16.87,7-3.54,13.19-8.6,20.31-11.89,11.54-5.33,21.42-15.6,34.59-15.4.57,0-8.51,14.1-8.3,13.82-6.54,9-12.24,19.67-19.42,27.91-8.53,9.8-25.35,19.14-40.48,20.39C236.62,3164.06,230.19,3163,225,3159.64Zm96.59,4.2a29,29,0,0,1-4.52,5.19c-3.51,3.06-7.24,4-13.52,4.86-4.86.69-36.86,6-35.67-4.36.5-4.31,16.59-11.22,20.24-13.94a100.14,100.14,0,0,0,17.45-16.41c10.59-12.83,16.24-28.4,26.22-41.48l9.38.14c5.7,11.64-1,27.37-5.22,38.43A120.12,120.12,0,0,1,321.57,3163.84ZM369,3132.93c-3.22,16.06-10.92,30.24-18,44.81a29.06,29.06,0,0,1-17.48-.42c1.75.57,19-44.9,19.67-49s7.11-37.17,14.35-23.83C372,3112.74,370.74,3124.21,369,3132.93Zm19.65,42.12c-4.08,3.89-7.87,3.71-12.34,3.12-.32-1.66-1.27-3.58-.91-5.22a376.45,376.45,0,0,0,8-55.95c.36-5.43.62-10.61,6.21-13.06,6-2.63,8.87-.61,10.48,4.75C406.12,3128.8,393.49,3156,388.64,3175.05Zm45.42,3.5c-8.85,2.91-17.74,2.54-27.63,1.79.63-2.13,9.05-39.58,10.1-49.83.8-7.9.15-15.93,3-24.05,4.52-1.77,9.51-1.62,14.44-1.35,8.52.47,6,8.27,7.36,20.47C443,3140,444,3167.23,434.06,3178.55Zm46.24-8.4c-.4,1.66-3.63,8.49-5.89,8.61-6.2.14-11.74,1.94-17.75.16.66-17.65,2.88-34.76,1-52.33-.49-4.69-2.73-11.38,1.11-15.25,6.68-6.71,19.23-1.87,22.39,5.53C488.39,3133.71,484.48,3153.13,480.3,3170.15Zm37-27.26a171.2,171.2,0,0,1-4.54,24.2c-.94,3.79-2.75,8.19-6.6,8.82-3.35.54-11.46,3.21-10.56-3.1,2.48-17.49,5.15-32.6,2.2-50.09-1.13-6.69-3.3-9.7,3.05-12.44,3.8-1.65,9.3-2.21,12.21,1.25a15.76,15.76,0,0,1,2.85,6.52A73.62,73.62,0,0,1,517.31,3142.89Zm25.53,31.85c-4.86.3-10.12,1.88-15.39-2.46,6.38-9.81,7.18-31.23,6.21-42.48-.34-3.85-3.34-10.61-2.52-14.18,1.13-4.91,15-8.65,16.73-2.77C555.15,3137.26,549.12,3167.19,542.84,3174.74Zm40.6-1.83c-1.18,3.8-12.85,7.86-19.9,3.93,6.15-20.94,6.56-42.12,3.21-63.2C578.72,3102.22,598.35,3124.9,583.44,3172.91Zm39.38-8c0,.57-.09,1.15-.17,1.72a7.4,7.4,0,0,1-.83,2.6c-4.59,7.88-15.83,4.93-17.42-2.56-2-9.4.84-19.69,0-29.28-.46-5.24-4.11-13.71-2.22-18.76,2-5.41,21.65-11.09,21.52-2.78C623.45,3132.37,624.14,3148.24,622.82,3164.92Zm43.63,6.3c-.1.39-.21.79-.34,1.18a6.83,6.83,0,0,1-1.31,2.45,8.2,8.2,0,0,1-3.73,2.05,42.7,42.7,0,0,1-20.14,1.4c-8-1.37-1.3-38.74-.16-47.75.32-2.52,1.1-14.64,2.86-15.69,4-2.41,8.18-2.62,12.4-2.41,7.63.4,15.32-.83,15.73,6.8A167.34,167.34,0,0,1,666.45,3171.22Zm32.56,2.32c-8,.49-15.16,1.73-14.51-7.38.45-6.31,2.24-11.86,2.4-18.47.21-8.62-.22-17.26.52-25.87.52-6.18,6.89-12.13,13.26-10.31,7.77,2.22,7.55,10.8,8,17.16C709.81,3145.09,704.65,3158.5,699,3173.54Zm41.65-1.85c-5.74,1-11.34-2-16.61-2.16,1.26,0,1.35-36.12,1.1-39.14-.35-4.28-3.16-11.15-1.54-15.3,2-5.18,23.36-7.64,24.34-3.59C753,3132.49,753.43,3152.52,740.66,3171.69Zm53.76-36.56c-1.71,10.74-1.82,21.77-5.88,33.1l-22.45,2.66c.95-10.06,1.47-18.82,2.7-27.48,2.13-15.06-3.51-22.17.27-33.32l18,.27A29.7,29.7,0,0,1,794.42,3135.13Zm38.19,24.19c-2.12,5.7-5.67,7.77-9.91,8.34-3.86.51-8.27-.21-12.7-.6.93.08-1.72-32.36-2.07-36.4-.69-8-1.25-20.85,9.72-21.52,4.64-.27,15.35,1,16.57,6.43C837.47,3130.16,837.87,3145.17,832.61,3159.32Zm33.41,9.22c-5.81,1.79-12.06,1.38-19.32.19,5.73-9.3,5.94-19.43,8-29.07,1.83-8.47-5.17-22.54-1.52-29,5.71-1.87,11.2-3.57,17.41-1.52C881.17,3123.33,869.59,3156.12,866,3168.54Zm52.78-18.25c-.31,1.39-.69,2.73-1.11,4-2.21,6.59-5.41,12.58-12,14.22-1.77.45-17.36,1.84-17.4-.66-.15-9.91,5.16-19,4.58-29.12-.57-9.9-.22-19.85-.27-29.83,5.38-5,12-1.07,18.53-3.6C919.25,3116.54,922,3136,918.8,3150.29ZM953,3169.52c-5.55-.08-17.57,1.82-20.21-3.43-2.93-5.84,1.43-16,2.19-22.22a175.34,175.34,0,0,0,1.71-19.4c.06-6.8-2.27-11-3.55-17.18,5.49-1.78,27.82-6.51,28.89,3.23C963.46,3123.6,970.36,3144.08,953,3169.52Zm44.27-.3c-6.38.69-12.64,2.3-19.06.2,5-26.36,6.81-35.12,1.91-63.82l15.28-.54C1005.35,3125.11,999.88,3159.59,997.26,3169.22Zm35.82-34.22c-1.8,28.85,1.61,16.25-6,34l-8.75.64c2.11-39.26,2.53-22.54-1.33-62.45,2.86-3.25,6.73-2.84,11.25-2.84C1034.44,3114.33,1033.73,3124.68,1033.08,3135Zm32.83,24.62c-1.44,3-2.69,5.79-5.79,7.28-1,.51-9.59,1.24-9.64.34-.58-19.2-6.11-35.61-3.61-55.21.31-2.45.08-8.06,2-9.89.76-.72,11.38-2.75,11.89-2.16C1074,3115.56,1074.61,3141.78,1065.91,3159.62Zm33-1.49c-1.85,9.44-3.42,11.84-13.36,10.86-3.3-.32-.79-34.85-.88-37.52-.25-7.68-2.13-15.25-2.21-23-.08-8.14,8.75-13.5,13.24-4.17,3.92,8.15,3.41,18,3.06,26.78C1098.38,3140.19,1100.65,3149.17,1098.89,3158.13Zm42.89-21.5c0,1.08-.08,2.13-.17,3.16-.83,8.86-4.36,15.82-6.43,24.76-1.29,5.57-14.25,6-19.71,4.7-2.82-7.55,2.48-14.16,1.82-21.39,0,0,.7-16.67-1.91-44.85,8.83-3,16.76-5,21.55,4.8C1141.23,3116.61,1141.92,3127,1141.78,3136.63Zm31.9,22.13c-2,8.65-4.45,10.25-16.45,10.25-2.33-30.57,7.53-24.92-1.5-65.11,5.4-1.42,5.41-1.48,11.29-.19C1174.19,3113.91,1175.93,3149.13,1173.68,3158.76ZM1203,3163c-1.78,4.94-2.52,5.08-10.21,4.58-.36-1.31-1.4-2.93-1-4.1,2.41-7.44-1-48.92-1.93-56.38-1-7.62,9.65-4.37,22-3.44C1218.07,3121.34,1209.38,3145.38,1203,3163Zm43.63-2a27.34,27.34,0,0,1-1.76,4.51c-1.21,2.11-2.77,2.36-7.12,2.49-3.14.1-6.9.29-10-.35-10.39-2.12-3.77-10.78-1.74-18.53,6.34-24.2,5.2-29.22,6.48-44.32,4.37-3.54,9.25-3.08,14.85-1.94,1.92.4,5.29,22.68,5.55,25.67C1253.82,3138.82,1249.85,3151.34,1246.65,3161Zm47.89-26.13a41.81,41.81,0,0,1-3,13.87c-1.46,3.42-7.31,20-12.19,19.18l-18.14-3.08c1.38-11,6.52-20.25,7.26-30.65s-.9-20.44-1.29-30.88c7.67-3.6,15.12-1.45,23-1,1.44.08,3.53,16.41,3.79,18.55A79.37,79.37,0,0,1,1294.54,3134.86Zm32.87,31.29c-3.68,3.23-8.06,1.23-12.14,1.35-3.75.1-7.69.53-11.72-2.43,1.91-10,4-20.12,5.72-30.27s-1.12-20.34.73-30.89c7.08-1.07,14.22-1.54,21.87.5C1338.73,3127.45,1332.26,3145.81,1327.41,3166.15Zm35.24-10.12c-4.68,10.15-.32,12.52-14.81,10.08,1.38-22.92,2.6,4,3.61-63.56,6.4-.27,11-1.29,12.65,5.19C1368.25,3124,1370,3140.13,1362.65,3156Zm31.27,9.8c-5.16,2.61-10,2.3-15.56,1.09,6.66-16.68,7.29-13.66,3.07-64.27l17.92.26C1411.77,3121.54,1401.21,3143.54,1393.92,3165.83Zm46.16-24.48a113.17,113.17,0,0,1-5.29,17.11c-3.62,9.28-12.34,7.13-20.77,5.25,4.17.93,7.27-54.9,9.08-59.13.39-.92,13.54.2,15.25.17,1.45,6.68,3.37,11.85,3.52,19A75.17,75.17,0,0,1,1440.08,3141.35Zm32.07,23.82a28.89,28.89,0,0,1-17.1-.06c-1.26-.37,8.49-48.74,1.35-56.58-3.24-3.57,22.07-3.77,22-3.77C1483.44,3129.25,1475,3153.36,1472.15,3165.17Zm45.58-20.81c-2.34,9.19-5.07,16.72-6.88,18.64-4.19,4.45-15.18,4-21.3,1.91,11.13-21,6.66-49.76,7.19-62.33,7.1-.31,13.72-2.66,20.64-1.5C1525.36,3102.44,1522.28,3126.52,1517.73,3144.36Zm32.46,22.4c-8.51,2.85-15.84-1-24.6.2,5-13.2,13.58-21.34,12.09-66.2,11.82-.83,11.83-.84,15.64,8.62C1563.37,3134.37,1553.33,3157.15,1550.19,3166.76Zm45.52-40.34c-4.41,21.92.72,27.35-10.53,41.24-4,.88-7.74,1.26-11.9-1.66,1.72-20.34,4.16-41.15-.55-62.5,4-1.86,16.86-1.17,21.64-1.09C1596.52,3110.52,1597.35,3118.27,1595.71,3126.42Zm31.94,42.52c-4.87,2.08-10.9-.2-17.49-.1-1.62-11-1-3.57,3.61-67a35.79,35.79,0,0,1,19-.78C1643.38,3133,1631.19,3159.32,1627.65,3168.94Zm44.54-33.35c.12,4.2-3.17,37.65-9,36.85l-13.77-1.88c-.61-1.52-1.24-2.29-1.09-2.83,2.69-9.78,4-20.16,5.18-30.2.66-5.57,1.53-11.44,1.18-17.06-.31-4.9-2.65-12,.84-16.41,1.67-2.1,9.84-4.38,12-2C1675.4,3110.49,1671.88,3125.3,1672.19,3135.59Zm39.73,38.76c-9.17,1.05-17.51,1.82-25.68-.24-1.17-3.24.41-20.17,1.49-23.81,6.87-23-1.33-41-.5-50.68,7.92-1.73,15.84-1.29,24.43.89,2.8.71,5.11,14.29,5.62,16.59C1721.67,3136.64,1718.18,3155.75,1711.92,3174.35Zm43.84,1.45c-6.5,4.15-13.07.31-20.07-.52a54.53,54.53,0,0,1-.67-21.53c3.9-25.13.68-35.6-1.63-53.18l18.23-1.1C1769.49,3144.23,1758.23,3159.87,1755.76,3175.8Zm39.26,3.49c-33.61-3-9.07-13.28-17.53-55-2.27-11.22-5.77-17.49,2.07-23.69l15.11.22c.07,0,4.5,32.34,5.18,36.72.22,1.39.65,7.76.69,15.12C1800.62,3164.81,1799.66,3179.7,1795,3179.29Zm-119.75-97.36c-17.63.12-35.35,1-53.07,1.73-28.62,1.2-57.27,2.08-85.67-1.08-2.76-.31-66.89,4.17-72.5,4.36,0,0-79.88-3.41-243-.25-9.66.18-127.08-7.9-168.06-3-6.59.8-13.24,1.17-19.87,1.59-41.81,2.65-83.72,3.94-125.59,5.16q-94.35,2.76-188.75,3.28c-66.88.35-133.77-.1-200.61-2.39-29.59-1-59.18-2.39-88.71-4.5-37.86-2.71-77.82-.86-114.76-10.07-20.85-5.19-38.52-17.62-39.63-40.73-.46-9.67-8-39.12-4.59-93,3.41-53.51,1.23-109.57-1.46-163.34-2-40.65,2.16-81.38-.05-121.63-1-18.19-2.23-36.37-2.46-54.58-.17-13.66-2.56-29.46.06-42.83,5.35-27.31,1.88-52.58-1.35-80.14-3.27-27.8.44-57.4-.46-85.44-.68-21.29-2.41-42.54-3.14-63.83-.29-8.46,1.07-17,1-25.63-.49-38.25-3.4-76.43-3.81-114.69-.3-27.9,1.93-55.82.54-83.81a627.6,627.6,0,0,1-2-63.93c.3-16.44-2-32.74-1.6-49.12.39-15.75.44-31.81.49-47.65.06-18.39-.94-36.76-1.5-55.14-.79-26.28,0-52.57,0-78.86q-.06-86.61.59-173.22.57-90.29,1.54-180.55.39-36.21.89-72.41c.09-6.31.14-12.2-1.11-18.41-2-9.94-1-19.72-.73-29.87.68-24.08.67-48.16.8-72.24.35-67.93,4.08-135.41,2.14-203.34q-2.38-83.07-.83-166.24c.51-26.44,1.2-52.9,3-79.29,3.05-45.63,1.78-91.2,2.22-137.11.44-45,1.11-88.13,3.26-133.3,1.08-22.54-5.65-44.18-6.08-66.83q-.32-16.71-.47-33.43c-.15-19.69-3.09-43.28,2-62.54-1.77-15.53,1-26.18-1.34-55.22-.78-9.67-2.38-5-1.91-29.56.35-18.87,1.41-35.51,1.41-35.51-2.48-7.11,1.56-12.51,4.3-18.42,6.94-15,24.23-13.65,38.05-14,49.34-1.27,100.71-3.55,150.76,0,81.72,5.75,125.54-3.45,285.19,5.71,182,10.45,106-4.54,275.56,3.27,56.28,2.59,69.07-9.22,214.25-1.78,41.93,2.14,84-3.79,126.07-3.74,137.48.14,334.53,9.5,397.86,2.7,45.68-4.91,91.73-1.76,137.43,1.1,31.62,2,66.66-4,96.89,8.51,24.67,10.2,34.11,34.43,36.38,59.41,1.15,12.66.77,25.41.29,38.1q-1.58,42.38-1.5,84.81c.24,79.61-8.75,158.86-10.5,238.41-1.69,76.75,3.3,153,1.74,229.93-.48,23.54,0,47.1.88,70.63.79,21.69,3.23,43.56.38,64.9-4.56,34.16,4.88,69.41,2.16,103.74-1.55,19.64-.46,39.81-.34,59.49.18,28.61.34,57.32,2.1,85.89,1,16.27-1.47,32.65-.29,48.82,1.11,15.11.82,30.85.93,46.13.26,36.91,2.91,74.73,2.89,112,0,34.61-.3,68.78.69,103.46a604.82,604.82,0,0,1-2.34,70.46c-1.23,13.93-.11,28.39-.14,42.42-.08,34.85-.68,69.69-1.1,104.53-.34,28.94-1,58,0,86.88.44,11.79,5.44,64.13,5.44,64.13,14.59,404.45,7.26,283.73,6,440.46-.37,47.82-3.39,96.56-3.57,144.76,0,12.47.08,24.93.5,37.39.34,10-1.8,19.18-1.61,29.27.46,24.86,1.39,49.75.31,74.61-3.75,89,0,177.49,2,266.3.8,35.71-1.86,71.83-13.58,105.82-3.42,9.92-12,13.75-21.78,16.91-23.34,7.49-49.26,7.89-73.52,8.46-36.61.86-73.25-.26-109.85-1.13C1764.49,3082.61,1719.89,3081.62,1675.27,3081.93Zm359.13-1863.2c5.38-1.78,13-.23,18.59-.24,2.9,0,45.87,1.82,45.68-1.35.58,9.69,1,18.75-1.59,29.38-.88,3.62-22,4.48-25.74,4.88-10.31,1.1-20.66,1-30.37-3.12-6.26-2.67-6.85-5.39-6.82-12.66C2034.16,1234.34,2034.93,1218.55,2034.4,1218.73Zm2.52,167.65s30.4,5,44.51,3.75c4.87-.41,9.45-3.59,15.06-1.5,2.43,5.75,1.2,11.8.92,18.34-17.24,10.8-49.44,6.81-59.79-2.36-2.41-2.14-.59-4.92-.34-7.53C2037.61,1393.78,2037.1,1390.39,2036.92,1386.38Zm11.3-40.8c15.18,1.8,25.67,6,40.85-1.15,2.76-1.3,4.28-.57,6.65-.11,1.54,11.1,1.57,5,.53,22.6,0,.6-16.54,4.32-18.31,4.73-6.23,1.42-12.23,1-18.64.86-4.88-.13-9.94-.3-14.29-2.5C2034.79,1364.83,2034.52,1343.94,2048.22,1345.58Zm39.07-17.15c-11.7,2.32-23.81,3.85-35.52,1.56a19.27,19.27,0,0,1-8-3.07c-4.65-3.46-6.12-11.67-4.29-17a3.66,3.66,0,0,1,.91-1.56c4.45-4.15,17.11,0,22.15.88a102.28,102.28,0,0,0,34.78-.87C2098.34,1318.72,2100.09,1325.88,2087.29,1328.43Zm9.84-42.75c-1.13,8-51,2.76-58.92-.33-3-1.17-3-7.31-2.79-9.83.29-2.94.87-4.68,2-5.75s3.33-1.55,6.47-1.8c17.83-1.42,34.27,3.14,52.09-.59C2099.29,1273.76,2098,1279.77,2097.13,1285.68Zm-61.88,158.14c.34-4.8,1-10.59,3.45-13.87,2.13-2.79,5.62-3.74,11.49-.7,16.16,8.38,34.45-2.74,49.12.5,2.39.53,1.92,13,1.75,14.59a13.21,13.21,0,0,1-2.53,7.18c-2.91,3.5-11.22,2.53-15.4,2.54-14,0-31.53-1.28-44.82-5.8a4.52,4.52,0,0,1-2.78-1.9A4.64,4.64,0,0,1,2035.25,1443.82Zm58.24,47.14c-15.47,3.28-31.81,4-46.13-3.76-5.46-3-9.36-5.44-9.87-11.75-1.19-14.67,13.37-9.29,22.43-7.7,12.28,2.16,25.49.56,37.79-.59C2102.1,1474.32,2103.41,1488.85,2093.49,1491Zm-55.35,15.6c4.78-8.62,23.15-3.66,30.63-2.39,9.47,1.62,25.4-2.85,31.26,7.25,2.42,4.16,3,12.82,2.24,17.43-1.33,7.88-9.13,8.31-16.64,8.63-11.22.48-36.4,5.15-45.68-3.63C2034.4,1528.6,2034.67,1512.81,2038.14,1506.56Zm63.58,138.61c-13.1,12.89-43.38,9.23-59.26,5.89-5.74-1.21-3.64-2.92-3.56-6.47s1.19-8.66,1.41-12.7c.18-3.44.67-5.54,1.71-6.74,1.56-1.81,4.36-1.58,9.23-.82,16.93,2.65,32.36.45,48.61-4.85C2106.63,1628,2102.65,1636.63,2101.72,1645.17Zm-19.31-74.78c-13.79,1.59-23.88,1.22-36.69-3.91-12-4.81-5.46-13.16,3.75-14.76,11.2-2,22.6,1.23,33.85,1.16,6.53,0,18.38-3,18.9,6.41C2102.8,1569.66,2090,1569.52,2082.41,1570.39Zm-44.26,16.5a8.9,8.9,0,0,1,.78-.71c5.21-4.08,15.92-1.17,22-.45,10.92,1.28,21.1.74,32,.5,4.9-.1,4.33-1.15,7,3.52,2.11,3.71,2.88,9.08,0,12.28-5.49,6.06-24,6.22-31.48,6.43-10,.29-21.87-.71-29.51-8C2035.18,1596.91,2034.5,1590.58,2038.15,1586.89Zm58.93,728.6c-3.08,4.2-12.41,5.06-17.35,6-8.06,1.47-16.39-.61-24.51-.1a5,5,0,0,1-2.15-.17,4.68,4.68,0,0,1-2.28-2.76c-2.05-4.92-3.5-14.89,1-19.07a14.6,14.6,0,0,1,1.63-1.31c10.51-7.29,29.35-.36,40.85-1.75C2098.27,2295.79,2098.79,2313.17,2097.08,2315.49Zm0,38.38c-.4,1.29-13.87,4.35-15.8,4.84-7,1.82-14.57,1.28-21.64-.32-2.71-.61-5.49-1.47-7.52-3.38-4.56-4.28-4.95-10.2-1.84-14.09a10.51,10.51,0,0,1,5.16-3.43c10.39-3.24,23.38,0,34.13-.58C2097.21,2336.49,2099.11,2347.5,2097.1,2353.87Zm-.58-81.4c-7.36,9.54-28.94,7.36-39.6,7.33-2.49,0-5.33-.23-6.82-2.21-1.06-1.42-1.1-3.33-1.1-5.1,0-6.21.32-10.72,2-13.87,2.07-3.95,6.26-5.73,14.61-6,9.62-.33,19.27,2.23,28.83,1.68C2103.11,2253.78,2099.49,2268.61,2096.52,2272.47Zm-39-89.67c3.33-.55,40.58.94,40.41-.18.84,5.52.6,11.7-4.63,15.08-3,1.92-6.62,2.53-10.16,2.87-7.74.74-17.56,1.21-25.16-.18a9.67,9.67,0,0,1-4.64-2,9.87,9.87,0,0,1-2.75-3.65A8.74,8.74,0,0,1,2057.5,2182.8Zm35.06,53.31a64.91,64.91,0,0,1-30.93,2.11,16,16,0,0,1-5.43-1.73c-3-1.75-7.56-13.76-3.7-16.32,1.16-.78,1.76-1.51,2.41-1.55,38.37-2.42,19.94-.71,40.61-3.06,3.83,2.72,3.89,6.33,4.26,9.71C2100.51,2232,2099,2234.11,2092.56,2236.11ZM2052,2120.89c-3.25-2.66-1.46-9-.93-13.49,38.81,1.52,28.56,1.9,50.21-1.9.44,10.59.7,6.16-.73,16.63C2090.82,2126.4,2072.12,2137.37,2052,2120.89Zm48-35.79a7.4,7.4,0,0,1-2,2.9,16.88,16.88,0,0,1-6.86,3c-12.13,3-38.8,6.83-42.41-10.26-2-9.69-1.52-17.32,9.64-16.35,14.07,1.23,28.43,1.78,42.41.24C2102.19,2070.92,2102.53,2079,2100,2085.1Zm-52.78,405.68c8.64,5.31,18.94,6.89,28.9,7.51,2.38.15,28.95,1.43,29-2.2-.14,9.69,3.64,24.4-8.41,27.57-12.62,3.31-29.15-.38-41.14-4.64-6.19-2.19-9.31-2.41-10.07-8.53C2045.1,2507.54,2049.57,2492.35,2047.19,2490.78Zm57.24,67.14c-12.83,5.1-26,4.28-39.5,3.39-8.08-.54-16.43.41-17.68-9.74-.65-5.35-.09-10.86-.87-16.18.36,2,22.76,2.25,24.87,2.37,4.84.29,9.69.41,14.52.7,4.59.28,14.65-1.82,18,1.57C2108.16,2544.51,2105.66,2552.93,2104.43,2557.92Zm.7,19.84c-.16,2.86-.16,5.76-.2,8.65-.34.3-.8,1-1.43,1.22a143.91,143.91,0,0,1-19.8,6.23c-8.09,1.78-16.32-.77-24.58-2.19-5.59-1-15.1-4.5-11.14-11.77,2.39-4.39,8.15-4.19,13.27-3.45,2.26.33,4.39.76,6,1C2079.79,2578.84,2093.27,2575.16,2105.13,2577.76Zm-58.77,25.45c-.28,3.24,25.62,5.67,28.38,5.69,1.72,0,3.45,0,5.19-.11,7.5-.33,15.13-1.34,22.52-2.05,4.33,7.06,2.35,14.09,1.69,21.1-.41,4.44-22.41,4.18-25.34,4-9.76-.59-19.66-2.22-28.63-6.29a11,11,0,0,1-3.51-2.23C2042.35,2618.8,2045.9,2608.64,2046.36,2603.21Zm57.78,62.82c-9.7,3-25.8,14.72-55.42-3.06-.55-6.66-4.69-13.52.34-20.94,18.73,14.18,43.92,4.78,55.46,5C2105.25,2653.43,2106,2659.4,2104.14,2666Zm-56.69-783.35c-8.71-3.3-9.13-15.44-8.7-23.24-.1,1.82,32.23,1,34.75.94,5.6-.12,12.07-1.29,17.63-.55,7.38,1,9.08,6.45,8.81,13.07a12.7,12.7,0,0,1-1.12,4.9C2092.1,1892.37,2057.59,1886.53,2047.45,1882.68Zm49,38.61c-17.49,8.39-28.39,7.86-54.2-2.57-1.31-7.23-2.13-13.6-1.46-21,7.72.15,15.85,3.17,23.62,4.21,2.54.33,32.58,2.92,32.23-.09C2097.44,1908.92,2096.55,1915.23,2096.45,1921.29Zm-51.88,19.49c4.71-2.86,12.94-2.31,17.41-2,2.52.2,33.47,3.74,33.28,3.27,2.67,6.52,2.1,12.85,1.68,18.88-.68,9.69-42.8,2.72-47.47,2.23-2.18-.22-4.46-.51-6.24-1.78C2037.65,1957.46,2039,1944.18,2044.57,1940.78Zm51.09,41.75c-.9,6.51-1.66,12-2.43,17.66-13,8.29-61.93,12.92-46.84-19.65C2064,1983,2051.59,1988.82,2095.66,1982.53ZM2049.44,2022c3.62-1.06,45.94.7,45.83-1,.44,6.83,3.1,13,1.07,20.53-1.11,4.14-22.87,7.64-27.26,7.7-7.46.11-17.95-1-23.21-6.71C2039.7,2035.86,2039.68,2024.85,2049.44,2022Zm50.66-302.67a8.93,8.93,0,0,1-1.34,4.05c-1.69,2.31-4.94,2.63-7.8,2.74l-27.81,1.12c-6.52.26-13.17.51-19.43-1.3a9.16,9.16,0,0,1-5.47-4.5c-3.15-5.58-2.31-14.53,1.29-19,2.54-3.18,19.7,1.59,23.08,1.94,7.58.8,36.1-3.71,38.35,2.9C2102,1710.31,2100.56,1716.19,2100.1,1719.34Zm-1,23.16c1,9.07.88,17.69-8.91,20.73-6.47,2-14,2.49-21.59,2.28-6.31-.18-12.59-.86-18.15-1.54-6.43-.78-18.13-12.67-9.43-18.2,2-1.26,4.47-1.34,6.83-1.37C2052.22,1744.35,2099.84,1749.17,2099.09,1742.5Zm-61.05,39c2-2.65,5.49-3.55,9.56-3.58,7.12-.05,15.87,2.56,20.65,3.1,10.23,1.15,19.81-.28,30-1.39,3,4.85.09,10.59,1.45,17s-20.74,9-24.08,9.17c-10.6.58-25.3,1.23-33.92-6.22C2037.15,1795.65,2034.13,1786.75,2038,1781.47Zm4,36.41c5.17-1.48,15.45,3.6,20.84,4.3,12.1,1.6,23.9-1.17,35.83-.12.35,6.28.67,12,1,17.61-8.54,5-17.39,6.6-26.64,6.52-9.42-.08-26.66.92-33-8.14C2036.44,1832.88,2034.87,1819.94,2042.06,1817.88Zm15.2,907.58c5.34-9.45,21.8-1.93,31.78-3.27a82.64,82.64,0,0,1,15-.81c2.36,6.51,1.81,12.57,1.1,19-10.64,7.06-53.87,12.38-49.26-11.13A12.85,12.85,0,0,1,2057.26,2725.46Zm47.35-22.69c-19.76,1.66-36.56,4.06-55.83-3a4.18,4.18,0,0,1-3.48-4.46c-1.27-15.23,11.91-8,22.21-6.44,12.87,2,26.27,2.36,38.77-1.83.53,13.16.77,8.95-.38,14.85C2105.24,2702.35,2104.94,2702.74,2104.61,2702.77Zm.07-224.72c-.54,4.15-44.81.42-49.42-.2-3.74-.51-8.15-1.52-9.5-5a10.54,10.54,0,0,1-.18-5.18c.67-5.15.52-9,4.64-12.85a5.5,5.5,0,0,1,1.9-1.18c6.55-2.35,21.33,2.18,28.42,2.83,8.86.81,17.73,1.58,26.58,2.5C2106.28,2465.49,2105.52,2471.43,2104.68,2478.05Zm-59.17-317.28c-.48-7.63-2.86-26.52,10.43-19.84,9.15,4.6,14,6.41,24.07,5.65,1.49-.11,18-1.33,17.4-3.49,1.72,6.13,2.94,11.61,1.76,17.4-4.54,13-39,6.74-48.37,6.32a6.42,6.42,0,0,1-3.19-.71C2045.93,2165,2045.64,2162.75,2045.51,2160.77Zm6.22,212.67c2.51-1.19,5.43-1,8.2-.81,3.12.22,42.1,1.81,42.15-1.14.52,5.74,3.94,17.37,2.14,22.73-2.41,7.2-18.06,7.82-24.3,8.22a64.85,64.85,0,0,1-27.73-4.77C2046,2395.18,2045.11,2376.57,2051.73,2373.44Zm-5.54-688.77c-6.11-2.55-14.46-15.42-5.14-18.46,4.14-1.35,16.73,3,21.56,3.52a170.86,170.86,0,0,0,20.81.94c3.68-.09,16.16-4.44,19-2.5,3.51,2.44,3.21,5.41,2.52,8.51C2101.28,1693.1,2061.74,1691.18,2046.19,1684.67Zm46.08-575.49c-34.22,5.74-46.18-.35-55.8-2.7-4-19.58,43.15,3.15,60.77-6.77,3.73-2.1,7-.33,7.38,2.39C2105.4,1107.65,2098.4,1108.15,2092.27,1109.18Zm9.15,21.65c3.34,28.71-37.18,27.14-65.39,18-.19-1.92-3-18.59-1.77-18.59C2056.6,1130.19,2079.09,1129.87,2101.42,1130.83Zm-64.62,41a6.54,6.54,0,0,1,3.76-2.28c5.35-1.14,14.61,2.34,20.37,2.57,8.51.33,25.05,1.39,32.74-3.12,2.37-1.4,5.51.49,6.29,3.3,3.7,13.37-.38,26.84-14.52,29.63-14,2.75-28.37,1.1-42.45-.94C2033.27,1199.58,2030.91,1179,2036.8,1171.83Zm64.27,1590.51c7.08-2.23,6.33,4.66,6.28,12.28a9.14,9.14,0,0,1-.9,2.45c-7.52,3.13-24.66.67-32.66-1.09-14.45-3.19-27.27-10.44-6.42-15.31C2078.28,2758.13,2089.83,2765.89,2101.07,2762.34Zm-46.61-324.05c-6.8-3.46-11.65-10.7-6.57-18.11,4.31-6.3,13.38-2.28,20.22-.9,13.6,2.75,24.54,1.09,37.72-2.18,2.7,8,2,15.55,2.05,23.46C2093.23,2446.07,2068.39,2445.39,2054.46,2438.29Zm52.84-1365.41c-8.82,11.08-35.07,15.12-67.89,6-4.19-1.16-6-3.88-6.14-8.49-.28-6.71-1.33-13,6.41-15.42,8.63-2.64,18.06-.77,26.88-1l1.6,0c12.52-.29,25.63.45,37.9-1.54C2108.93,1059.66,2106.49,1066.54,2107.3,1072.88ZM1833,3129c1,42.68-.5,40.57-2,50.21l-13.47-.2c.47,0-2.39-56.93-2.88-60.91-.3-2.46-3.35-14.45,1.14-16.09,5.63-2,11.53,0,17.94.17C1834.9,3117.09,1832.49,3105.87,1833,3129Zm42,53.21c-8.26-2.18-15.19.23-21.46-1.79-.73-1.23-1.43-1.86-1.43-2.49-.52-69.07-7.82-79.17,13.53-75.3C1889.46,3139.05,1873.89,3161,1875,3182.16Zm53.42,1a63.09,63.09,0,0,1-28.34.14c-4-11.25-3.86-21.14-2.49-31.13,1.26-9.2-5.55-40.23-6.56-48.38l24.64.37c16,.23,14.72,55.15,15.89,64.15C1932.19,3172.91,1929.66,3177.91,1928.46,3183.16Zm42.22-4.48-19.74,3.55a381,381,0,0,0-14.8-79c16.45-2.83,18.24-3,22.1,6.7C1970.15,3139.89,1977.68,3157.92,1970.68,3178.68Zm24.6-3.43c-9-33.28,4.61-12.22-20.48-72.92-2.43-5.87,5.23-8.12,7.16-4.13,5.41,11.2,3.27.18,21.25,73.21Zm27.76-12.38a6,6,0,0,1-2.19-.88c-6.9-4.58-7.42-23.21-9.65-30.5-2.57-8.41-6-18.8-5-27.73,2.14,3.39,40.81,47.23,42.17,46.17C2043.46,3153.77,2030.61,3164.34,2023,3162.87Zm-3-68.72c-.88-1.13-1.3-2.62-2.44-5,2.37.16,3.87-.14,5,.4,4.44,2.22,9,4.32,13,7.17,5,3.51,30.68,24.63,31.93,30.72C2054.07,3144,2036.62,3115.61,2020,3094.15Zm56.78,10.59c-7.25,0-38.52-25.78-44.19-30.36-1.89-1.53-3.55-4.82-1.7-7,2.57-3.07,7.88.15,10.77,1.08a143,143,0,0,0,24.29,5.94c1.81.25,20.62,2.26,21.07,1C2083.21,3086.36,2080,3095.54,2076.8,3104.74Zm8.44-52.55c-8.78,9.44-24.5,3.15-39.19-1.05a16.51,16.51,0,0,1-6.41-2.92c-6.66-5.76-3.06-19.29,5.82-18.87,14.32.68,31.5,13.11,45.51,10C2089.8,3045.27,2087.82,3049.42,2085.24,3052.19Zm8.5-36.49c-.71,3.46-3.73,4.58-7,4.85-19,1.6-32.93-7.49-44.36-13.09.83-5.45,1.42-11,2.6-16.4,12.89,1.15,26.65,4.13,39.44,1.14,5.67-1.32,7.34-3.81,10.23,2.29S2095,3009.5,2093.74,3015.7Zm6-48.83c-.09,2.78-9.34,7.67-11.65,8.34-3.94,1.13-9.32.71-13.4.71-9.85,0-20.22-1.2-28.95-6.1,0,0,.28-19.2.28-19.26.06-4.16,17.9,1.24,20,1.76,2.81.7,34.58,1.34,34-.45C2101.71,2957.06,2099.89,2961.9,2099.73,2966.87Zm3.27-39.11c-.35,6.36-23.33,7.26-27.39,7a91.2,91.2,0,0,1-23.8-5.45c-6.21-2.24-9.29-5.65-9.62-12.83-.26-5.73,2.23-10.77,8.77-8.51,17,5.89,36.94,3.53,50.86,3.73C2104.69,2916.84,2103.3,2922.15,2103,2927.76Zm.55-38.54c-27.15,9.26-44.69,2.82-63.22-7.14-4.14-6.11-4.07-11.85-.74-15,2.1-2,5.51-3,10-2.44C2102.37,2871.33,2105.54,2867.69,2103.55,2889.22Zm2.24-37.59c-15.58,1.78-37.39-.19-52.22-5.32-8.43-2.92-17.62-5.1-2.52-9.74,3.41-1,10.09.69,13.71.86,13.72.64,27.53.25,41.25-.43Zm2-31.16c-.31,3.09-35.54.61-38.72.42-12.76-.78-37.55-13-18.33-28.93,6.12-5,8.8-.09,16.41,2,2.9.8,38.7,3.17,38.92,4C2109.47,2811.64,2109.05,2805.68,2107.76,2820.47Zm.42-1791.77c-7.35,7.33-42.67,16.7-73.95,7.16-2.63-4.21-.47-11.72-.64-16.54s-.72-10.53,5.42-11.94c4.27-1,10.29-.76,14.72-.61a48.58,48.58,0,0,1,7.3,1.61c8.6,2.06,19.36,1.75,28,.06,1.81-.36,21.17-5.27,20.92-2C2109.27,1014.82,2108.7,1022,2108.18,1028.7Zm2.26-43.35c-1.15.62-1.8,1.27-2.48,1.31-25.81,1.4-35.48,13.76-63.09,3.24-13.27-5.06-11.89-7.55-11.41-24.92.16-5.54,3-7.53,8.41-5.89,36,10.95,52.9,4.64,71.12,4.91C2113.6,972.5,2112.85,979.21,2110.44,985.35Zm-4.59-38.57a126.78,126.78,0,0,1-16,1.51c-16.26.57-33.42-1.36-48.66-3.61-7-1-13.24-12.61-8.38-19.18,4.76-6.42,19.39-.74,25.36.74a82.83,82.83,0,0,0,30.84,1.57c1.67-.25,25.49-7.35,25.46-5.5C2114.36,932.09,2117.84,944.83,2105.85,946.78Z"/><path class="cls-1" d="M1220.89,1721.88c-31,5.66-67.26-9.28-88.62-29.39-71.65-67.43-31.69-196.59,42-216.55,8.89-2.41,60.38,3,40.6,15.45-47.54,30.07-88.61,118.79-18.1,186.78C1204.24,1685.39,1249,1716.75,1220.89,1721.88Zm-8.42-13.7c-36-24.28-62.64-48.45-67.44-93.53-6.42-60.37,35.52-127.81,58.7-128.61-61.16,2.1-93.84,51.81-94.37,108.47,0,5.53.82,11.08.6,16.59C1107.6,1669.34,1156.56,1710.24,1212.47,1708.18Z"/><path class="cls-1" d="M1021.28,1628.81c-41.44,44.72-30.06,22.13-47.61,7.34-16.91-14.25-13.64-19.38,1.35-34.25,8.56-8.49,23.7-25.08,34.94-10.76C1023.18,1608,1038.79,1609.91,1021.28,1628.81Zm-20.09-26.71c-5.6-1.15-7,4.86-10.6,7.47s-6.78,6.1-10.73,9.76c4.27,4.8,7.83,8.85,11.49,12.8.18.19,1.21-.39,1.85-.62,5.88-6.34,11.77-12.67,16.88-18.17Z"/><path class="cls-1" d="M1317.48,1634.59c-41.44,44.72-30.06,22.13-47.61,7.34-16.91-14.25-13.64-19.38,1.35-34.25,8.56-8.49,23.7-25.08,34.94-10.76C1319.38,1613.78,1335,1615.69,1317.48,1634.59Zm-20.09-26.71c-5.59-1.15-7,4.86-10.6,7.47s-6.78,6.1-10.73,9.76c4.27,4.8,7.83,8.85,11.49,12.8.18.19,1.21-.4,1.85-.62,5.88-6.34,11.77-12.67,16.88-18.17Z"/><path class="cls-1" d="M518.76,1553.4c73.77,13.24,78.27,127.87,4.07,145.87-37.85,9.18-90.37-9.23-100-50.62-9.09-38.94,12.05-75.17,47.63-91.39C488.92,1548.83,494.6,1549.06,518.76,1553.4Zm-10.45,11c-33.72-5.71-70.56,30-70.34,50.93,6.46-.09,122.38-1.56,124.58,4.52C555.59,1596.83,556.62,1572.54,508.31,1564.36Z"/><path class="cls-1" d="M1815.55,1568.42c73.78,13.24,78.28,127.87,4.07,145.87-37.85,9.18-90.36-9.23-100-50.62C1707.94,1613.7,1749.05,1556.49,1815.55,1568.42Zm-10.44,11c-33.72-5.71-70.57,30-70.35,50.93,6.47-.09,122.39-1.56,124.59,4.52C1852.38,1611.85,1853.42,1587.56,1805.11,1579.38Z"/><path class="cls-1" d="M753.15,1224.42c-105.48,32.55-126.75-162.79,9.13-147C832.66,1085.55,860,1191.44,753.15,1224.42Zm3-11c17.94-8.27,40-19.23,49.83-37.18,10.47-19.15,6.45-43.87-3.63-62.28-13-23.84-67.94-39.55-107.71-9.39,6.83-5.18,33.59-5.26,42.08-2.9C784.23,1114.89,798,1194.19,756.19,1213.47Z"/><path class="cls-1" d="M1656.18,1135.42c69.51,85.76-103.84,178.28-139.84,46.31C1497.48,1112.61,1586.22,1049.11,1656.18,1135.42Zm-11.3,1.25c-14.35-13.56-32.76-30-53.07-32.38-25.59-3-71.49,19.17-64.72,66,4.05,28,14.34,48.86,39.71,64.08-8.44-5.07-42-55.12,11.79-96.54C1595.23,1125,1627.48,1120.23,1644.88,1136.67Z"/><path class="cls-1" d="M1569.84,2026.55c71.73-83.9,194.15,69.79,70.9,129.13C1575.34,2187.16,1498.23,2110.3,1569.84,2026.55Zm3.28,10.88c-10.74,16.58-23.54,37.65-22.23,58.07,1.4,21.77,18,40.51,36.36,50.68,23.79,13.17,78.57-2.91,96-49.66-3,8-25.57,22.41-34,25C1602.14,2135.72,1548.09,2076.08,1573.12,2037.43Z"/><path class="cls-1" d="M665.77,2169.09c-2.42-2.61-3.22-6.42-5.59-9.09-12.41-13.95-13.43-29-11-44.35,10.86-69.12,120.17-97.48,153.1-1.94C825.62,2181.45,741.23,2250.63,665.77,2169.09Zm11.19-2c15.21,12.6,34.65,27.77,55.07,28.85,21.79,1.14,42.34-13.17,54.58-30.22,15.85-22.09,6.26-78.37-38.14-101.17,8.47,4.35,45.73,52.06-5.44,97.1C727.26,2175.53,695.4,2182.36,677,2167.09Z"/><path class="cls-1" d="M1130.21,2270.16c-63-4.31-64.92-88.47-17.34-108.29,30.25-12.6,74.87,1.51,85.86,34.32C1211.84,2235.34,1166.73,2272.66,1130.21,2270.16Z"/><path class="cls-1" d="M1106,979.81c59.84-39.85,120.8,62.58,61.4,100.13-28.16,17.8-72.52,2.75-89.35-24.47C1063.56,1032.08,1078.35,998.2,1106,979.81Zm72.06,44.1c-9.25-32.46-46.07-53.23-72.7-25.78C1031.48,1074.27,1201.35,1105.74,1178,1023.91Z"/></g></g></svg>