<svg xmlns="http://www.w3.org/2000/svg" viewBox="0 0 2264 3352"><defs><style>.cls-1{fill:#bc8e31;}</style></defs><g id="Layer_2" data-name="Layer 2"><g id="Ñëîé_1" data-name="Ñëîé 1"><rect width="2264" height="3352" rx="228"/><path class="cls-1" d="M2127,952.72c.07-10.38.11-20.76,0-31.14-.22-18.78-.31-37.67-.75-56.43-1.12-46.66-8.65-93.75-11.55-140.51-2.08-33.57-3.61-67.17-4.31-100.8-1.05-50.35-2.6-101,2.64-151.25,3.11-29.8-1.85-61.14-1.78-91.17.14-51.69-1.73-102.06-9.57-153.41-2.72-17.83-11.64-30.93-21.48-45.6-8-11.89-12.64-13.15-26-22.17-29.09-19.63-70.38-14.77-104.28-16.21-20.67-.88-41.32-2.38-62-2.31l-55.49.2-83.74.33-107.24.43-126,.53-140.06.6-149.36.64-154,.69-153.78.69-148.9.7-139.27.68q-62.46.3-124.92.63l-105.82.58q-41,.24-82,.5-26.73.18-53.45.41c-6.6.06-13.59-.49-20.16.29-37.8,4.53-75.77,16-92,53.68-9,21-11.37,44.64-12.48,67.25-1.72,35.28.13,70.74,2.24,106,1.68,28,4.42,55.85,5.81,83.83,1.32,26.75-2.22,53.36-1.6,80.31.72,31.78,4.55,63.3,5.67,95,.86,24.38,1.23,48.77,1.8,73.16.54,23.26,7.09,47.2,6,70.28-.54,10.86.12,21.78.37,32.74.65,28.66.49,57.36.14,86-.51,42.13-1.78,84.24-2.83,126.36-.52,20.92-1.08,41.93-1.75,62.79-1.52,47.47-1.47,95.85-2.18,143.72-.42,27.82-3.31,56-5.11,83.64-1.93,29.69,2.21,60.18,2.06,90-.11,23.15,7,39.69,7.47,60.32,0-.5-1.48,80.42-1.31,81,2.82,9.49.8,22.92,1.05,32.69q.9,36.4,1.55,72.83c.82,44.5,4.71,90.64,1.14,135.07-1.77,22-.13,44-1,66.06-1,24.57-2.2,50.11-3.15,75.06-.8,21.1-2,42.2-2.52,63.32-.32,12.93-.16,25.86.09,38.81.55,28.51,1.81,57,1.71,85.56q-.1,29.38-1.05,58.77c-.32,9.69-.46,19.45-1.27,29.1a1199,1199,0,0,0-4,136.53c1.21,39.84,1.06,79.76,1.88,119.44a311.24,311.24,0,0,0,2.33,32.14c2.93,23.47,1.92,47.19,2.31,70.78.23,14.3,1.22,28.36,2.18,42.72,2,29.46,5.17,61.12.45,90.47-.2,1.24-.41,2.48-.69,3.71-2.11,9.42-2.36,114-2.6,143,0-2.54.07,1.28.09,1.88.16,5,.14,10.1.21,15.15q.39,29.31.92,58.6c.93,49.87,1.91,99.82,5,149.61.69,11.12,1.42,22.28,2.82,33.35,2.9,23,10.4,47,26.45,64.33,12.41,13.4,29.82,19.76,47,24.6,32.74,9.25,68.6,12.91,102.59,11.53,26.07-1.06,52.17-.05,78.24.84,51.47,1.74,103.45-2.32,154.73-5.62,42.4-2.72,44.25.49,53.9.82,12.85.44,53.43-5.39,88.37-3.57,2.29.11,4.71,1,6.84.52,16-3.66,54.34-2.12,64-1.88,4.11-3.4,42.32.61,48.92-1.07a51,51,0,0,1,19.11-1.42c3.33.39,6.87-1.21,10.27-1,9.92.51,19.77,2.78,29.8,1.12,12,2.22,24.87,1.59,37,1.85,23.83.54,47.67.66,71.5.7,56,.08,112-.39,168-2.05,16.55-.49,33.12-1,49.64-2.14a124.71,124.71,0,0,1,24.45.82c18.63,2.23,37-2,55.63-1.13,16.6.77,33.1-.42,49.68-.89,21-.59,42.94.77,64.3.94,11.46.09,23-1.37,34.39-1.2,25.76.36,51.53.12,77.27,1.46,12,.62,23.26,2.19,35.1.82,38.74-4.5,77.48,7.09,116.14,5.93,34-1,68.38,1.46,102.16,5.33,15.15-1.35,30.38-.82,45.55.06,74.86,4.34,152.56,13.13,221.07-25.64,11-6.2,21.33-13.69,29.76-23.07,17.89-19.89,21.23-53.77,25-79,4.42-29.88,6.34-59.51,9.8-89.46,4-34.76,7.93-69.06,8.33-104.29.38-34.26,2.24-68.63,1.93-103.05-.23-25.88-.08-51.76-.41-77.64-.3-23.73-3.21-47.48-2.41-71.18.38-11.51,1.54-23,1.82-34.53.59-23.93.85-47.87,1-71.8.16-27.18.17-54.36-.26-81.53-.25-15.78.64-32.63-2.2-48.24-8.26-45.45-6-1121.34-5.32-1171C2113.36,1154.19,2126.74,984.49,2127,952.72Zm-23.71-106.89c13.69,28.14-20.72,27.82-38.85,27.56-8.65-.13-31.91,1.13-36.53-6.49-2.36-3.89-3.13-18.39.64-21.75s7.32-4.4,11.36-3.65c40.58,7.56,45,1.11,56.58-.56C2099.42,840.52,2101.7,842.62,2103.27,845.83Zm3,57.53c-.57,2.17-20.77,6.71-23.77,7.57-6.68,1.91-13.47,3.46-20.45,3.55-8.36.11-30.4,2.33-35.52-6.14-2.43-4,.77-13.8,1-18.18,13.85-.54,61.56,1.57,77.75-4.16C2108.48,891.86,2107.87,897.35,2106.28,903.36Zm-25-76.42c-29.34,3.09-38.53-2.36-54.74-7.37-1-8-3.14-16,1-24.46,46.86,5.24,28.67,5,70.93.37C2102.39,820.44,2103.7,824.58,2081.33,826.94ZM2032,776.15c-12.61-3-10-21.78-2.28-20.68,42.33,6.06,39.88-1.61,66.13-2.62,3.14,6.91.7,14.46,3.15,22C2078.41,783.07,2053.39,781.29,2032,776.15ZM2093.31,485c.66,5.94,2.14,11.25-1.45,16.79-2.53,3.89-46.37,4.75-50.94,4.07-29.13-4.38-10-19.52,7.88-22.45C2063.42,481,2079.16,479.5,2093.31,485ZM2051.8,442.9c3.82-.23,40.36-.32,41.29,3.09,2.13,7.8,2.15,9,.31,19.12l-31.75,1.05c-7.52.24-21.23,3.45-27-1.44C2020.84,452.94,2042.27,443.47,2051.8,442.9Zm-12.86,105.54c6.61-3.94,14.71-3.7,22.12-3.06,5.33.08,32.6-3.73,30.13,7.49a4.65,4.65,0,0,1-.54,1.33c-4.35,7.23-29.73,6.94-35.85,7.77-5,.67-10,1.34-14.93.88C2029.33,561.88,2032.14,552.48,2038.94,548.44Zm-6.38-18.89c6.36-8.07,19.2-6.24,55.89-8,1.1,0,2.22.47,4,.88.38,2.74.77,5.6,1.12,8.13C2089.14,533.9,2041.68,533.89,2032.56,529.55Zm54.32,70c3.63,2.69,2.42,8.37-1.39,10-9.51,4-19.06,8.11-29,10.94-5.29,1.51-26.22,7.94-30.43,2.88-6.38-7.66,10.49-9.9,13.76-10.68,6.08-1.45,12-3.22,17.91-5.18s11.61-4.05,17.41-6.22C2078.48,600,2083.55,597.05,2086.88,599.53Zm-55.09,39.71c9-2,18.3-2.78,27.12-4.79,3.27-.74,31.64-11.45,31.68-13.76.67,10.59,1.22,19.27,1.78,28.22-7.74,9-25.74,10.41-36.6,11.13-4.87.33-27.27.56-33.56-5.76C2015.48,647.5,2026.2,640.5,2031.79,639.24ZM2026.48,675c6.5-2.8,15.86-.82,22.69,0a74.61,74.61,0,0,0,24.45-.74c2.13-.45,15.81-4.92,17.05-2.77,3.5,6.1,3.33,12.22,2.85,18.36-.39,4.91-8.1,7-13,7.6-15.59,1.81-31.92,3.21-47.34-.47-4-1-8-2.41-10.84-5.39C2016.74,685.66,2019.34,678.07,2026.48,675Zm53.81-97c-7.12,19.15-71.27,33-52.78,7.11C2034.1,575.93,2082.68,571.6,2080.29,578.05Zm-60.37,136.3c3.71-6.8,18.32-2,24.53-1.89,16.78.21,34.33,4.65,51,1.72-.37.07-.23,12.78-.21,13.82.18,7.53-.85,9.79-9.4,10.66-14.88,1.52-31.8,4.68-46.64,1.84-5.07-1-15.42-2.68-18.57-7.13C2018,729.65,2017.76,718.3,2019.92,714.35Zm75.16-304.82c2.25,2.94,3,10.36.35,13.17a6.22,6.22,0,0,1-2.06,1.36c-4.78,2-13.6.82-17.64.91-8.19.19-16.39.43-24.58.47-4,0-12.24,1.24-15.81-1.42-2.68-2-2.62-3.94-2.48-7.17.38-8.85,9.4-10.64,16.59-10.92,10.6-.41,21.1-.7,31.8-.58C2085.71,405.41,2092.09,405.61,2095.08,409.53Zm-57.53-28.86c7.17-9.74,55.14-3,55.15-3.6l-.17,11.48c0-.32-45.62,2.88-51.85-.26-2.18-1.11-3.55-1.45-4-4.1A4.55,4.55,0,0,1,2037.55,380.67Zm50.23-20.91c-4.93,3.38-12.88,2.89-18.5,3.37q-13.32,1.13-26.71,1.52c-1.73.05-3.76-.06-4.74-1.49a5.26,5.26,0,0,1-.68-2.39c-1-8.43-3.93-21.39-.25-29.34,5.87-12.67,37.83-5.49,46.85-1.13C2094.78,335.64,2099,351.8,2087.78,359.76Zm4.27-49.75c-6.94.34-64.5,3-55.48-10,1.89-2.74,11.34-4.44,14.48-5.5,3.69-1.26,35.42-12.69,37.59-9.56C2093.54,292,2092.37,301.91,2092.05,310Zm-17-75.63c1.73-2.11,3.66-7.58,7.13-6.88a4.15,4.15,0,0,1,1.24.49c3.35,1.95,3.24,15.2,3.35,18.63.11,3,1.85,10.77,1,13.48-1.57,4.79-12.08,7.57-16.29,9.16a162.93,162.93,0,0,1-25.25,7.27c-2.89.59-12.71,3.82-15.24,2.21-8.9-5.64,12.07-17.49,15.18-19.88C2055.81,251.38,2067.2,243.84,2075,234.38Zm-10.92-39.89c3.53,2.42,9.42,8.79,9,13.51a11.74,11.74,0,0,1-1.77,4.66c-4.9,8.59-11.27,12.46-18.25,18.83A304.42,304.42,0,0,1,2026,254c-7.44,5.36-12.22-2.17-8.74-9.07,5.7-11.3,13.88-21.28,22.64-30.32C2042.88,211.53,2059.82,191.56,2064.09,194.49Zm-37.4-20.77a10.35,10.35,0,0,1,5-1.45c3.94,0,8.42,2.6,11.31,5.07,3.6,3.07,4,5.86.52,8.55-3.86,3-31.65,41.69-42.51,53.33-5.64-9.46-7.55-15.36-3-25.89,4.92-11.42,11.25-22.38,19.8-31.49C2020.45,179,2023.34,175.61,2026.69,173.72Zm-55.08-4.78c3.19-6.91,13.9-4.53,20.11-4.59,2.12,0,4.36,0,6.2,1.06a4.21,4.21,0,0,1,1.87,3.92c0,7.45-9.49,21.8-11.33,26-5,11.22-9.42,22.65-13.27,34.29-.26.8-1.1,1.78-1.72,1.22A176.81,176.81,0,0,0,1975.3,208a176,176,0,0,0-1.52-19.17C1973.87,182.65,1968.79,175.05,1971.61,168.94Zm-43.17-3.72c3.6-7.33,14.81-3.34,20.8-1.73,2.72,7.38,6.15,14.85,7.66,22.6,1.21,6.13.41,12.36.79,18.64.26,4.42.19,9-1.82,13-3.75,7.37-23.39,10-27.72,1.56-1.67-3.25,1.27-8.66,1.78-11.87.87-5.51.27-11-.54-16.47C1928.18,182.79,1924.54,173.14,1928.44,165.22Zm-41.82-2.74c6.92-.18,16.49-4.63,21.92,2.5,6.62,8.69,5.63,29.72,5.71,40.09.07,7.9-4,15.07-11.82,17.11-1.73.46-18,.83-18.07,0-.49-6.94,2.86-13.05,4.19-19.57C1889.29,198.93,1887.35,162.46,1886.62,162.48ZM1853.45,158a16.74,16.74,0,0,1,6.06,2c8.9,5.14,10.57,18.12,10,28.39-.23,4.2-6.51,29.38-9.36,29.87-4.49.75-17.9,4.94-22,.9-3.19-3.17-.28-11.3.18-15a115,115,0,0,0-1.89-38.49C1834.12,154.61,1845.09,156.82,1853.45,158Zm-63.24,1.15a38.47,38.47,0,0,1,25.56-1.9c4.12,10.08,4.29,20.74,5,31.41.74,11.36-4.11,20.81-9,30.86-6.58.44-13.37,1.4-19.89-.24-.34-.87-.64-1.24-.59-1.55,3-17.27,4.5-15.71,1.91-37.42C1792.16,172,1788.92,165.67,1790.21,159.16Zm-23.07-.65a44.06,44.06,0,0,1,5.83,16c2.9,21.07,6.75,29.53-4.07,42.84-4.43,5.44-12.85,4.13-25.58,4.59,1.5-.05,3.4-23.07,3.24-25.7a229.19,229.19,0,0,0-4.88-33.51C1750.13,159,1758.15,157.28,1767.14,158.51Zm-68.51,4.36c6.07-3.78,12.21-3.16,18.66-3.5,4,6.57,5.92,13.95,8.34,21.08,5.55,16.38,3.53,22.28-3.51,38.74-1.9,4.44-21.36,4.49-26.42,3.29C1702.93,193.86,1703.84,200.58,1698.63,162.87Zm-53.16,12.85c-1.34-3.22-3.3-4.49-2-8.42a8.81,8.81,0,0,1,.57-1.36c2.71-5.06,10-5.43,15.13-5.54,4.74-.1,13.64-1.28,17.71,1.49,7.68,5.22,6.79,24.78,6.59,33-.18,7.09-7.51,30.55-14.23,29-7.59-1.71-22.91,1.19-27.67-.75,3.79-11.14,6.78-22.81,6.62-34.66A31.59,31.59,0,0,0,1645.47,175.72Zm-49.81,36.47c.53-8.83,1-19.71,1-21.61-.11-7.25-1.62-23.88,8-26.28,14.07-3.51,24.34,3.33,26.14,17.6,1.35,10.76,3.63,30.5-5.87,38.67-8,6.84-20.93,6.7-30.33,3.37C1594.87,224,1595.28,218.66,1595.66,212.19ZM1566,183.77c-.5-4.8-3.18-11.74-1.39-16.48a9.66,9.66,0,0,1,.75-1.55c2.6-4.33,8.16-5.48,13-3,10,5.18,6.1,24.57,4.72,33.35-.72,4.56.12,9.56-1.25,13.95-2.26,7.18-14.85,19.54-20.25,8.91-2.61-5.13,3.37-11.09,4.6-15.89C1567.68,197,1566.6,189.92,1566,183.77Zm-52.33-23.24c.72-.07,1.51-.12,2.36-.14,6.82-.15,14.94-2.74,21.55-.1,8.59,3.43,9.12,15.14,10,23.19,1,9.66-.53,26.45-6.79,34.48-6.47,8.31-20.57,4.77-29.35,3.58-6.3-.85-6.87-1.59-7.16-8.45-.43-10.19,3.58-20.1,3.44-30.2C1507.49,172.23,1500.5,161.88,1513.63,160.53Zm-46.14,57.05c2.86-18,6.17-36.05,3.57-54.14,2-2.89,4.13-2.92,5.74-.47,13.62,20.75,15,24.84,1,57l-9.39-.14C1468,218.86,1467.39,218.17,1467.49,217.58Zm-20.37-52.48c15.66,7.47,3.1,40.45-1.37,56.55l-8.09-2c-.59-1.58-1.07-2.28-1.08-3-.28-21.42,3.59-11.6-.13-53.48C1440.85,160.07,1443.89,163.55,1447.12,165.1Zm-33.66-2.6c9.44,12,7.74,46.82.63,56.38-3.43-1.23-2.67-3.46-2.12-5,7.58-21.07,3.64-31.07-.55-50.33Zm-31,0c.13-.12.27-.23.41-.34,5.36-4.17,8.07.15,10.23,4.93,5.59,12.38,6.6,26.44,1.78,39.22-3.74,9.91-2.36,17.07-14.38,13.32,1.29-10.19,3.39-20.93,3.31-31.23C1383.73,181,1375.39,168.66,1382.44,162.5Zm-56.75-.55c-.69-1.86,21.7-1.66,23.73-1.15,9.4,2.33,15,15.77,15.58,24.55.87,13.07-5.79,23.56-12,34.47-9,3.38-18.66,3.62-29.24.76C1327.39,209.75,1336.12,190.08,1325.69,162Zm-54.36-2c10.07-1.33,20.88-.62,31.09-.84,5.53,5.22,9.2,11.49,8.61,19.92-.68,9.65,2.45,27.17-10.07,40.76a64.74,64.74,0,0,1-20.65-.3c-11.47-2.16-6.23-16.23-6.48-24.93C1273.75,191.6,1271,159.94,1271.33,159.9Zm-27.9-1.69c10.81,2.81,13.19,17.84,12.89,30.78a95,95,0,0,1-1.53,15c-.34,1.77-5.82,16.59-8,16.21-9-1.58-18.6.24-28.3-1.54,4.56-45,5.09-35.37-.33-61.44C1218.13,157,1241.38,157.67,1243.43,158.21Zm-71.58,1.51c1.4-2.89,4.66-4.1,8.3-4.28a24.37,24.37,0,0,1,12.3,2.75c11.52,6.84,12.36,19.72,11.14,31.53-.92,8.81,1.16,24.09-8.31,29.37-3.69,2.06-14.85,1.09-18.57-.85-1.55-.82-1.7-2.94-1.68-4.69.08-7.77-1.68-15.5-1.47-23.19.15-5.39,1.22-10.23.34-15.77C1173.27,170.67,1170,163.56,1171.85,159.72ZM1125.17,162c.47-1.58,2-2.57,3.51-3.25.8-.37,1.62-.72,2.46-1,19.83-7.63,29.55,9.2,30.19,27.2.27,7.48.57,25.11-4.65,31.26-4.52,5.32-18.13,3.17-24.24,3.61-5.38.38-6.41-50-7.22-54.69A6.87,6.87,0,0,1,1125.17,162Zm-63.94-.09c2.59-4.92,14.15-6,25.32-4.68,10.23,1.15,20.13,4.22,22.53,7.95,5.66,8.83,11.61,57.48-6.07,58.42-6.13.33-13.74-1.69-20.19-1.78-4.33-.07-8.65-.12-13-.2-.28-16.59,1.9-33.47-4.8-49.15C1064,170,1059.7,164.82,1061.23,161.9Zm-34.68-.82c1.27-2.24,3.21-2.39,5.36-1.41,5.12,2.33,11.46,11.1,13,13.46,7.37,11.08,15.2,39.26,4.88,50.57-4.14,4.54-12,6.43-15.25.48-2.42-4.39-.41-11-.53-15.76a150.76,150.76,0,0,0-4-31.16C1029.27,174,1024.74,164.25,1026.55,161.08Zm-11.9,11.26c2.94,9.46,2.82,20.79,2.61,30.58,0,1.68-2.89,30.26-10,21.55a6.76,6.76,0,0,1-1.15-3.35c-1.5-9.52.31-18.38.06-27.89-.23-8.51-1-17-1.53-25.49C1009.75,166.78,1013.06,167.23,1014.65,172.34Zm-60.72,24.25c1.25-8.94-.93-18.15.63-27.12a23.91,23.91,0,0,1,1.33-5.21A8.58,8.58,0,0,1,959.6,160c15.44-9.08,24.79,11.79,27.7,23.23,2.27,8.92,3.11,32.28-4.12,38.72-6.21,5.54-26.27,6.5-31-1.54C948.34,214,953,203.16,953.93,196.59Zm-31.79-13.26c0-5.26-3.3-14.26.89-18.6,4.49-4.64,11.79,4.86,12.24,9.09,1.41,13,4.35,25.91.75,38.7a17.38,17.38,0,0,1-2.83,6.23c-3.06,3.87-8.13,4.95-12.75,4.65-2.38-.15-.19-9,1.24-14.41.53-2.05,1-3.63,1-4.12C923.26,197.94,922.2,190.34,922.14,183.33Zm-30.56-25c5.65-5.49,15.29,2.93,15.6,8.77.55,10.23,1.9,47.74-6.34,55.35-13,4.39-8.61-8.75-5.94-24.14a62,62,0,0,0-1-24C892.91,170,887.63,162.16,891.58,158.32Zm-27.17,2.13c19.56,15.2,15.73,74.06-9.19,62.3,1-10.45,3.07-12.59-.05-30.09-1.14-6.36-2.58-12.81-2.58-19.31C852.58,163.05,855.29,162.5,864.41,160.45Zm-38.57,5.06c3.47-5.83,8-3,11,.88a18.14,18.14,0,0,1,2.53,4.5c2.91,7.86,3.78,16.45,3.86,24.78.07,7,1.14,18.47-1.59,24.93a7.82,7.82,0,0,1-5.11,4.77c-10.74,2.56-6.74-11.14-6-16.28a69.37,69.37,0,0,0-1.21-25.68C828.25,178.82,823.1,170.14,825.84,165.51Zm-29.66-3.79a26.67,26.67,0,0,1,9.06,4.22,23.89,23.89,0,0,1,7.25,8.66c8.25,16.47-3.33,34.1-5.39,50.31-9.36,2.18-18.57.38-27.48,1.36-2.54-3.15-1.22-6.32-.2-8.93,5-12.74.3-41.39-3.42-54.5C775.5,161.05,794,161.13,796.18,161.72Zm-71.95,11a10.61,10.61,0,0,1,2.26-6.5c10.65-12.57,28.7-.51,33,11.38a56.56,56.56,0,0,1,3.24,18.85c0,3.81-.56,27.14-4.06,28.24-9.85,3.11-18.88-.65-27.66.21-3.26-4.23-1-18.8-2.06-24.67C727.34,191.19,723.72,182.06,724.23,172.74Zm-48.16,1.07c2-9.37,14.88-13.5,22.17-9.58,10.25,5.51,23.73,60.22,7.55,60l-25.7-.38C682.32,223.87,675.22,177.92,676.07,173.81Zm-46.55-6.49c7.65-.62,20.91-5.14,27.35.94,12.26,11.56,5.29,33.6,3.68,47.59-1.21,10.55-15,8-22.43,6.56-8.61-1.62-10.2-6-11.31-14.35C626.33,204.43,624.93,167.68,629.52,167.32Zm-54.65,1.27c3.11-3.4,26.53-6,29.88-2.69,4,4,4.2,9.09,4.27,14,.19,13.22,3.71,26.82-4.16,39.84-21.09.28-30.84,3.13-30.77-5.1C574.3,191.37,580.61,196.28,574.87,168.59ZM536.29,167c28.71-8.48,34.48,66.81-8.3,49.6C528.73,166.45,525.32,170.2,536.29,167Zm-50,2.9c1.34-1.63,20.34-1.75,20.85-.59,4.15,9.45,5.88,31-1.05,45.37-6.62,0-12.76.78-19-2.36C484.39,210.94,484.1,172.52,486.27,169.86Zm-34.16-3.18c25.36,1.25,15.36,30.36,10.91,45-9.44,2.64-20.15,1.16-29.83,1.62C431.62,193.69,421.47,165.16,452.11,166.68Zm-70.46,8c4-9,16.45-5,25-4.54,7.28,13.73,9.9,27.65,2,42.47-4.5,8.39-23.21.29-25.95-4.63C379.47,202.16,378.92,180.85,381.65,174.64ZM337,171.22c2.37-4.1,13.7-4.48,20.75-2.48,2.56.73,4.55,1.77,5.35,3.06,2.16,3.51,2.19,7.89,2.15,12-.16,17.08,1.65,30.39-19.16,30.31C343.24,205.81,332.5,179.09,337,171.22Zm-29.68.43c7.45,7.1,21.4,39.3,4.48,43-19.32,4.19-17.39-43.5-18.34-43.22C298.31,170,302.49,170.63,307.36,171.65Zm-45.58-2.25c13.33.64,14.55,43.15,7.46,44.06a4.33,4.33,0,0,1-3.55-2c-6.05-13.73-6.16-23-20.67-41.35C251.82,169.75,256.82,169.17,261.78,169.4Zm-9.07,355.76c-1.62,13.19-34.88,33.89-46,40.1-12.27,6.83-15.64,13-23.66,8.57,1-8.63,3.86-15.22,12-19.71,9.74-5.36,12.56-14,26.31-19.49C236.19,528.73,243,523.5,252.71,525.16ZM183.09,2647.08a16.79,16.79,0,0,1,6.17-4.42c6.14-2.5,12.43-2.26,18.9-2.55s12.67-1.71,19.37-.71c4.89.74,9.86,2,13.79,5,5.24,4,8.74,12.26,2.61,16.69-5.6,4-16.61,3.27-23.19,3.82-11.06.92-22.32,0-33.41.31-5.24.15-7.21,1.62-8.69-4.5C177.52,2656.07,180.07,2650.46,183.09,2647.08Zm4.5-49.33c4.86-1.94,10.23-2,15.47-2.08,12.05-.12,22.43.37,34,4.11a5.18,5.18,0,0,1,2.15,1.1,5.38,5.38,0,0,1,1.14,3.32c.27,2.59,1.08,23.71-3.39,23.29-36.41-3.07-21-3.16-57.52.63C178.89,2617,174.55,2603,187.59,2597.75Zm55.28-11a1.88,1.88,0,0,1-.88.88,2,2,0,0,1-1.39-.21,57.09,57.09,0,0,0-11.61-3.64c-18.51-3.7-33.63-.48-52.28,1.94-.77-5.66-2.6-12.38-.74-16.9,1.13-2.73,3.61-4.67,8.47-5.09,16.43-1.44,38.18-4.46,54.31-.19C249.56,2566.43,247.49,2579.3,242.87,2586.78ZM179.4,2731.21c7.86-10.63,27.77-10.81,40.08-8.07,5.1,1.14,34.14,4.28,24.72,16.1-3.89,4.87-22.7,4.33-28.8,5.19-9.9,1.39-19.8,2.8-29.69,4.29-7.1,1.08-9,2.7-9.57-4.44C175.69,2738.78,177,2734.49,179.4,2731.21Zm58.67,100.59c-5.33,0-10.81-1-16.14-1.3a235,235,0,0,0-32.39-.25c-7.91.57-13.29,4.19-14-4.74a49.78,49.78,0,0,1,.18-11.89c5.06-7.24,23.43-1.12,29.91.55,14,3.61,26.81,10.48,40.62,15,.65.21,1.13,1,2.39,2.12C247,2829.81,240.23,2831.79,238.07,2831.8Zm7.42,19.27c-.11-1.84-47.74,3-50.41,3.44-5.21.84-13.4,5-18.06.75-5.25-4.76-2.21-8,2.43-10a35.94,35.94,0,0,1,10.63-2.49c19-1.1,37.08.42,55.29,6.27Zm-67.06-57.33c-.55-2.26-1.07-4.37-1.76-7.15,15.65-8.41,63.87-14.36,75,4.2,2.49,4.17,3.55,11.62.1,15.77-6.68,8-20.9-1.5-30.16-4.35C207.27,2797.8,193.24,2795.72,178.43,2793.74Zm71.69-29c-1.32,3.37-61.1.12-69.18.75,15.19-8.07,28.81-10.77,46.41-10.34C231.64,2755.27,252.83,2757.88,250.12,2764.75Zm-1.53-57.1a6.36,6.36,0,0,1-1.22,3.88c-1.5,1.65-4.15,1.32-6.33.85-17.12-3.67-33.52-6-51.09-4.16-6.29.66-9,1.34-11.12-5.31-1.47-4.59-1-10.7.19-15.3a7.48,7.48,0,0,1,1.63-3.5c3.3-2.87,7.71-4.11,12-4.92,11.39-2.15,24-2,35.5-.81,5.1.52,12.75.93,16.86,4.51C251.11,2688.21,249.14,2700.5,248.59,2707.65ZM236.13,595.12c-11.67-5-26.31-4.54-37.74-1.48,10.92-9.15,31.35-16.08,46.4-29.93,1-1,2.66-1.26,4.05-1.78.28-.11.72.19,1.85.53-2.67,22.54-2,13.18-2.32,35.23C246.73,599.52,238.39,596.09,236.13,595.12Zm-70.51,709c-1.15-3.74-.76-12.8.78-16.47,2.75-6.53,9.83-9.12,17.54-10,14.17-1.55,28.38.74,42.45,3.06,9.83,1.62,14.63,24.11,4.51,25.38-7.54.95-16.11-1.45-23.68-1.87a137.06,137.06,0,0,0-28.48,1.36c-2.2.33-9.24,3-11.09,2.16C164.66,1306.47,166.59,1307.32,165.62,1304.14Zm32.09-438.83a69.78,69.78,0,0,1,20.1,0c4.58.56,9.29,1.41,13.13,4a11.41,11.41,0,0,1,5.4,11.57c-.43,4-1,10.46-4.17,13.46a7.4,7.4,0,0,1-.82.66c-2.51,1.66-5.63,2.07-8.63,2.32a116.64,116.64,0,0,1-38.05-3.18,7.34,7.34,0,0,1-2.78-1.14c-1.3-1-1.79-2.72-2.13-4.33C176.68,873.83,183.54,867.73,197.71,865.31Zm-18.42-31.23c1.56-4.63,6.45-7.54,12.84-8.52,11.65-1.78,25.21-6.66,36.6-1.31,10.39,4.88,4.35,19.91,2.38,28.94-23.3-9.08-37.06-1-48.31-.92a6.2,6.2,0,0,1-2.07-.83C180.3,846.26,179.87,841.06,179.29,834.08ZM168.74,2248.75c22.69-6.58,45.23-6,67.82-1.31,1.44.3,3.19,17.4,2.43,20.4-1.63,6.48-6.63,6.23-12.78,6.45-14.51.53-31.1-4.95-45.31-2-7.84,1.62-11.86,3-13.37-6.47C167.24,2264,166.78,2249.33,168.74,2248.75Zm.12-35.89c.1-7,22.52-6.75,26.23-7,11.08-.84,21.16-.35,31.95,3.25a18.72,18.72,0,0,1,6.88,3.55c3.4,3.1,3.79,11.28,1.36,15.17-2.31,3.71-4.95,3.51-9.6,3.23-12.48-.75-25.44.81-37.94,1.23-3.66.12-14.57,2.43-17.57.53a4.8,4.8,0,0,1-1.67-1.85C166.13,2226.46,168.79,2217.51,168.86,2212.86Zm6.24-86c6.11-5,15.09-6,22.65-6.29,10-.44,21-1.31,30.65,1.9a15.6,15.6,0,0,1,6.43,3.49,12.17,12.17,0,0,1,2.77,4.67c5.21,14.5-1.31,22.19-16,22.27-7.4,0-14.55-1.08-21.93-.83-8.17.27-18.57,1.09-26.14-2.59C164.3,2145,168.91,2131.89,175.1,2126.88Zm-3.18-42.34c.52-2.47,1.2-4.33,2-4.94,13.7-10.09,35.75-5.74,51.39-3.87,3.15.37,6.56.95,8.69,3.29,5.2,5.69,6.35,24.28-2,28.23-1.65.77-3.57.57-5.38.35-7.84-.95-16-2.87-23.74-2.63-8.41.25-16.78,2.4-25.21,2.85a10.77,10.77,0,0,1-5.64-.76C167.46,2104.67,171,2088.9,171.92,2084.54Zm57-23.79c-15,3.3-32.7,1.54-48,1-7.44-.26-8.78-3.33-9.56-11.15-.35-3.57-.57-15,2.18-17.64,7.54-7.26,19.69-8.08,29.57-7.42,8.61.58,24.86,2.49,31.13,8.84a12.33,12.33,0,0,1,2.57,3.88C241,2048.15,240,2058.32,228.93,2060.75Zm-56-64.18a5.92,5.92,0,0,1,.51-1.85c1-1.91,2.93-3.12,4.86-4.07,10.28-5,25.17-5,36.29-4.56,5,.2,12.69.19,16.9,3.4,3.15,2.4,5.08,21.83,2.66,21.86-16.83.18-33.16-2.69-50-1.58-3.27.21-7.17,1-9.62-1.71C173,2006.4,172.43,2000.11,173,1996.57Zm61.29-21.42c-4.46,2.17-9.89.5-14.47,0-13.84-1.44-27.59,1.76-41.43,1-7-.36-8-1.91-8.05-9.52-.06-5.6-.15-12.13,2.26-16.81a11.07,11.07,0,0,1,8.42-6c12.45-2.21,27.56-3.52,40-1.2,6.67,1.25,15.54,3.27,17.21,11C239.27,1958.78,239.82,1972.43,234.24,1975.15Zm-3.5-122.09c-5,3.36-9.45.67-14.77-.35a55.64,55.64,0,0,0-19.39.06c-5.83.91-15.89,4.69-19.9-1-2.85-4.06-1.84-15.65-.35-19.94,4.47-12.82,29-6.91,39-7.25,3.57-.12,7.31,0,10.45,1.72,4.34,2.37,5.21,7.21,5.22,11.7C231,1839,230.2,1853.42,230.74,1853.06Zm-51.08-199.89c4-4.43,13.22-4.45,18.62-4.65,8.34-.3,17,1.3,25.28,2.11,1.84.18,3.85.44,5.14,1.76s1.47,3,1.66,4.7c.5,4.45,3.49,18.53-.06,21.26a1.83,1.83,0,0,1-.38.23c-2.84,1.39-9.32-1.71-12.4-2.13-6.57-.9-13.6-.54-20.19,0-5.19.38-12.07,3-16.36-1.21C176.94,1671.23,175.86,1657.39,179.66,1653.17Zm51.82-30.27-.2,13.07c-17.56-2.9-34.63-1.63-52.52-1.66C163.12,1602,214.62,1609.79,231.48,1622.9Zm-.88-26.85a8.79,8.79,0,0,1-6.72,2.78,31.65,31.65,0,0,1-7.4-1.19c-9-2.07-19.55-3.59-28.8-2.19-7.17,1.08-11.16,2.52-11.77-6.82-.3-4.65-.69-8.93,1.3-11.94a8,8,0,0,1,3.67-2.94c10.4-4.52,27.4-.66,38.06,1.44C226.79,1576.75,237.74,1587.42,230.6,1596.05Zm-51.81,99.58A13.08,13.08,0,0,1,187,1691a87.2,87.2,0,0,1,33.46.15c9.9,2,16.41,18.09,9,26.12-2.7,2.94-7.34,2.53-11.32,2.2-11.39-.93-24.64,2.38-35.69-.1-4.9-1.1-4-.24-5.82-4.64C174.49,1709.45,175.25,1700.16,178.79,1695.63Zm53.83,68.91c-15.69,1.51-31.66,3.59-47.43,3.31-9.53-.18-7.27-8.63-7.95-15.39a25.43,25.43,0,0,1,.62-10.42c1-3,2.89-5.37,6.18-6.2,13.76-3.47,28.91-1.33,42.87.41a8.92,8.92,0,0,1,3.67,1C235.79,1740.54,233.08,1759.26,232.62,1764.54ZM229.1,1807c-5.34,3.86-12.62.65-18.49.31-10.46-.61-21,1.75-31.51,1.85-.81-2.42-2.3-4.83-2.24-7.19.35-12.16,5.51-21.1,18.27-22,13.77-1,50.88,1.58,36.31,24.54A9.22,9.22,0,0,1,229.1,1807Zm-4.88-249.84c-6.66,1.86-13.86.49-20.68.69-8,.24-16.24,1.06-24-1.55a7.15,7.15,0,0,1-4.23-4.08c-2.08-4.62-1.2-11.67.71-15.4,2.7-5.27,10.27-7.1,16.22-8.15,7-1.23,14.14-.81,21.14.15,2,.28,19.32,2.24,19.66,3.69C235.45,1542.8,236.12,1553.8,224.22,1557.11Zm-48.93,316.21c25.14-8.28,45.21-4.88,54.54.64.54,4.14,1.08,8.2,1.66,12.59a14.42,14.42,0,0,1-12.05,2.13c-20.88-5.45-33.51.5-44.41,1.35C173.17,1884.34,174.29,1879.14,175.29,1873.32Zm-1.14,41.36c2.78-9.63,37.81-10.85,55.56-7.25,7.14,1.45,4.9,3.09,3,20.83-38.62-4.58-22.89-4.68-58.66.75C172.16,1924.32,172.79,1919.37,174.15,1914.68Zm.08-476.35a10.85,10.85,0,0,1,5.22-4.44c11.52-5,26.87-3.79,39.1-3.73,3.88,0,8.11.16,11.06,2.67s6.06,24,.54,24.41c-22.42,1.57-52.71,4.5-53.18,4.54C173.93,1455,170.46,1444.77,174.23,1438.33Zm59.42-221c-1.66.64-3.51.28-5.26-.07-13.85-2.73-28.2-3.82-42.23-1.79-4.24.61-11.65,4.49-14.53,1.11-1.75-2-.57-7.71-.39-10.17a22.12,22.12,0,0,1,1-5.42c5.16-15.07,33.52-10.55,45.07-8.47C223.75,1193.65,249.32,1211.28,233.65,1217.31Zm-6,47c-3.84.67-7.77,0-11.61-.56-13.55-2.07-25,1.19-38.1,1a10.8,10.8,0,0,1-3.84-.55c-3.07-1.23-4.46-4.81-5-8.08-2.3-14,6.48-20.85,19.14-24a58,58,0,0,1,9.51-1.55c6.3-.51,12.68-.69,19-.66,4.36,0,8.92.68,12.49,3.18C237.87,1239,240,1262.12,227.69,1264.28ZM185.34,679.45c8.21,2.72,16.72,1.88,25.1,2.49,7.54.55,15.58-3.43,22.59-2.73,7.69.76,9,11.32,8.87,17.38-.13,7.68-3.11,9.87-10.63,9.5-18.34-.91-34.18-5.31-52.09,2.46a5.73,5.73,0,0,1-4.55.12C173.57,693,167.93,673.67,185.34,679.45ZM175.1,655.07c.7-5,11.45-9.06,16.47-10.52,14.37-4.18,31.93-6.8,46.62-3.9,7.87,1.55-3.65,17.75-5.89,19.37-7.21,5.19-20.25,4-28.87,4.66-7.22.56-17.75.3-24.11-3.65C176,659,174.84,656.94,175.1,655.07Zm56.72,337.22c-16-4.31-29-2.54-54.7-.89-.84.06.58-20.36,1-22.27a11.73,11.73,0,0,1,1.37-3.37c4.39-7.14,15.86-7,24-7.27l9.87-.34c4.38-.16,8.92-.28,12.95,1.42,8.59,3.6,5.94,10.3,5.67,17.47C232,978.16,231.26,992.14,231.82,992.29Zm-54.15,22.79c16.47-9,37.72-6.17,55.5,1.29-.95,13.12,1.88,24.46-14.09,22.95-13.59-1.28-27.52,1.11-40.68,2.11a2.32,2.32,0,0,1-1.7-.35,2.37,2.37,0,0,1-.59-1.54C175.07,1031.57,176.9,1023.11,177.67,1015.08ZM206,1054.82c7.05-.08,15.25,1.63,21.39,5.17a15.57,15.57,0,0,1,4.75,4.15c3.84,5.08,4.21,12.12,3.9,19-.4,8.8-4.09,6.38-11.24,5.68-13.72-1.34-27.5,0-41.17,1.26-6.93.64-8.44,0-9.2-7.15a54.55,54.55,0,0,1,.06-13.75C176.42,1057,196.1,1054.93,206,1054.82Zm-24.85,98.62c34.38-6.11,36.18-1.15,54.33,7.63-1.31,5.9,1.51,12.15-2.64,18.32-37.52-6-21.94-4.59-58.13-5.13-2-4-2.06-8.11-1.74-12.25C173.43,1155.38,174.1,1154.68,181.1,1153.44Zm53.71-16.09c-1.71,0-3.64.28-5.41-.14-16.36-3.9-29.81-4.07-46.53-1.86-1.91.26-4,.45-5.63-.53-2-1.2-2.77-3.82-2.79-6.18,0-4.83,1.15-9.63.94-14.44,14-9,29.05-10.15,44.56-8.54,4.11.42,12.32,6.07,15.85,8.24C237,1138.36,237.64,1132.43,234.81,1137.35ZM179.16,919.86c3.34-10.83,26.08-7.42,34.19-7,4.37.25,8.89.54,12.75,2.6,6.22,3.31,5.6,8.24,5.8,14.13.21,6.19.91,10.17-1.38,11.92-1.39,1.06-3.88,1.31-8.24.72a93.69,93.69,0,0,0-34.4,1.38c-2.49.6-5.3,1.26-7.48-.1a7.52,7.52,0,0,1-2.83-4.24C175.85,933.91,177.5,925.22,179.16,919.86Zm-4.62-163.92c-2.06-4.32-.51-10.48-.38-15.06.29-10.38,6.64-12,16.26-14.85,19-5.67,32.33,0,50.54,3.91,2.55,6.82,7.07,21,2.39,27.5-2.65,3.67-6,4.06-9.57,3.22-3.86-.92-7.86-3.33-11.17-4.58-9.59-3.61-23.35-1.26-33,1C183.46,758.61,177.92,763.06,174.54,755.94ZM219.2,624c-13.41,2.4-29.36,5.66-42.95,3.5-5.33-.85-5.7-4.53-5.69-9.09a8.06,8.06,0,0,1,2.4-6.08c6.56-6.26,24.8-2.34,32.69-1.76,11.12.81,30.94,1.49,37.94,12.05C240.9,618.52,223.05,623.26,219.2,624Zm-48.4-78.66a5.77,5.77,0,0,1-1.4-1c-3-2.8-3.59-13.36-3.1-17.17.89-6.8,4.51-6,10.74-7.18,11.34-2.13,23.26-5.28,34.85-3.19-1.87-.34-12.76,10.37-14.85,11.89-5.5,4-11.16,7.88-16.64,12C177.22,542.94,174.32,547.09,170.8,545.29Zm-2.07-49.16c-1.19-4.05.18-8.33,1.41-12.52,35.43-1.72,6.37.59,59.8-7,1.45,4.74,2.2,8.71.65,13.87C186.31,500.71,182.77,505.08,168.73,496.13ZM228.52,451c-15.59,2.26-32.87,20.76-55.78,11.32-6.34-2.61-4.46-3.82-5.25-22.73,22.38,5.44,42.75,2.34,63.4-1.6,1.52,1.33,2.55,3,1.17,5.56C230.79,445.86,229.77,448.33,228.52,451Zm-.72-34.22c-3.81,2.9-9.65,4.27-14,6.18-11.6,5.08-26.1,2.46-38.18-.54-2.24-.56-7.22-1.22-8.81-3.35-.82-1.1-2.1-8.23-.78-8.67,7.26-2.38,14.46.57,21.66.21,27.28-1.37,12.5,1.14,44.51-5C234.44,405.12,229.11,415.77,227.8,416.76ZM227.23,383c-3.2,2.82-5,5.37-9.19,6.88-11.58,4.22-27.44,3.11-39.43,1.68-5.5-.66-12-1.65-14.58-7.23-3.59-7.76-2.66-13.5,1.74-16,2.7-1.53,6.7-1.83,11.78-.64,18.26,4.29,36.19,3.06,54.61,1.14C232.43,376.6,232.93,378,227.23,383ZM227,1514.21c-10.1,2-20.13-1.67-30.16-1.22-4.23.19-16,2.89-19.74,1-6-2.94-2.43-17.44-2.52-22.6-.1-5.33-.51-9.15,5.62-10.26,14-2.52,37.42-10.62,49.93.08C238.44,1488.4,239.56,1511.76,227,1514.21Zm6.3-106.76c-4,5.33-12.91,3.6-18.62,3.57-16.22-.1-28.72,1.79-44.38,5.19-1.42.3-2.6-21.56-2.72-23.49-.44-6.92-.34-9.43,6.32-12.44,9.18-4.14,20.36-3.7,30.2-4.2,11.11-.56,24.79-.76,29.08,11.72C234.86,1392.79,236.79,1402.78,233.26,1407.45Zm-63,762.77c3.15-8.57,40.85-5.59,47.19-4.44,6.18,1.12,15.45,3.87,19.38,9.26,3.31,4.54,2.22,10.66,1.29,16-11.6,1.36-23.78-.82-35.42-1.7a124.86,124.86,0,0,0-17.3.17c-3.26.21-12.76,2.8-15.49,1.25C163.68,2187.24,168.58,2174.79,170.26,2170.22ZM168,2298c2.64-9.62,45.06-14.17,72.88-3.74-.73,5.67-1.4,10.84-2.07,16.05-5.67,1.73-13.44-.21-19.52.1-8.6.44-17.19-.17-25.82.55-7,.58-17.9,4.77-24.65,2.15C165.09,2308.48,166.6,2303.07,168,2298ZM234.42,807.32c-9,.67-17.51-1.19-26.49-.69-7.88.44-26.35,5.48-29.37-2.88-2-5.65.53-16.27,2.63-21.71a5.24,5.24,0,0,1,.64-1.27c9.74-12.3,30.44-13.52,44.35-9.32,7.42,2.25,13.09,6.28,14.58,14.43C241.84,791.82,242.66,806.7,234.42,807.32Zm8.09,1585.52a9.14,9.14,0,0,1-5.25,3.63c-4,1.2-8.26.68-12.41.42-8.48-.51-18.85-1.56-27.25-.58-7.08.81-16.91,5.81-23.9,2.66-4.3-1.94-4.63-10.89-4.54-14.73.18-7.52,1.81-10.52,8.69-13.56,12.74-5.64,57.69-17.29,63.44,3.14C243,2379.74,245.78,2387.87,242.51,2392.84ZM171,2420.61c1.46-6.88,15.59-8.11,20.78-8.8,11.71-1.54,25.32-2.78,37.05-2.3,4,.16,8.12.86,11.35,3.21,8.35,6.05,3.91,17.43,3.38,25.9-25.73-5.87-30.84-9.61-68.88,3C165.23,2444.81,168.82,2431.1,171,2420.61ZM245.4,2513c-5.66,3.6-18.42.34-25-.56a119.37,119.37,0,0,0-32.15-.58c-12,1.57-18.6-.73-17.12-14.14a18.26,18.26,0,0,1,.53-3.4c.45-1.35,1.44-2.07,4.33-3.8,7.77-4.66,17.31-6.49,26.27-6.69,11.29-.24,22.48,2.1,33.46,4.78a15.24,15.24,0,0,1,6,2.41C244.48,2493.14,247.64,2511.56,245.4,2513ZM198.57,178.65c7.29-3.47,16.31-.88,23,2.52,8.15,4.13,26.21,19.3,17.44,30a4.73,4.73,0,0,1-1.41,1.16c-10.3,5.5-26.5-11.45-34.77-15.28-5.13-2.38-11.42-.53-12.87-6.72C189,186.14,195.35,180.18,198.57,178.65ZM173.4,212.47a9.41,9.41,0,0,1,3.15-3c4.4-2.37,9.26,1.73,14.63,4.62a419.53,419.53,0,0,1,42.51,26.81c.53,3.28,1.06,6.62,1.65,10.32a12.28,12.28,0,0,1-14.24.39c-9.53-6.22-35.64-15.28-45.16-24.55C171.11,222.32,169.25,218.47,173.4,212.47ZM167,247.18c20.88.8,32.93,20.17,51.69,25.1,2.4.63,4.41,2.78,6.84,4.38-8.17,7-24.53,3.89-33.73.62-4.82-1.71-9.38-4.11-14.2-5.83s-11.68-3.13-13.89-8.37C162.78,260.84,164,247.07,167,247.18Zm-5.39,40.62c1-.21,1.44-.49,1.7-.35,34,18.75,71.45-1.56,64.7,20.76-16.16,7.08-37.42,2.83-54.33.69C161.4,307.35,157.92,299.46,161.62,287.8Zm-.22,40.42,67.9,4.24c2.38.15,2.6,9,2.29,10.41-.94,4.45-1.44,4.44-5.51,6.47-7.88,3.93-18.68,5-27.34,4.3-9.93-.84-20.4-.12-30.2-2.9a16.22,16.22,0,0,1-6.62-3.17C155.71,342,159.44,334.61,161.4,328.22ZM162.06,1332c1.08-5.63,22.25-7.8,26.76-8.41,12.43-1.66,27.24-1.31,38.36,5.16,6.74,3.92,8.69,7.62,8.9,15.17.08,2.81,1.26,14.38-4.07,13.75a163.12,163.12,0,0,0-68,5.79C162.43,1352.21,160.05,1342.43,162.06,1332Zm11.45,998c1.22-.37,2.49-.72,3.8-1.06,18.61-4.78,39.16-5.2,58.05-2.18,7.23,1.16,5.86,6.54,5.22,12.29-.38,3.4-.55,6.85-3.72,8.94-6.11,4-12.81,1.92-19.54,1.48a110.26,110.26,0,0,0-21.79.74c-6.61.88-18.9,7.32-25,3.91C162.87,2349.76,165.8,2332.2,173.51,2329.9Zm-5.18,133.61c1-3.78,3.83-5.65,8.58-8.23,17.26-9.37,33.48-7.31,52-4.52,3.65.55,7.42,1.15,10.48,3.19s10.15,22,2,20.63c-20.37-3.36-38.2-6.55-58.89-2.59-7.55,1.44-14.46,6-14.65-4.16A15.45,15.45,0,0,1,168.33,2463.51Zm2.85,81c-3.66-4.88-2.12-12,2.5-15.7,15.26-12.13,46.34-6.23,63.7-3.17a12.62,12.62,0,0,1,5.73,2c5,3.92,4.3,19.18-.77,22.81-16.76-2-34.16-4.16-51-1.62-5.94.9-12.69,1.87-17.62-1.82A12.65,12.65,0,0,1,171.18,2544.56Zm7.93,330.83c6.64-3.21,16.8-4.52,20.6-4.92,11.06-1.16,22.1-3.69,33.28-3,4.67.3,11.53.86,15.28,4.07,1.62,1.38,6.55,10.21,1.65,11.26-9.85,2.13-19.55,1.46-29.43,2.7-11.59,1.46-23,4.26-34.52,5.52-3.27.36-7,.33-9.33-2C170.14,2882.55,173.24,2878.23,179.11,2875.39Zm66.81,44.74c-1,1.7-17.35.92-19.84,1l-21.46,1.14c-6.67.35-15.44,2.38-22,1.16-6.8-1.28-8.23-9.68-4.81-14.89a9.9,9.9,0,0,1,.9-1.18c4.8-5.48,13.23-3.19,19.74-3.92,16-1.78,33.52-3,49,2.3C248.87,2910.77,248.74,2915.47,245.92,2920.13Zm-58.37,17c11.88-2.67,24.17-2,36.08,0,4.92.84,22.8-.67,23.1,7.1.14,3.86,1.71,12.09-2.06,14.84-4.14,3-13.68-.82-18.44-1a249.24,249.24,0,0,0-25.93.69c-5.86.45-19.21,3.86-23.69-1.47C169.25,2948.65,178.9,2939.12,187.55,2937.18ZM178.77,2984a8.39,8.39,0,0,1,2-3.6c2.58-2.61,6.74-2.62,11.39-3.4,15.19-2.56,31-1.42,46.09,1.47,3.38.64,5.1.56,6.78,3.66.83,1.53.24,13.63.3,13.63-50.48-.75-56.26,2.15-66,4C179.7,2999.73,178.33,2985.49,178.77,2984Zm2.88,34.43c2.41-3,6.4-5.11,11.37-6,14.52-2.47,32.85-4,47.39-1.29a7.48,7.48,0,0,1,4,1.71,6.62,6.62,0,0,1,1.59,3.4c1.64,7.68-1.5,12.14-9.16,12.93a76.91,76.91,0,0,1-12.42.19c-6.61-.37-42.39,5.67-42.67,5.17C178.06,3028,178.48,3022.43,181.65,3018.45Zm-2.29,45c-.81-5,1.63-8.3,5.55-11,8.35-5.82,20.84-6.67,30.68-7.32,2.31-.15,31,1.12,30.82,3.79,0,.7-.07,1.4-.1,2.1-19,4.1-36.2,10.91-54.6,16.22C186.08,3068.84,180.62,3071.22,179.36,3063.46Zm8,41.27c-8-14.29-5.74-15.32,3-18.94,29.62-12.25,31.27-14.32,61.05-13.87C243.12,3076.89,187.74,3104.66,187.34,3104.73Zm9.3,31.21c-3.79-1.57-5.85-5.83-6.63-11.84,8.05-6.33,59.46-32.25,78.7-36.32,5-1.07,7-.34,11.83,4.49a200.79,200.79,0,0,1-47.92,32.8,177.9,177.9,0,0,1-28,10.85C201.38,3136.85,198.74,3136.81,196.64,3135.94Zm22.85,26.7c-7.52-4.85-16.46-9.2-5-14.09,12.38-5.26,24.63-10.83,36.65-16.87,7-3.54,13.2-8.6,20.32-11.89,11.53-5.34,21.42-15.6,34.59-15.41.56,0-8.51,14.11-8.3,13.82-6.54,9-12.25,19.68-19.42,27.92-8.53,9.8-25.35,19.14-40.49,20.39C231.13,3167.06,224.7,3166,219.49,3162.64Zm96.59,4.2a29.4,29.4,0,0,1-4.53,5.19c-3.5,3-7.23,4-13.52,4.85-4.85.69-36.86,6-35.66-4.35.5-4.32,16.59-11.23,20.24-13.94a100.17,100.17,0,0,0,17.45-16.42c10.58-12.83,16.24-28.39,26.22-41.48l9.38.15c5.69,11.64-1,27.37-5.22,38.43A120.12,120.12,0,0,1,316.08,3166.84Zm47.42-30.91c-3.22,16.06-10.93,30.23-18,44.81a29.06,29.06,0,0,1-17.48-.42c1.75.57,19-44.9,19.67-49s7.11-37.17,14.34-23.83C366.49,3115.74,365.24,3127.21,363.5,3135.93Zm19.65,42.12c-4.08,3.89-7.87,3.71-12.34,3.11-.32-1.66-1.27-3.58-.92-5.22a374.85,374.85,0,0,0,8-55.94c.35-5.44.62-10.61,6.2-13.06,6-2.63,8.88-.61,10.49,4.75C400.62,3131.8,388,3159,383.15,3178.05Zm45.42,3.5c-8.85,2.91-17.74,2.54-27.63,1.79.63-2.13,9.05-39.58,10.09-49.84.8-7.89.16-15.93,3.05-24.05,4.52-1.76,9.51-1.61,14.44-1.34,8.51.46,6,8.27,7.36,20.47C437.54,3143,438.48,3170.23,428.57,3181.55Zm46.24-8.4c-.4,1.66-3.63,8.49-5.89,8.61-6.2.14-11.74,1.94-17.76.16.67-17.65,2.89-34.76,1-52.34-.49-4.68-2.73-11.37,1.11-15.24,6.67-6.71,19.22-1.87,22.39,5.52C482.89,3136.7,479,3156.12,474.81,3173.15Zm37-27.27a169.65,169.65,0,0,1-4.53,24.21c-.94,3.78-2.75,8.19-6.6,8.81-3.36.55-11.46,3.22-10.57-3.09,2.49-17.49,5.16-32.6,2.2-50.1-1.12-6.68-3.29-9.69,3.06-12.44,3.8-1.64,9.3-2.21,12.21,1.25a15.86,15.86,0,0,1,2.85,6.53A73.3,73.3,0,0,1,511.81,3145.88Zm25.54,31.86c-4.86.3-10.13,1.88-15.4-2.46,6.38-9.82,7.19-31.23,6.21-42.49-.33-3.85-3.33-10.6-2.51-14.18,1.13-4.9,15-8.64,16.72-2.76C549.66,3140.26,543.63,3170.19,537.35,3177.74Zm40.59-1.83c-1.17,3.79-12.84,7.86-19.89,3.93,6.15-21,6.56-42.12,3.21-63.21C573.23,3105.22,592.86,3127.9,577.94,3175.91Zm39.39-8c0,.57-.09,1.15-.18,1.73a7.19,7.19,0,0,1-.82,2.6c-4.6,7.87-15.84,4.93-17.42-2.57-2-9.39.84-19.68,0-29.28-.46-5.24-4.11-13.7-2.23-18.76,2-5.4,21.65-11.09,21.53-2.77C618,3135.36,618.65,3151.24,617.33,3167.91Zm43.63,6.31c-.11.39-.22.79-.34,1.17a7,7,0,0,1-1.31,2.46,8.25,8.25,0,0,1-3.73,2.05,42.71,42.71,0,0,1-20.14,1.39c-8-1.37-1.3-38.74-.16-47.74.32-2.52,1.09-14.65,2.85-15.69,4.06-2.41,8.18-2.62,12.41-2.41,7.63.39,15.32-.83,15.73,6.8A167.64,167.64,0,0,1,661,3174.22Zm32.56,2.32c-8,.49-15.16,1.73-14.51-7.38.45-6.32,2.23-11.87,2.39-18.47.21-8.62-.21-17.26.52-25.88.53-6.17,6.9-12.12,13.27-10.3,7.77,2.22,7.55,10.8,8,17.16C704.32,3148.08,699.15,3161.49,693.52,3176.54Zm41.64-1.85c-5.73,1-11.33-2-16.6-2.16,1.25,0,1.35-36.12,1.1-39.14-.36-4.28-3.17-11.15-1.54-15.3,2-5.18,23.36-7.64,24.33-3.59C747.53,3135.49,747.94,3155.52,735.16,3174.69Zm53.77-36.56c-1.71,10.74-1.82,21.77-5.88,33.1l-22.45,2.66c.94-10.06,1.47-18.82,2.7-27.48,2.13-15.07-3.51-22.17.27-33.32l18,.27A29.7,29.7,0,0,1,788.93,3138.13Zm38.19,24.18c-2.12,5.71-5.68,7.78-9.92,8.35-3.85.51-8.27-.22-12.7-.6.94.08-1.71-32.37-2.06-36.4-.69-8-1.25-20.86,9.71-21.52,4.65-.27,15.36,1,16.57,6.43C832,3133.15,832.38,3148.17,827.12,3162.31Zm33.41,9.22c-5.81,1.79-12.07,1.39-19.32.2,5.73-9.3,5.94-19.43,8-29.08,1.83-8.46-5.18-22.54-1.52-29,5.7-1.87,11.19-3.57,17.41-1.52C875.68,3126.33,864.1,3159.12,860.53,3171.53Zm52.78-18.24c-.32,1.39-.69,2.73-1.12,4-2.21,6.6-5.4,12.59-12,14.23-1.77.45-17.36,1.84-17.4-.66-.15-9.91,5.16-19,4.57-29.12-.57-9.9-.21-19.85-.26-29.84,5.38-5,12-1.06,18.52-3.59C913.76,3119.53,916.53,3139,913.31,3153.29Zm34.19,19.23c-5.56-.08-17.57,1.82-20.21-3.43-2.93-5.85,1.42-16,2.18-22.22a173,173,0,0,0,1.72-19.4c.06-6.81-2.27-11-3.56-17.18,5.5-1.78,27.83-6.51,28.9,3.23C958,3126.6,964.87,3147.07,947.5,3172.52Zm44.27-.3c-6.38.69-12.65,2.3-19.07.2,5-26.37,6.82-35.13,1.92-63.82l15.28-.54C999.85,3128.11,994.39,3162.59,991.77,3172.22Zm35.82-34.22c-1.8,28.85,1.61,16.24-6,34l-8.76.64c2.11-39.26,2.54-22.55-1.32-62.46,2.86-3.25,6.73-2.83,11.25-2.83C1029,3117.33,1028.24,3127.67,1027.59,3138Zm32.83,24.62c-1.45,3-2.7,5.78-5.79,7.28-1.05.5-9.6,1.24-9.64.34-.58-19.21-6.11-35.61-3.61-55.21.31-2.45.07-8.07,2-9.89.76-.72,11.38-2.75,11.89-2.16C1068.52,3118.56,1069.12,3144.77,1060.42,3162.62Zm33-1.5c-1.86,9.45-3.42,11.85-13.36,10.87-3.3-.32-.79-34.85-.88-37.53-.25-7.68-2.13-15.24-2.21-23-.09-8.14,8.74-13.51,13.24-4.17,3.92,8.15,3.4,18,3,26.78C1092.88,3143.19,1095.16,3152.17,1093.4,3161.12Zm42.88-21.5c0,1.09-.07,2.14-.17,3.17-.82,8.86-4.36,15.82-6.42,24.76-1.29,5.57-14.25,6-19.71,4.69-2.82-7.54,2.47-14.16,1.82-21.38,0,0,.7-16.67-1.91-44.85,8.82-3,16.76-5,21.55,4.8C1135.74,3119.61,1136.42,3130,1136.28,3139.62Zm31.91,22.14c-2,8.65-4.45,10.25-16.45,10.25-2.34-30.57,7.53-24.92-1.5-65.11,5.4-1.42,5.41-1.48,11.29-.19C1168.7,3116.91,1170.43,3152.13,1168.19,3161.76Zm29.34,4.19c-1.78,4.94-2.52,5.08-10.22,4.58-.35-1.31-1.4-2.93-1-4.1,2.4-7.44-1-48.92-1.94-56.38-.95-7.62,9.66-4.37,22-3.44C1212.58,3124.34,1203.88,3148.38,1197.53,3166Zm43.62-2a27.49,27.49,0,0,1-1.75,4.51c-1.21,2.11-2.77,2.36-7.12,2.49-3.14.1-6.9.29-10-.35-10.4-2.13-3.77-10.78-1.74-18.53,6.34-24.2,5.19-29.22,6.47-44.32,4.37-3.54,9.25-3.08,14.86-1.94,1.92.39,5.29,22.68,5.55,25.67C1248.33,3141.81,1244.36,3154.33,1241.15,3164Zm47.89-26.13a41.56,41.56,0,0,1-3,13.87c-1.46,3.42-7.32,20-12.19,19.18l-18.14-3.08c1.38-11,6.52-20.25,7.26-30.65s-.9-20.45-1.29-30.89c7.67-3.6,15.12-1.44,23-1,1.43.09,3.53,16.42,3.79,18.56A78.44,78.44,0,0,1,1289,3137.86Zm32.88,31.29c-3.68,3.23-8.06,1.23-12.14,1.34-3.76.11-7.69.53-11.72-2.42,1.91-10,4-20.13,5.71-30.27s-1.11-20.35.74-30.89c7.08-1.07,14.21-1.54,21.87.49C1333.23,3130.44,1326.76,3148.81,1321.92,3169.15Zm35.24-10.12c-4.69,10.15-.32,12.52-14.81,10.08,1.38-22.93,2.6,4,3.6-63.57,6.4-.26,11-1.28,12.65,5.19C1362.76,3127,1364.49,3143.13,1357.16,3159Zm31.27,9.79c-5.16,2.62-10,2.31-15.56,1.1,6.66-16.68,7.29-13.67,3.07-64.27l17.92.26C1406.28,3124.54,1395.72,3146.54,1388.43,3168.82Zm46.15-24.47a112,112,0,0,1-5.28,17.11c-3.62,9.28-12.34,7.13-20.77,5.25,4.17.93,7.27-54.9,9.07-59.13.4-.92,13.55.2,15.26.17,1.44,6.67,3.36,11.85,3.52,19A75.23,75.23,0,0,1,1434.58,3144.35Zm32.07,23.81a28.77,28.77,0,0,1-17.09,0c-1.26-.37,8.49-48.75,1.35-56.58-3.25-3.57,22.07-3.78,22-3.78C1478,3132.24,1469.47,3156.36,1466.65,3168.16Zm45.59-20.8c-2.34,9.18-5.07,16.71-6.88,18.63-4.2,4.45-15.18,4-21.3,1.92,11.13-21,6.66-49.76,7.19-62.33,7.1-.31,13.72-2.67,20.64-1.5C1519.87,3105.43,1516.79,3129.52,1512.24,3147.36Zm32.46,22.4c-8.52,2.85-15.84-1-24.6.2,4.94-13.2,13.58-21.34,12.09-66.2,11.81-.84,11.83-.84,15.63,8.62C1557.88,3137.36,1547.84,3160.15,1544.7,3169.76Zm45.52-40.35c-4.41,21.92.72,27.35-10.54,41.25-4,.88-7.73,1.25-11.89-1.66,1.72-20.34,4.16-41.16-.56-62.5,4-1.86,16.87-1.17,21.65-1.1C1591,3113.52,1591.86,3121.27,1590.22,3129.41Zm31.93,42.53c-4.86,2.08-10.9-.2-17.49-.11-1.62-11-1-3.56,3.61-67a35.93,35.93,0,0,1,19-.79C1637.88,3136,1625.7,3162.32,1622.15,3171.94Zm44.54-33.35c.13,4.2-3.16,37.65-9,36.85l-13.77-1.88c-.61-1.52-1.24-2.29-1.09-2.83,2.69-9.78,4-20.16,5.18-30.21.66-5.57,1.52-11.43,1.17-17.05-.3-4.9-2.64-12,.85-16.41,1.67-2.1,9.84-4.38,12-2C1669.9,3113.49,1666.39,3128.29,1666.69,3138.59Zm39.74,38.76c-9.17,1.05-17.51,1.82-25.68-.24-1.17-3.24.4-20.17,1.49-23.82,6.87-23-1.34-41-.51-50.67,7.93-1.73,15.85-1.3,24.44.89,2.8.71,5.11,14.29,5.62,16.59C1716.18,3139.64,1712.69,3158.75,1706.43,3177.35Zm43.84,1.45c-6.5,4.14-13.07.31-20.07-.52a54.53,54.53,0,0,1-.67-21.53c3.89-25.13.68-35.61-1.63-53.18l18.23-1.11C1764,3147.23,1752.74,3162.87,1750.27,3178.8Zm39.26,3.49c-33.61-3-9.07-13.28-17.53-55-2.28-11.23-5.77-17.49,2.07-23.7l15.1.23c.08,0,4.51,32.34,5.19,36.71.22,1.39.64,7.76.69,15.13C1795.12,3167.81,1794.17,3182.7,1789.53,3182.29Zm-119.75-97.37c-17.63.12-35.35,1-53.08,1.74-28.61,1.2-57.26,2.07-85.66-1.09-2.76-.3-66.89,4.18-72.5,4.37,0,0-79.89-3.41-243-.25-9.66.18-127.08-7.91-168.06-3-6.59.8-13.25,1.17-19.87,1.59-41.81,2.65-83.72,3.94-125.59,5.16q-94.35,2.76-188.76,3.27c-66.87.36-133.77-.1-200.6-2.38-29.59-1-59.18-2.39-88.71-4.5-37.87-2.71-77.82-.86-114.76-10.07-20.85-5.2-38.52-17.62-39.63-40.73-.46-9.68-8-39.12-4.6-93,3.42-53.51,1.23-109.58-1.46-163.35-2-40.64,2.17-81.37,0-121.62-1-18.19-2.23-36.37-2.46-54.59-.18-13.65-2.56-29.45.06-42.82,5.35-27.31,1.88-52.58-1.36-80.14-3.26-27.81.45-57.4-.45-85.44-.68-21.3-2.42-42.54-3.14-63.83-.29-8.46,1.06-17,.95-25.63-.5-38.26-3.41-76.44-3.81-114.69-.3-27.91,1.92-55.82.53-83.81a627.69,627.69,0,0,1-2-63.93c.3-16.44-2-32.75-1.6-49.12.39-15.75.44-31.81.49-47.65.06-18.39-.94-36.76-1.5-55.14-.79-26.28,0-52.58,0-78.86q-.06-86.61.6-173.23.57-90.27,1.53-180.55.41-36.2.9-72.41c.09-6.3.14-12.19-1.11-18.4-2-9.94-1-19.72-.73-29.88.67-24.07.67-48.16.8-72.24.35-67.92,4.08-135.41,2.13-203.34q-2.37-83.05-.83-166.23c.52-26.44,1.21-52.91,3-79.3,3-45.63,1.78-91.19,2.22-137.1.44-45,1.1-88.13,3.26-133.3,1.07-22.54-5.66-44.18-6.08-66.83q-.31-16.71-.47-33.43c-.15-19.69-3.09-43.28,2-62.54-1.77-15.53,1-26.18-1.34-55.22-.78-9.67-2.38-5-1.92-29.56.36-18.87,1.42-35.51,1.42-35.51-2.48-7.11,1.56-12.51,4.3-18.42,6.93-15,24.23-13.65,38.05-14,49.34-1.26,100.71-3.54,150.76,0,81.72,5.75,125.53-3.46,285.19,5.71,182,10.45,106-4.54,275.55,3.27,56.29,2.59,69.07-9.22,214.26-1.78,41.93,2.14,84-3.79,126.06-3.75,137.49.15,334.54,9.51,397.86,2.7,45.69-4.91,91.73-1.75,137.44,1.11,31.62,2,66.66-4,96.89,8.51,24.67,10.2,34.11,34.43,36.38,59.4,1.15,12.67.77,25.42.29,38.1q-1.57,42.39-1.51,84.82c.25,79.61-8.74,158.86-10.49,238.41-1.69,76.74,3.3,153,1.73,229.93-.48,23.54,0,47.09.88,70.62.79,21.7,3.24,43.57.39,64.91-4.57,34.16,4.88,69.41,2.16,103.74-1.55,19.64-.47,39.81-.34,59.48.18,28.62.34,57.33,2.1,85.9,1,16.26-1.48,32.65-.29,48.81,1.11,15.12.82,30.86.92,46.13.27,36.91,2.91,74.74,2.9,112,0,34.61-.3,68.78.69,103.46a604.89,604.89,0,0,1-2.34,70.46c-1.23,13.93-.12,28.39-.15,42.42-.07,34.84-.67,69.69-1.09,104.53-.35,28.93-1,58,0,86.88.44,11.79,5.43,64.12,5.43,64.12,14.59,404.46,7.27,283.74,6,440.46-.38,47.83-3.39,96.57-3.57,144.77-.05,12.47.08,24.93.5,37.39.34,10-1.81,19.17-1.62,29.27.47,24.86,1.4,49.74.32,74.61-3.75,89,0,177.48,2,266.3.8,35.71-1.86,71.83-13.58,105.81-3.42,9.92-12,13.76-21.78,16.91-23.34,7.5-49.26,7.9-73.53,8.47-36.6.85-73.25-.27-109.84-1.13C1759,3085.61,1714.39,3084.62,1669.78,3084.92ZM2028.9,1221.73c5.39-1.79,13-.23,18.59-.25,2.91,0,45.88,1.83,45.69-1.34.58,9.69,1,18.75-1.59,29.37-.89,3.63-22,4.49-25.75,4.89-10.3,1.1-20.65,1-30.36-3.12-6.26-2.67-6.86-5.39-6.82-12.66C2028.67,1237.34,2029.44,1221.55,2028.9,1221.73Zm2.52,167.65s30.41,4.95,44.52,3.75c4.87-.41,9.45-3.59,15.06-1.5,2.43,5.75,1.2,11.79.91,18.34-17.24,10.8-49.43,6.81-59.78-2.36-2.42-2.14-.59-4.92-.34-7.53C2032.11,1396.78,2031.61,1393.39,2031.42,1389.38Zm11.31-40.81c15.18,1.81,25.67,6,40.85-1.14,2.76-1.31,4.27-.57,6.65-.11,1.54,11.09,1.57,5,.53,22.6,0,.6-16.55,4.32-18.32,4.73-6.22,1.42-12.22,1-18.63.86-4.88-.13-9.94-.3-14.3-2.5C2029.3,1367.83,2029,1346.94,2042.73,1348.57Zm39.07-17.14c-11.7,2.32-23.81,3.84-35.52,1.56a19.5,19.5,0,0,1-8-3.07c-4.64-3.46-6.12-11.68-4.29-17a3.88,3.88,0,0,1,.91-1.57c4.46-4.14,17.12,0,22.16.89a102.29,102.29,0,0,0,34.78-.88C2092.85,1321.72,2094.6,1328.88,2081.8,1331.43Zm9.84-42.75c-1.14,8-51,2.75-58.93-.33-3-1.17-3-7.32-2.78-9.83.28-2.94.87-4.68,2-5.76s3.33-1.54,6.47-1.79c17.82-1.42,34.27,3.13,52.08-.6C2093.8,1276.76,2092.48,1282.77,2091.64,1288.68Zm-61.89,158.14c.34-4.81,1-10.6,3.45-13.87,2.13-2.79,5.63-3.75,11.5-.7,16.16,8.38,34.45-2.74,49.12.5,2.38.53,1.92,13,1.75,14.58a13.21,13.21,0,0,1-2.53,7.19c-2.91,3.49-11.22,2.52-15.4,2.54-14,0-31.54-1.28-44.82-5.8a4.56,4.56,0,0,1-2.78-1.9A4.75,4.75,0,0,1,2029.75,1446.82ZM2088,1494c-15.47,3.29-31.81,4-46.13-3.75-5.46-3-9.36-5.44-9.87-11.75-1.19-14.67,13.37-9.29,22.43-7.7,12.28,2.15,25.49.55,37.79-.59C2096.61,1477.32,2097.91,1491.85,2088,1494Zm-55.35,15.61c4.78-8.62,23.14-3.66,30.62-2.39,9.48,1.61,25.41-2.85,31.27,7.25,2.41,4.16,3,12.82,2.24,17.43-1.33,7.88-9.14,8.31-16.64,8.63-11.22.48-36.4,5.15-45.68-3.63C2028.91,1531.6,2029.18,1515.81,2032.65,1509.56Zm63.58,138.61c-13.1,12.89-43.38,9.23-59.26,5.89-5.75-1.21-3.64-2.92-3.57-6.48s1.19-8.65,1.42-12.69c.18-3.44.67-5.54,1.7-6.74,1.56-1.82,4.37-1.58,9.24-.82,16.93,2.65,32.36.45,48.6-4.85C2101.14,1631,2097.16,1639.63,2096.23,1648.17Zm-19.31-74.78c-13.79,1.59-23.88,1.22-36.69-3.91-12-4.81-5.46-13.16,3.74-14.76,11.21-2,22.61,1.23,33.85,1.16,6.54-.05,18.39-3,18.91,6.41C2097.31,1572.66,2084.51,1572.52,2076.92,1573.39Zm-44.27,16.49c.25-.24.51-.48.79-.7,5.2-4.08,15.92-1.17,22-.45,10.93,1.28,21.1.74,32,.5,4.89-.11,4.33-1.16,7,3.51,2.12,3.71,2.88,9.09,0,12.29-5.49,6.06-24,6.22-31.48,6.43-10,.28-21.87-.72-29.52-8C2029.69,1599.91,2029,1593.58,2032.65,1589.88Zm58.94,728.61c-3.09,4.2-12.41,5.05-17.35,6-8.06,1.46-16.39-.61-24.51-.1a5,5,0,0,1-2.15-.17,4.61,4.61,0,0,1-2.28-2.76c-2-4.92-3.51-14.89,1-19.07a15.58,15.58,0,0,1,1.63-1.31c10.52-7.29,29.36-.36,40.86-1.76C2092.78,2298.79,2093.29,2316.17,2091.59,2318.49Zm0,38.38c-.4,1.29-13.87,4.34-15.8,4.84-7,1.82-14.57,1.27-21.64-.32-2.72-.61-5.49-1.48-7.52-3.38-4.57-4.29-5-10.2-1.84-14.1a10.52,10.52,0,0,1,5.16-3.42c10.39-3.24,23.38,0,34.13-.58C2091.72,2339.49,2093.62,2350.49,2091.61,2356.87Zm-.59-81.4c-7.35,9.54-28.93,7.35-39.6,7.33-2.48,0-5.32-.23-6.81-2.21-1.06-1.42-1.11-3.33-1.1-5.1,0-6.21.32-10.73,2-13.87,2.07-3.95,6.25-5.74,14.61-6,9.62-.33,19.27,2.23,28.83,1.68C2097.61,2256.78,2094,2271.61,2091,2275.47Zm-39-89.68c3.34-.55,40.59.95,40.42-.18.83,5.53.6,11.71-4.64,15.08-3,1.93-6.61,2.54-10.15,2.88-7.74.74-17.56,1.21-25.16-.18a9.72,9.72,0,0,1-4.64-2,10,10,0,0,1-2.75-3.65A8.75,8.75,0,0,1,2052,2185.79Zm35.07,53.31a64.82,64.82,0,0,1-30.94,2.11,15.7,15.7,0,0,1-5.42-1.72c-3-1.75-7.56-13.77-3.7-16.33,1.16-.77,1.76-1.5,2.41-1.54,38.37-2.43,19.94-.71,40.61-3.06,3.82,2.72,3.88,6.33,4.26,9.7C2095,2235,2093.52,2237.11,2087.07,2239.1Zm-40.58-115.21c-3.24-2.66-1.45-9-.92-13.49,38.81,1.52,28.56,1.89,50.21-1.9.44,10.59.69,6.15-.73,16.63C2085.32,2129.4,2066.62,2140.36,2046.49,2123.89Zm48-35.79a7.37,7.37,0,0,1-2,2.9,17,17,0,0,1-6.85,3c-12.13,3-38.81,6.82-42.41-10.27-2-9.68-1.53-17.31,9.64-16.34,14.06,1.23,28.42,1.77,42.41.24C2096.69,2073.92,2097,2082,2094.47,2088.1Zm-52.78,405.68c8.65,5.31,18.95,6.88,28.9,7.5,2.38.15,29,1.44,29-2.19-.14,9.68,3.64,24.4-8.41,27.56-12.62,3.31-29.15-.37-41.15-4.63-6.18-2.19-9.31-2.41-10.06-8.53C2039.61,2510.53,2044.07,2495.35,2041.69,2493.78Zm57.25,67.14c-12.83,5.1-26.05,4.28-39.5,3.38-8.08-.54-16.43.42-17.68-9.73-.66-5.35-.09-10.86-.87-16.19.36,2,22.76,2.26,24.87,2.38,4.84.29,9.68.4,14.52.7,4.59.28,14.65-1.82,18,1.57C2102.66,2547.51,2100.17,2555.92,2098.94,2560.92Zm.7,19.83c-.16,2.87-.16,5.77-.2,8.65-.35.31-.81,1-1.43,1.22a144,144,0,0,1-19.8,6.24c-8.09,1.78-16.32-.77-24.58-2.19-5.59-1-15.1-4.5-11.15-11.77,2.39-4.39,8.16-4.2,13.28-3.45,2.26.32,4.38.75,6,1C2074.3,2581.84,2087.78,2578.15,2099.64,2580.75Zm-58.78,25.45c-.27,3.25,25.63,5.68,28.39,5.7,1.72,0,3.45,0,5.19-.11,7.49-.34,15.13-1.35,22.52-2.05,4.33,7.06,2.35,14.09,1.69,21.1-.42,4.44-22.41,4.18-25.34,4-9.76-.58-19.66-2.21-28.63-6.29a10.7,10.7,0,0,1-3.52-2.23C2036.86,2621.8,2040.41,2611.63,2040.86,2606.2Zm57.79,62.83c-9.7,3-25.8,14.71-55.42-3.06-.56-6.67-4.69-13.52.34-20.95,18.73,14.18,43.92,4.79,55.46,5C2099.76,2656.43,2100.47,2662.4,2098.65,2669ZM2042,1885.68c-8.7-3.3-9.12-15.44-8.69-23.24-.1,1.82,32.23,1,34.74.94,5.6-.13,12.08-1.3,17.63-.55,7.39,1,9.09,6.45,8.82,13.07a12.93,12.93,0,0,1-1.12,4.9C2086.61,1895.36,2052.1,1889.53,2042,1885.68Zm49,38.61c-17.49,8.39-28.39,7.86-54.2-2.57-1.32-7.23-2.13-13.6-1.46-21,7.71.15,15.85,3.18,23.62,4.21,2.54.34,32.57,2.93,32.23-.08C2092,1911.92,2091.06,1918.23,2091,1924.29Zm-51.88,19.49c4.71-2.86,12.94-2.31,17.41-2,2.52.2,33.47,3.74,33.27,3.27,2.68,6.52,2.11,12.85,1.69,18.88-.68,9.69-42.8,2.71-47.47,2.23-2.18-.22-4.46-.51-6.24-1.78C2032.16,1960.46,2033.48,1947.18,2039.08,1943.78Zm51.08,41.75c-.89,6.51-1.65,12-2.43,17.66-13,8.29-61.92,12.92-46.83-19.65C2058.48,1986,2046.1,1991.82,2090.16,1985.53ZM2044,2025c3.62-1.06,45.94.7,45.83-1,.43,6.83,3.09,13,1.07,20.53-1.11,4.14-22.87,7.64-27.26,7.7-7.47.1-18-1-23.21-6.71C2034.2,2038.86,2034.19,2027.85,2044,2025Zm50.66-302.67a9.17,9.17,0,0,1-1.34,4.05c-1.69,2.31-4.95,2.63-7.8,2.74l-27.82,1.12c-6.51.26-13.16.51-19.42-1.3a9.16,9.16,0,0,1-5.47-4.5c-3.16-5.58-2.31-14.54,1.29-19,2.54-3.18,19.7,1.59,23.08,1.94,7.58.79,36.1-3.71,38.34,2.9C2096.52,1713.31,2095.07,1719.19,2094.61,1722.34Zm-1,23.16c1,9.07.88,17.68-8.92,20.73-6.46,2-14,2.49-21.58,2.28-6.31-.19-12.59-.86-18.16-1.54-6.42-.78-18.12-12.67-9.42-18.2,2-1.27,4.47-1.34,6.82-1.37C2046.73,1747.35,2094.35,1752.17,2093.6,1745.5Zm-61.06,39c2-2.65,5.5-3.55,9.57-3.58,7.12-.05,15.87,2.56,20.65,3.1,10.22,1.15,19.81-.29,30-1.39,3,4.85.09,10.59,1.45,17s-20.74,9-24.08,9.16c-10.6.59-25.3,1.23-33.92-6.21C2031.66,1798.65,2028.64,1789.74,2032.54,1784.47Zm4,36.41c5.16-1.48,15.45,3.59,20.83,4.3,12.1,1.6,23.91-1.17,35.84-.12.35,6.28.67,12,1,17.6-8.54,5-17.39,6.61-26.65,6.53-9.41-.08-26.66.92-33-8.14C2030.94,1835.88,2029.38,1822.94,2036.57,1820.88Zm15.2,907.58c5.34-9.46,21.8-1.94,31.78-3.27a81.7,81.7,0,0,1,15-.81c2.37,6.51,1.82,12.56,1.11,19-10.64,7.06-53.87,12.38-49.26-11.14A12.61,12.61,0,0,1,2051.77,2728.46Zm47.35-22.7c-19.76,1.67-36.56,4.07-55.83-3a5.55,5.55,0,0,1-2.72-1.7,5.48,5.48,0,0,1-.77-2.76c-1.26-15.23,11.92-8,22.21-6.44,12.88,2,26.28,2.36,38.78-1.84.53,13.17.77,9-.38,14.86C2099.75,2705.35,2099.45,2705.74,2099.12,2705.76Zm.06-224.71c-.53,4.15-44.8.42-49.41-.2-3.74-.51-8.15-1.52-9.5-5a10.66,10.66,0,0,1-.19-5.18c.67-5.15.53-9,4.65-12.85a5.5,5.5,0,0,1,1.9-1.18c6.55-2.36,21.33,2.17,28.42,2.83,8.86.81,17.72,1.57,26.58,2.5C2100.79,2468.49,2100,2474.43,2099.18,2481.05ZM2040,2163.76c-.49-7.62-2.86-26.51,10.42-19.83,9.15,4.6,14,6.41,24.07,5.65,1.49-.11,18-1.33,17.41-3.49,1.72,6.13,2.94,11.61,1.76,17.39-4.54,13-39,6.74-48.38,6.33a6.44,6.44,0,0,1-3.19-.71C2040.44,2168,2040.14,2165.75,2040,2163.76Zm6.22,212.67c2.51-1.18,5.42-1,8.19-.81,3.13.23,42.11,1.82,42.16-1.13.52,5.74,3.94,17.36,2.14,22.73-2.42,7.19-18.07,7.82-24.31,8.21a64.65,64.65,0,0,1-27.72-4.77C2040.52,2398.18,2039.62,2379.57,2046.24,2376.43Zm-5.54-688.76c-6.12-2.56-14.46-15.43-5.15-18.46,4.15-1.35,16.74,3,21.57,3.52a172.83,172.83,0,0,0,20.8.94c3.69-.1,16.17-4.45,19-2.5,3.51,2.43,3.22,5.41,2.53,8.51C2095.79,1696.1,2056.24,1694.17,2040.7,1687.67Zm46.08-575.5c-34.23,5.75-46.18-.34-55.8-2.69-4-19.58,43.15,3.15,60.76-6.77,3.74-2.11,7-.33,7.39,2.39C2099.91,1110.65,2092.91,1111.15,2086.78,1112.17Zm9.15,21.66c3.34,28.7-37.18,27.14-65.39,18-.2-1.92-3.06-18.59-1.77-18.59C2051.11,1133.19,2073.6,1132.86,2095.93,1133.83Zm-64.62,41a6.49,6.49,0,0,1,3.76-2.28c5.35-1.15,14.61,2.34,20.36,2.57,8.52.33,25.06,1.38,32.74-3.12,2.38-1.4,5.52.49,6.3,3.3,3.7,13.37-.38,26.84-14.53,29.63-14,2.75-28.37,1.1-42.44-.94C2027.78,1202.58,2025.42,1182,2031.31,1174.83Zm64.27,1590.51c7.07-2.24,6.33,4.66,6.27,12.27a8.51,8.51,0,0,1-.89,2.45c-7.52,3.14-24.66.68-32.66-1.08-14.45-3.19-27.27-10.45-6.42-15.31C2072.79,2761.13,2084.33,2768.89,2095.58,2765.34ZM2049,2441.29c-6.8-3.47-11.65-10.71-6.58-18.11,4.32-6.3,13.39-2.29,20.23-.9,13.6,2.75,24.54,1.09,37.72-2.19,2.7,8,2,15.56,2,23.47C2087.74,2449.07,2062.9,2448.39,2049,2441.29Zm52.84-1365.42c-8.83,11.08-35.08,15.13-67.89,6-4.19-1.17-6-3.88-6.15-8.5-.27-6.7-1.32-13,6.41-15.41,8.63-2.64,18.06-.77,26.89-1l1.59,0c12.53-.28,25.63.46,37.91-1.54C2103.44,1062.65,2101,1069.53,2101.81,1075.87Zm-274.3,2056.07c1,42.68-.49,40.58-2,50.22L1812,3182c.47,0-2.39-56.93-2.88-60.91-.3-2.47-3.35-14.46,1.14-16.09,5.63-2.05,11.52,0,17.94.17C1829.41,3120.08,1827,3108.87,1827.51,3131.94Zm42,53.22c-8.26-2.18-15.19.23-21.47-1.79-.72-1.23-1.42-1.86-1.43-2.5-.52-69.06-7.81-79.17,13.53-75.3C1884,3142.05,1868.4,3163.94,1869.55,3185.16Zm53.42,1a63.14,63.14,0,0,1-28.35.15c-4-11.25-3.86-21.15-2.49-31.13,1.27-9.21-5.54-40.24-6.56-48.38l24.65.36c16,.24,14.72,55.15,15.88,64.16C1926.7,3175.91,1924.17,3180.91,1923,3186.15Zm42.22-4.47-19.74,3.55a381,381,0,0,0-14.8-79c16.44-2.84,18.24-3,22.1,6.7C1964.65,3142.89,1972.19,3160.92,1965.19,3181.68Zm24.6-3.43c-9-33.28,4.61-12.22-20.48-72.92-2.43-5.87,5.23-8.13,7.16-4.13,5.41,11.2,3.27.17,21.25,73.21Zm27.75-12.39a6.06,6.06,0,0,1-2.19-.87c-6.89-4.58-7.42-23.21-9.64-30.5-2.57-8.42-6-18.8-5-27.74,2.15,3.4,40.82,47.24,42.18,46.18C2038,3156.76,2025.12,3167.34,2017.54,3165.86Zm-3-68.71c-.87-1.13-1.29-2.62-2.44-5,2.38.17,3.88-.13,5,.41,4.44,2.22,9,4.32,13,7.17,5,3.51,30.68,24.63,31.92,30.71C2048.58,3147,2031.13,3118.61,2014.52,3097.15Zm56.79,10.59c-7.25,0-38.52-25.79-44.19-30.36-1.89-1.53-3.55-4.82-1.71-7,2.57-3.07,7.89.14,10.78,1.07a143,143,0,0,0,24.29,6c1.81.25,20.62,2.25,21.07,1C2077.71,3089.36,2074.52,3098.54,2071.31,3107.74Zm8.43-52.55c-8.77,9.44-24.49,3.15-39.18-1.05a16.53,16.53,0,0,1-6.41-2.93c-6.66-5.75-3.06-19.28,5.82-18.86,14.32.68,31.5,13.11,45.51,10C2084.31,3048.27,2082.33,3052.41,2079.74,3055.19Zm8.51-36.49c-.71,3.46-3.73,4.57-7.05,4.85-19,1.59-32.93-7.49-44.36-13.09.83-5.45,1.42-11,2.6-16.4,12.88,1.14,26.64,4.12,39.44,1.14,5.67-1.33,7.34-3.81,10.23,2.29S2089.52,3012.5,2088.25,3018.7Zm6-48.83c-.09,2.78-9.34,7.67-11.65,8.33-3.94,1.14-9.32.72-13.4.72-9.85,0-20.22-1.2-29-6.1,0,0,.29-19.21.29-19.26.06-4.17,17.89,1.24,20,1.76,2.81.7,34.59,1.34,34-.45C2096.21,2960.06,2094.4,2964.9,2094.24,2969.87Zm3.26-39.11c-.35,6.36-23.32,7.26-27.38,7a91.51,91.51,0,0,1-23.8-5.45c-6.21-2.25-9.29-5.65-9.62-12.83-.26-5.74,2.23-10.78,8.77-8.52,17,5.9,36.94,3.53,50.85,3.74C2099.19,2919.84,2097.81,2925.15,2097.5,2930.76Zm.55-38.54c-27.14,9.26-44.69,2.82-63.21-7.14-4.14-6.11-4.08-11.85-.75-15,2.11-2,5.52-3,10-2.44C2096.87,2874.33,2100.05,2870.69,2098.05,2892.22Zm2.25-37.59c-15.59,1.77-37.39-.2-52.22-5.33-8.43-2.91-17.62-5.1-2.52-9.73,3.41-1,10.08.69,13.7.86,13.73.64,27.54.25,41.26-.43Zm2-31.17c-.32,3.1-35.54.62-38.72.43-12.76-.78-37.55-13-18.34-28.93,6.12-5,8.81-.1,16.42,2,2.9.8,38.7,3.17,38.92,4C2104,2814.64,2103.56,2808.68,2102.27,2823.46Zm.42-1791.76c-7.35,7.33-42.67,16.7-74,7.16-2.63-4.21-.47-11.73-.64-16.55s-.72-10.53,5.42-11.93c4.27-1,10.29-.76,14.72-.61a48.85,48.85,0,0,1,7.3,1.61c8.6,2.06,19.36,1.75,28,0,1.81-.35,21.17-5.26,20.91-2C2103.77,1017.82,2103.21,1025,2102.69,1031.7Zm2.26-43.35c-1.15.62-1.8,1.27-2.48,1.3-25.81,1.4-35.49,13.77-63.09,3.25-13.27-5.06-11.9-7.55-11.41-24.92.16-5.54,3-7.53,8.41-5.89,36,10.94,52.9,4.64,71.12,4.91C2108.11,975.5,2107.36,982.21,2105,988.35Zm-4.59-38.57a128.83,128.83,0,0,1-16,1.51c-16.26.57-33.41-1.36-48.66-3.62-7-1-13.23-12.6-8.37-19.17s19.39-.74,25.36.73a82.83,82.83,0,0,0,30.84,1.58c1.67-.26,25.48-7.35,25.46-5.5C2108.87,935.08,2112.34,947.82,2100.36,949.78Z"/><path class="cls-1" d="M1874,2148.27c-4.44-7.91-15.82-17.07-19.66-21.31-10.09-11.16-20.79-21.75-31.5-32.32-9-8.84-18.29-17.3-27.65-25.7-4.74-4.26-19.5-22.48-25.41-22.91,13.34,1,23.72-7.72,37.23-8.14a22.93,22.93,0,0,0,7.34-1.69c10.61-4,21.2-8.08,31.7-12.38,4.39-1.8,6.59-5.63,7.67-10.18,3.61-15.24-64.1-9.31-72.71-12.52-15.64-5.83.77-23.19,8.3-30.88,11.15-11.38,19.47-25.18,30.38-36.81,4.42-4.71,10.27-9.1,10.5-16.15.18-5.88-9.12-10.51-14.34-9.66-3.24.52-6,2.56-8.57,4.64-28.31,23.14-54.35,48.88-83.57,70.78-6,4.48-7.51-16.87-8.12-20.56-1.55-9.29-2.73-18.64-3.8-28-.79-6.93-2.07-30.39-12.25-31.09-7.63-.52-9,16.56-9.85,21.69-2.83,18.09-2.4,38.68-8.19,56-8.21-2.56-17.86-11.25-25.6-15.67q-14.09-8-27.45-17.3c-14.54-10.06-29.88-17.89-44.85-27.35-6.17-3.9-25-21.24-32.1-13.5-8.47,9.19,5.68,16.67,11.24,22.11,7.53,7.37,14.4,15.4,21.44,23.23C1603.43,1974,1626.8,1993,1646,2015c6.37,7.26,10.46,15.61-1.9,17.47-21.79,3.36-44,8.76-65.54,13.8-5.68,1.33-30.52,4.59-21.11,16.69a8,8,0,0,0,6.66,2.93q22.47-.39,44.94-.83c9-.17,17.94.3,26.87,1,11.78.95,11.3,5,3.49,13.56-12.63,13.79-24.94,27.87-36.15,42.82-4,5.4-14.4,16.6-12.39,24.07,4.47,16.52,32.57-10.38,37.51-14.9,11.27-10.33,22.78-20.46,33.4-31.49,7.12-7.4,17.93-27.16,27.29-11.93,15.2,24.73,24.41,51.54,36.28,77.75,2.23,4.93,14.15,27.61,19.3,15.4a19,19,0,0,0,1.06-7.39c0-16-1.94-32.33-4.31-48.18-.26-1.76-4.19-43.37.94-40,35.23,22.89,68.5,47.6,105.46,67.5,5.55,3,11.1,6,16.71,8.87,2.57,1.33,6.21.28,8.47-2.32a17.68,17.68,0,0,0,2.13-3.09C1876.46,2154.32,1875.79,2151.39,1874,2148.27Zm-78.72-205,.09-1.13C1796.79,1942.54,1796.74,1942.92,1795.32,1943.29Zm-172.14,174.4a9.37,9.37,0,0,1-.4-.85l1,1.28C1623.56,2118,1623.29,2117.88,1623.18,2117.69Zm211.93,13.39c-12.48-7.39-25-14.69-37.3-22.29-16.14-10-32.2-19.55-46.75-31.41-9.54-7.8-19.07-8.48-19.75,6.11a212.59,212.59,0,0,0,2.15,40.88c.65,4.38-.09,31.6,1.74,33.24-13.89-12.44-16.34-38.8-26.77-54.51-6.32-9.54-10.83-27.15-22.06-32.47-11.06-5.24-20.33,8.93-26.82,15.3s-12.49,12.94-18.76,19.39c-5.28,5.43-31.86,35.71-37.62,32.41,6.73-12,19-20.57,28.19-30.45,10.43-11.19,20.13-22.2,27.33-35.85,1.76-3.33,2.27-7.56.34-10.79-6.83-11.41-37.84-3.88-48.37-3.88-6.87.3-17.45,2.76-23.5-.36,21.94-11.23,49.5-2.57,71.35-15.57,16.46-9.79,1.65-27.25-7-37-13.72-15.39-28.94-29.35-44-43.39-13.42-12.5-26.13-27-40.85-37.93,12.44,4.45,22.44,13.63,33.18,21,12.21,8.37,24,17.41,36.19,25.75,13,8.85,29.8,23.24,46.26,23.9,16.62.67,13.22-22.14,16-34.13a1.65,1.65,0,0,1,1.34-.91c1.12.21,3,.49,3.16,1.14,2.94,10.25,1.72,28.5,8,37.09,9.23,12.51,36-13.19,42.47-18.93a215.05,215.05,0,0,0,20.08-20c10.65-12.26,24.62-21.7,37.57-31.76-6.73,13.31-74,67.62-51.38,83.41,2.75,1.92,6.19,2.52,9.5,3a388.63,388.63,0,0,0,68.33,4.31c.24,1.76-1.89,2.78-3.61,3.2-10,2.46-20.3,3.07-30.31,5.31-7,1.56-60.49,10.74-45.81,25.28,16.09,15.91,33.6,32.2,50.63,47.83,8.8,8.08,17.64,16.13,26.43,24.21,2.31,2.12,18.83,20.79,21.79,19.83-1.8.58-3.69-.44-5.31-1.42Q1843.17,2135.83,1835.11,2131.08Z"/><path class="cls-1" d="M601,2294.19c3.52,10.36,21.57,1,28-2.09,25.86-12.67,49-29.28,75-41.89,4.06-2,10.46-7.48,15-5.44,4.3,1.93,5.62,10,6.86,13.92,2.58,8.15,3.74,16.67,6.2,24.85,1.77,5.9,10.62,27.82,18.52,14.71,5.15-8.53,4.32-25.16,5.51-35,1.32-10.9,2-22.39,4.88-33,12.75.47,22.85,11.81,31.45,19.87,19.46,18.25,37.7,37.62,57.61,55.52,5.75,5.17,32.39,36,39.35,18,2.29-5.94-3.62-12.62-6.93-16.93-7.74-10.09-15.55-20.14-22.86-30.54-13.17-18.73-25.3-38.21-41.42-54.71-4.87-5-8.65-10.72-9.47-17.92,1.2-.85,2.29-2.17,3.62-2.47,14.84-3.36,28.58-10.43,43.71-12.88a110.57,110.57,0,0,0,13.3-3.45c4.8-1.42,6.94-9.67,3.51-13.46a31.43,31.43,0,0,0-5-4.59c-12.62-8.92-26.68-14.59-41.59-18.37-.92-.24-1.57-2.11-2-3.33-.17-.48.42-1.47.94-1.91a31.46,31.46,0,0,1,5.45-4.16c9.45-5,19.29-9.26,28.41-14.76s17.54-12.15,26.27-18.3c6.22-4.38,12.71-8.44,18.64-13.2,9.76-7.85,27.58-17.55,30.25-31,6.85-34.41-55.36,6.22-62.33,9.69-7.47,3.71-14.81,7.57-21.68,12.62-8.54,6.27-18.29,11-27.77,15.87-10.16,5.24-21.08,8.84-31.19,14.32-4.54,2.46-10.12,3.07-15.29,4.26-2.52.58-6.65-1.87-7.58-4.17-1.42-3.54-3.15-7-4-10.71-1.8-7.51-7.29-59.4-22.4-44-5.33,5.44-4.65,11.58-6,18.38-3.33,16.36-5.93,31.6-5.72,48.2,0,.68-.1,1.52-.74,1.75s-1.06-.15-1.5-.47c-13.82-10.07-24.67-23.52-37.37-35.08-14.34-13-29.58-24.9-44.68-37-10.85-8.43-22.28-16.12-33.52-24-1.17-.83-2.85-.93-4.28-1.4-2.42-.79-6.5,2.39-6.35,5.09.14,2.26-.07,4.8.89,6.7a114.85,114.85,0,0,0,8.19,13.75c18.67,26.7,39.77,52.07,59.61,77.91,3.86,5,15.37,15.57,13,22.5A2.34,2.34,0,0,1,682,2157c-14.88,6.68-31.36,8.41-47.41,10-9.84,1-38.88-.48-43.22,11.05-5.14,13.64,63,24,72.39,25.9.92.19,24,5.27,16.89,10.75-8.46,6.47-17.12,12.67-25.45,19.31-11.89,9.49-23.8,19.22-35.3,29.17-7.26,6.28-21.81,18.56-19.16,30.07C600.81,2293.58,600.9,2293.89,601,2294.19Zm18.22-7.13.23-.15a3.56,3.56,0,0,1-.13.39C619.29,2287.21,619.25,2287.14,619.22,2287.06Zm1.68-10.77c4.55-4.06,10.08-7.67,13.24-10.18,12.32-9.75,24.22-20.26,37.36-28.61,12.46-7.91,20.82-14.94,28.3-27.57,1.69-2.85,3-6.82.73-9.21a8.1,8.1,0,0,0-3.66-1.81,351.07,351.07,0,0,0-70.22-12.68c-6.35-.45-13.06-.68-18.45-4.08,26.56-3.36,52.19-4.42,78.43-10.26,10-2.22,16.69-3.06,15.22-14.75-1.54-12.21-17.34-23.71-25.13-32.83q-16.25-19-31.39-39c-7.62-10-15.91-18.65-22.29-29.72,2.31-.57,4.58.94,6.47,2.4,13.54,10.44,26.08,22.8,38.51,34.59,11.25,10.69,22.22,21.83,33.84,32.12,5.83,5.16,20.76,24.19,30.45,19.69,8.36-3.88,9.19-17.07,9.66-25,.81-13.5.08-26.74,2.32-40.27,1.83-.75,3.12,1.85,3.36,3.81,1.6,13.12,4.3,42.16,16.3,50.41,8,5.49,21-3.46,28.39-6.63,12.66-5.45,25-11.63,37.18-18.08,24.44-12.94,48.25-27.09,73.12-39.21,4.2-2,8.33-6.14,12.91-7.21,8.5-2,5.13,2.36.14,6.39a446.17,446.17,0,0,1-58,39.2c-10.21,5.88-20.56,11.7-31.07,17-8.22,4.16-16.87,7.06-22.06,15.34-9.43,15,19.07,21.84,28.33,24.25,4,1.05,8.17,2.93,12.25,3.36s9,2.75,6.21,7.69c-1.45,2.53-7.21,2.69-9.63,3.36l-26,7.19c-6.53,1.8-13.23,3.69-18.62,7.8-9.75,7.43-9.66,16.7-2.48,25.2q18.48,21.85,37,43.67c7.29,8.62,16.2,15.58,22.72,24.88,6.63,9.46,16.49,16.48,22.38,26.76-23.48-16.42-41.08-39.71-61-60.07-12.8-13.09-24.2-26.13-41.21-33.77a26.56,26.56,0,0,0-9.68-2.61c-21.23-.9-16.38,21.37-17.69,34.6-.2,2.1-4,29.45-4,29.44-.39-.17-.5-.65-.55-1.07-1.81-13.1-6.12-25.53-8.66-38.46-2.33-11.78-7.89-15.34-20.56-10.37-10.29,4-18.15,11.68-28.08,15.95a254.65,254.65,0,0,0-35.06,18.63c-5.82,3.67-11.29,7.92-17.12,11.57s-12.49,9.11-19.69,9.32C613.71,2283.73,616.94,2279.84,620.9,2276.29Z"/><path class="cls-1" d="M1623.22,2769.94c1.15-6.18-1.89-11.05-5-15.79a612.43,612.43,0,0,0-46.22-61.79c-10.87-12.92-27.4-24.32-33.25-40.76-6.86-19.26,13.81-13.09,24.12-8.34,35.42,16.36,57.4,46.39,88.07,68.5,3.78,2.72,22.12,21.57,25.77,11.37q7.21-20.19,13.57-40.67c2.87-9.17,5.53-30.1,15.71-33.91,17-6.37,23.88,38.2,25.62,49.65.86,5.66,1.39,11.38,2.42,17a25.09,25.09,0,0,0,2.85,8c4.85,8.28,43.61-10,51.52-13,34.67-13,66.72-41.3,103.32-47.94,18.78-3.41,41.51,6.35,22.86,25-11.65,11.63-28.58,16.52-43.09,23.43-18.22,8.7-34.4,20.14-50.28,32.2-10.64,8.08-21.63,15.83-31.56,24.79-16.21,14.63,8.48,12.09,17.94,12.66,15.18.92,30.35,2,45.49,3.52,6.36.62,19,2.14,21.81,9.13,6.92,17.37-21,23.44-32.31,25.82-9,1.89-18.11,3-27.22,4.12-10.18,1.25-18,2.29-13.4,15.63a366,366,0,0,0,29.37,63.24c8.69,14.8,16.18,30.3,24.11,45.54.86,1.66,1.73,3.67,1.57,5.42a18.48,18.48,0,0,1-2.32,7.83c-1.84,2.95-7.76,4.18-10.33,2.71s-5.22-2.64-7.13-4.63c-21.82-22.7-44.26-44.81-64.34-69.15-6-7.31-13.1-13.78-20-20.37-.73-.71-4.38-.07-4.68.71a171.43,171.43,0,0,0-7.79,26.82c-1.51,7.53-.7,16.89-5.25,23.34-8.56,12.12-20.55,2.52-24.77-8-4.83-12-4.63-25.31-8.6-37.53-1.79-5.5-4.81-11.76-10.53-12.63-3-.45-6,.8-8.76,2.14-17.41,8.54-34.12,19.23-51.41,28.24-4.22,2.21-8.77,4.11-12.41,7.07-14.31,11.66-31.28,18.36-47.8,25.7-14.77,6.57-30,11.77-42.65,22.59-6.83,5.83-16.21,5-24.82,3.59-1.3-.21-2.75-2.59-3.16-4.21s-.38-4.32.66-5.38c3.93-4.06,8.76-7.28,12.53-11.47,20.46-22.74,45.6-40.45,66.82-62.38,3.24-3.35,7.8-5.4,11.52-8.33,7.49-5.9,15.16-11.63,22.06-18.15,3-2.89,7.89-6.28,5.12-11.93-2.06-4.2-6.42-3.38-10.1-3.53-23.81-.95-47.64-1.75-71.45-2.75-16.89-.71-23.06-12.42-6-20,15.55-6.9,32.58-8.88,48.3-14.78C1587.05,2785.58,1621.51,2779.08,1623.22,2769.94Zm7.17-59.25c-6.77-5.24-14-10.1-20.55-15.4-18.2-14.79-35.86-30.23-53.55-45.63-1.51-1.32-3.7-2.69-5.37-1.55-2.23,1.55,37.48,47.86,40.48,51.35,7.51,8.74,15.32,17.26,22.66,26.13,7.72,9.31,15.78,19.24,18.44,30.88.51,2.23,1.13,4.55,2.67,6.25,5.7,6.31,30-1.73,34.37-7.82C1679,2741.63,1639.54,2717.75,1630.39,2710.69Zm250.37-17.37c4.92-2.56,30-12.22,28.82-18.33-2.14-11.24-65.39,21-74,26.09-19.63,11.66-41.47,17.17-62.17,26.74-8.35,3.86-28.44,10.87-29.81,21.76-.78,6.23,5,13.47,10.4,15.74,10.52,4.37,21.29-1.25,28.18-8.39,14.07-14.58,31.46-25.57,49.2-35.13C1848.32,2712.66,1863.77,2702.16,1880.76,2693.32Zm-42,112.76,1.07-.17c7.82-1.24,16.09-2.69,22.08-7.89-3.2-3.18-8.12-3.71-12.63-3.92-19.77-.95-38.26.88-57.82-1.92a157.7,157.7,0,0,1-39.45-11c-13.13-5.6-19.89-8.2-24.34-21.93-8.62-30.17-8.77-60.49-16-90.5-.29-1.23-.85-2.71-2.11-2.86s-2.09,1-2.69,2.09c-7.35,13.11-9.18,28.82-12.52,43.34-3.93,17.17-7.59,34.66-16.08,50.28-9.82,18.07-32.74,15.74-49.06,23-23.46,10.47-51,14.54-75.93,20.88-3.76,1-8.44,3.22-7.83,7.05l113,5.21c11.08.51,20.5-3.81,29.29,4.52,7.67,7.27,12,17.44,15.41,27.25,4.69,13.62,6.23,28.06,10.65,41.75,3.16,9.81,13.19,26.89,14.57,5.55.81-12.61,2.15-24.72,3.14-37.27,1-13.14,3.2-28.23,14.4-35.18,4.36-2.71,9.53-3.74,14.57-4.71C1786.48,2814.6,1812.53,2810.26,1838.71,2806.08Zm-178.1,21.22a29,29,0,0,0-6.16-.41c-6.65.66-12,5.45-16.94,10-9.75,9.08-19.27,18.27-30.19,26-13,9.14-25.39,20-37.72,30-10.74,8.73-20.67,17.31-31.91,25.65-4.89,3.64-13.9,9.07-14,15.49,0-.68,23.73-10.93,26.17-12.33,40.47-23.14,81-46.54,121.82-68.82,6.67-3.63,20.18-10.44,9.54-19.17C1678,2831.14,1667.85,2828.37,1660.61,2827.3Zm142.46,42.87q-4.85-9.14-10.06-18.2c-3.52-6.09-4.85-18.43-12-21.64-8.36-3.77-25.74,4.31-30.88,10.87a7.44,7.44,0,0,0-1.82,4.08c-.14,2.76,2.14,5,4.23,6.78,27.61,23.84,51.77,50.87,75.45,79,2.47,2.94,5.11,6,8.71,7.33-2.5-5.52-5-11-7.65-16.51C1820.37,2904.4,1812.12,2887.2,1803.07,2870.17Z"/><path class="cls-1" d="M1030.37,1586.41c1.21-9.09-3.6-16-8.44-22.64-22.06-30.51-46.46-59.07-72.17-86.55-16.85-18-41.82-33.37-51.62-56.89-11.48-27.57,19.14-20.16,34.53-14,52.92,21.11,87.29,63.22,133.72,93.11,5.71,3.68,33.92,29.76,38.46,14.6q9-30,16.66-60.36c3.48-13.59,5.74-44.33,20.3-50.67,24.34-10.6,37.77,53.88,41.19,70.45,1.68,8.19,2.9,16.48,4.83,24.61a36.56,36.56,0,0,0,4.77,11.4c7.71,11.7,62.83-18,74.14-22.91,49.56-21.58,94.13-65.37,147-77.87,27.13-6.42,61,6.06,35.26,34.67-16.1,17.85-40.41,26.29-61,37.49-25.91,14.08-48.63,32-70.86,50.83-14.89,12.6-30.32,24.75-44.11,38.59-22.51,22.57,13.29,17,27.13,17.08,22.21.17,44.43.62,66.62,1.62,9.33.42,27.92,1.66,32.51,11.65,11.42,24.8-28.84,35.79-45.14,40.13-13,3.46-26.18,5.76-39.38,8.1-14.74,2.62-26.12,4.74-18.34,23.83a534.5,534.5,0,0,0,47.7,90c13.81,20.92,25.93,42.95,38.67,64.56,1.39,2.35,2.81,5.22,2.7,7.79-.17,3.93-.9,8.23-2.77,11.6-2.47,4.43-11,6.69-14.87,4.74-3.69-1.87-7.8-3.45-10.74-6.2-33.58-31.42-68-61.94-99.16-95.89-9.36-10.2-20.17-19.1-30.67-28.18-1.13-1-6.41.24-6.78,1.4a249.38,249.38,0,0,0-9.29,39.71c-1.63,11.1.28,24.68-5.87,34.44-11.55,18.34-29.77,5.25-36.73-9.69-8-17.1-8.71-36.57-15.43-54.08-3-7.89-7.92-16.79-16.33-17.61-4.44-.43-8.71,1.62-12.61,3.8-24.73,13.78-48.28,30.66-72.8,45.14-6,3.54-12.48,6.66-17.56,11.27-20,18.11-44.2,29.17-67.73,41.15-21,10.72-42.81,19.48-60.47,36.24-9.5,9-23.25,8.53-35.92,7.14-1.91-.21-4.2-3.57-4.94-5.9s-.87-6.27.55-7.9c5.43-6.22,12.22-11.29,17.39-17.69,28.1-34.73,63.4-62.5,92.66-96.12,4.47-5.13,11-8.47,16.16-13,10.46-9.17,21.21-18.11,30.77-28.16,4.22-4.44,11-9.77,6.55-17.8-3.33-6-9.62-4.43-15-4.36-34.81.45-69.62,1.1-104.43,1.48-24.68.27-34.58-16.34-10.32-28.67,22.14-11.25,46.82-15.46,69.3-25.27C978.81,1612,1028.58,1599.88,1030.37,1586.41Zm5.9-87c-10.29-7.11-21.23-13.64-31.15-20.87-27.69-20.17-54.64-41.33-81.61-62.43-2.32-1.81-5.62-3.63-8-1.84-3.13,2.42,58.34,66.91,63,71.77,11.62,12.17,23.66,24,35.06,36.36,12,13,24.49,26.84,29.27,43.62.91,3.22,2,6.55,4.37,8.92,8.8,8.76,43.64-4.84,49.52-14.06C1109.55,1540.83,1050.15,1509.05,1036.27,1499.45Zm363.8-44.6c7-4.12,42.78-20.12,40.62-28.94-4-16.23-93.75,35.59-106,43.75-27.73,18.51-59.16,28.22-88.61,43.77-11.88,6.28-40.64,18-41.8,34-.65,9.15,8.25,19.26,16.38,22.15,15.67,5.57,31-3.45,40.45-14.39,19.4-22.36,43.92-39.71,69.06-55C1354.25,1485.56,1376,1469.05,1400.07,1454.85Zm-52.65,167.7,1.54-.33c11.32-2.43,23.27-5.17,31.6-13.21-4.91-4.4-12.13-4.79-18.72-4.75-28.91.13-55.73,4.23-84.48,1.65a230.61,230.61,0,0,1-58.38-13.05c-19.57-7.15-29.64-10.42-37.19-30.11-14.89-43.33-17.43-87.55-30.27-130.75-.53-1.78-1.46-3.89-3.3-4s-3,1.68-3.76,3.26c-9.72,19.69-11.18,42.73-14.92,64.18-4.42,25.34-8.42,51.12-19.59,74.56-12.93,27.11-46.54,25.47-69.78,37.35-33.41,17.07-73.24,25.13-109.12,36.29-5.41,1.69-12.08,5.35-10.89,10.89l165.23-1.1c16.2-.11,29.61-7.13,43.07,4.33,11.75,10,18.89,24.51,24.57,38.56,7.89,19.5,11.24,40.44,18.74,60.07,5.37,14.06,21.32,38.2,21.68,7,.22-18.45,1.23-36.22,1.71-54.59.5-19.24,2.5-41.42,18.29-52.43,6.15-4.28,13.61-6.18,20.89-8C1271.9,1639,1309.57,1630.65,1347.42,1622.55Zm-258.11,44.65a41.85,41.85,0,0,0-9-.13c-9.65,1.47-17.16,8.88-23.94,15.89-13.52,14-26.7,28.13-42,40.2-18.19,14.33-35.5,31.13-52.71,46.7-15,13.57-28.82,26.84-44.56,39.88-6.86,5.68-19.58,14.29-19.27,23.67,0-1,33.77-17.77,37.22-20,57.23-36.87,114.49-74.12,172.37-109.75,9.43-5.81,28.62-16.78,12.43-28.69C1115,1671.45,1100,1668.2,1089.31,1667.2Zm211.07,51.55q-7.77-12.95-16.08-25.76c-5.6-8.61-8.49-26.52-19.1-30.64-12.49-4.85-37.21,8.26-44.2,18.23a10.88,10.88,0,0,0-2.35,6.08c0,4,3.51,7.09,6.7,9.57,42.1,32.65,79.42,70.2,116.11,109.35,3.83,4.1,7.92,8.35,13.27,10-4.07-7.87-8.15-15.73-12.43-23.49C1328.24,1767.35,1314.89,1742.89,1300.38,1718.75Z"/><path class="cls-1" d="M382.43,2149.6c-14.58-10.77-25.62-29.62-36.23-44.09-8.1-11.05-3.93-11,9-18.39,10.49-6,18.6-15,28.38-21.93,10.22-7.19,11.32-4.08,19.28,3.13,8.76,7.93,17.59,15.8,26.67,23.36,4.6,3.84,15.45,6.49,16.36,13.59.47,3.67-2.62,6.81-5.77,8.74-10.94,6.74-22.29,13.6-31.45,22.73C398.91,2146.44,391.9,2156.59,382.43,2149.6Zm8.66-16.64c4.47.87,7.1-4.45,10.2-6.84,6.47-5,12.64-10.37,18.83-15.71.79-.69,1-2.1,1.58-3.57-1.49-1.77-2.8-4.12-4.78-5.5a114.25,114.25,0,0,1-22.41-20.09,3,3,0,0,0-1.58-1c-1.19-.25-2.81-.84-3.56-.32-6.7,4.74-18.82,8.77-22.49,16.69-5.52,11.9,10,22.38,17.24,31,1.77,2.11,3.68,4.32,6.31,5.16A5.33,5.33,0,0,0,391.09,2133Z"/><path class="cls-1" d="M879,2581.63c-10.48,14.79-29.12,26.19-43.38,37.07-10.89,8.32-10.94,4.15-18.56-8.62-6.19-10.37-15.39-18.3-22.47-27.95-7.39-10.08-4.3-11.25,2.76-19.34,7.75-8.91,15.45-17.89,22.84-27.11,3.74-4.68,6.19-15.58,13.27-16.62,3.66-.54,6.86,2.48,8.85,5.6,7,10.81,14,22,23.33,31C875.49,2565.22,885.77,2572,879,2581.63Zm-16.8-8.33c.79-4.49-4.59-7-7-10.07-5.11-6.38-10.61-12.44-16.07-18.53-.7-.78-2.12-.91-3.6-1.51-1.73,1.53-4.06,2.88-5.4,4.89a114.73,114.73,0,0,1-19.66,22.79,3,3,0,0,0-.94,1.6c-.22,1.19-.78,2.82-.24,3.56,4.86,6.62,9.13,18.65,17.11,22.17,12,5.29,22.18-10.45,30.64-17.83,2.08-1.82,4.25-3.77,5-6.41A6.29,6.29,0,0,0,862.16,2573.3Z"/><path class="cls-1" d="M1186.69,2751q1.13,0,2.25.18c30.34,3.54,24.85,33.18,8.1,49.67-6.78,6.68-14.79,9.13-24,8.74C1128.35,2807.73,1151.24,2749.39,1186.69,2751Zm-15.19,17.91c-11.66,9.76-16.9,34.4,5.52,27.95a66.15,66.15,0,0,0,8.77-3.21c8-3.64,12.46-9.95,13.53-18.75,1.69-13.78-15.71-12.71-24.26-8.37A18.28,18.28,0,0,0,1171.5,2768.94Z"/><path class="cls-1" d="M750.4,1602a25.32,25.32,0,0,1,6.35,2.9c27.7,17.52,3.66,50.84-21.31,51.69a15.61,15.61,0,0,1-8.86-2.8C698.5,1634,724.8,1594.44,750.4,1602Zm-1.83,12.13a15.82,15.82,0,0,0-2.57-.62c-9.64-1.56-24.13,7.66-23.1,18.27,1.71,17.5,25,12.81,32.32,2.43C760.76,1626.37,757.29,1617,748.57,1614.14Z"/><path class="cls-1" d="M1740.09,2371.75c-1.94-3.84-5.54-6.78-11.47-8.07-12.54-2.74-27,6-34,15.94a13.16,13.16,0,0,0-2.19,7c-.13,8,3.45,14.53,9,19.89a11.34,11.34,0,0,0,6.68,2.88,161.15,161.15,0,0,0,16.88-.14c4.8-.22,8.28-2.9,10.49-7C1740.44,2393.19,1744.38,2380.27,1740.09,2371.75ZM1727,2390.07c-4,6.58-13.92,11.57-18.64,3.52-5.13-8.75,8.35-19.26,16.5-14.84C1729.64,2381.33,1729.47,2386,1727,2390.07Z"/><path class="cls-1" d="M1633,1614.61c-1.93-3.83-5.53-6.77-11.46-8.06-12.54-2.74-27,6-34,15.93a13.19,13.19,0,0,0-2.19,7c-.14,8,3.45,14.53,9,19.89a11.39,11.39,0,0,0,6.69,2.88,161,161,0,0,0,16.87-.14c4.81-.22,8.29-2.91,10.5-7C1633.31,1636.06,1637.25,1623.14,1633,1614.61Zm-13.06,18.33c-4,6.58-13.92,11.56-18.64,3.52-5.13-8.75,8.34-19.26,16.49-14.84C1622.51,1624.2,1622.34,1628.87,1619.89,1632.94Z"/><path class="cls-1" d="M433.88,2496.31c-3.9,16.48-24.13,31.7-34.27,4.69-5.06-13.48-1-28.32,15.79-27.1S436.32,2486,433.88,2496.31Zm-21.65-6.74c-.38,4.41-.22,8.73,2.75,12.36.75.92,2.18,2.31,2.82,2.09,1.64-.56,3.81-1.59,4.35-3,1.91-4.85,1.15-9.74-1.49-14.21a9.13,9.13,0,0,0-2.81-2.33c-1.43-1-4.19,0-4.56,1.55C413,2487.24,412.59,2488.4,412.23,2489.57Z"/><path class="cls-1" d="M1094.35,2279.86c-2.43,10.27-1.24,21.59-.94,33.44.25,9.72-2.58,18.85-.2,28.54,2,8.06,6.78,14.7,12.27,20.76,8.6,9.5,15.53,20.4,21.93,31.46,8.28,14.32,19.24,27,27.15,41.51,8.38,15.37,16.38,31,26.18,45.53,12.52,18.57,26,36.48,39.35,54.45,6.75,9.08,12.2,16.23,22.77,21.15,16.3,7.58,33.21,13.64,49.13,22,15.14,7.92,30.23,16.69,47.42,19.16,6.66,1,7.59-.1,12.41-3.85,6.41-5,16.47-8.35,16.91-17.88.38-8.3-4-17.58-5.81-25.57q-2.65-11.66-5.81-23.18c-2-7.48-2.81-15.69-5.27-22.89-3.86-11.36-6.32-23.09-9.1-34.72a20.09,20.09,0,0,0-4.66-9.35,49.42,49.42,0,0,1-4.35-5c-10.63-15.3-22.57-29.69-31.94-45.88a88.46,88.46,0,0,0-8.52-11.84c-8.76-10.64-16.94-21.69-22.94-34.22a70.89,70.89,0,0,0-6.35-10.15c-5.66-8-11.37-15.88-17.25-23.68a65.15,65.15,0,0,1-5.68-9,224.48,224.48,0,0,0-22-33.28,34.18,34.18,0,0,0-5.81-5.45c-3.14-2.47-6.45-4.73-9.72-7a19,19,0,0,0-8.53-3.46c-7-1-13.85-3.07-20.77-4.59a206.2,206.2,0,0,1-31.35-9.87c-15.6-6.17-22.72-8.78-36.11,2.71A36.88,36.88,0,0,0,1094.35,2279.86Zm231.42,304.7a2,2,0,0,1-1.31-.06c-9.63-4.05-19.57-6.67-29-11.38-13.45-6.72-29-12.29-41.58-20.29a8.82,8.82,0,0,1-4.22-7.33,15.93,15.93,0,0,1,4.16-10.7c3.94-4.43,8-4,13.33-1.8,11.22,4.62,22,9.58,32.63,15.16,9.23,4.83,18.76,7.5,23.69,17.71a36.11,36.11,0,0,1,3.28,17.86C1326.73,2584,1326.16,2584.42,1325.77,2584.56Zm-75.43-120.2c-1-6.48-2.43-12.81-3.92-19.16-.81-3.43-1.65-6.87-2.47-10.34,6.37,4.79,11.54,14.49,16.36,20.93,5.89,7.87,12.78,15,17.54,23.69,3.18,5.81,24.89,52,14.26,56.58-4.87,2.1-22.39-11-26.52-13.83-5.33-3.64-5.33-12.71-6.5-18.37C1256.38,2490.75,1252.43,2477.56,1250.34,2464.36Zm90.52,127.18c-6-1.46-11.74-19.21-5.73-21.67,1.35-.55,3.85,0,6.65,1.12,5.79,2.34,12.84,7.2,13.39,10.05C1356.19,2586.28,1345.29,2592.61,1340.86,2591.54ZM1332,2488.26a41,41,0,0,1,2.82-10c6.13,3.28,8.53,22.18,10.35,28.74,2.83,10.22,4.63,20.6,7.38,30.92,3,11.2,5.76,22.46,7.91,33.85-4.57-7.87-9.5-14.68-14.65-22-4.78-6.8-7.28-16.22-12.51-22.46-2.07-4.11-1.77-8.73-1.89-13.07C1331.14,2506,1330.57,2496.79,1332,2488.26ZM1329.8,2538c1.46,2,3.34,3.81,4.78,6,3.34,5,18.48,26.56,3.19,16.72-5.55-3.56-11.07-7.16-16.6-10.75-4.69-3-10.94-4.92-14.18-9.57a23.85,23.85,0,0,1-2.18-3.92c-2.45-5.41-3.69-12.08-5.56-17.38a207.64,207.64,0,0,1-7.54-28,1.57,1.57,0,0,1,.22-1.47c.57-.51,1.44,0,2,.56C1308.6,2504.17,1317.87,2521.77,1329.8,2538Zm-6.27-27.77c-.83-.08-2-.07-2.42-.59-5-6-10.46-11.82-15.06-18.58,1.26-.95,2.14-2,3.26-2.38,2.91-1,5.87-1.65,8.61-3.22,4.87-2.8,6.13-.75,6.4,4.13.36,6.54,0,13.12-.14,19.68C1324.18,2509.65,1323.73,2510.29,1323.53,2510.27Zm-96.72-189.85c3.72-6.14,8.89,5.81,10.47,8.23,16,24.6,32.51,49.79,49.73,73.29,7.06,9.64,13.57,19.64,20.24,29.53,4,5.87,7.78,11.85,12.24,17.31a50.08,50.08,0,0,1,8.47,14.9c-3.66,11.41-15.93,13.85-26.28,16.66a26.15,26.15,0,0,1-7.87,1.29c-10.54-.44-16.38-14.78-21.94-22.07-9.94-13-18.58-27-27.82-40.53-5.06-7.42-10.65-15.25-13-24-3.4-12.58-4.32-26.84-3.57-39.78.58-10-1.2-19.68-1.53-29.61C1225.9,2323.89,1225.87,2322,1226.81,2320.42Zm-6,85.33a83.35,83.35,0,0,1,12.14,19c2.83,6.44,4.5,13.44,6.2,20.31,2.85,11.6,5.43,23.27,7.93,35,2.31,10.81,6.35,22.95,4.59,34.07-8.36-6.44-12.54-17.88-18.55-26.36q-10.47-14.79-20.5-29.88c-3.66-5.5-8-10.53-12-15.87a194.62,194.62,0,0,1-10.9-16.67,328.35,328.35,0,0,0-24.64-36.21c-7.07-9.05-13.86-18.44-19.38-28.57a54.31,54.31,0,0,0-6-8.72c-5-6-12-12.32-15.94-19-4.44-7.5-4.18-19.41-5.15-27.91,5.54,2,10.69,6.12,14.52,10.57a98.18,98.18,0,0,0,16.58,15.33c6.52,4.74,12,10.49,17.61,16.11,3.14,3.12,6.21,6.31,9.44,9.33,11.07,10.35,19.82,22.48,30,33.67C1211.48,2395.09,1216.38,2400.27,1220.85,2405.75Zm-63.62-132.13c.24-.69,1.06-1.62,1.68-1.67a9.9,9.9,0,0,1,3.88.54c9.24,3.14,18.7,5.44,28.13,7.93,9.19,2.43,16.73,7.87,23.32,14.59a8.24,8.24,0,0,1,2.25,4.68c.6,7.5,2.42,14.84,2.19,22.47a127.13,127.13,0,0,0,1.25,19.86,87,87,0,0,1,0,19.89c-.5,4.83-.71,9.7-1.1,14.54,0,.31-.52.58-.79.87-.41,0-1,.21-1.18,0-5.1-6.12-10.77-11.88-15-18.55a597.18,597.18,0,0,1-33.42-59.92c-3.66-7.57-7.37-15.12-11-22.72A3.75,3.75,0,0,1,1157.23,2273.62Zm-34.18-12.68a19.26,19.26,0,0,1,5.91.41c6.46,1.37,13.46,3.79,17.2,9.65,4.44,6.95,6.8,16.33,10.32,23.86a376.28,376.28,0,0,0,25.58,46.44c2.56,3.92,10.42,12,7.82,17.48-13-14.45-25.81-29.15-40.16-42.3-6.92-6.34-14.41-11.56-21.81-17.19-6.72-5.11-15.8-15.46-19.84-22.59-2.31-4.08-1.67-4.92,2.76-9C1115,2263.82,1118.51,2261.39,1123.05,2260.94Zm-20.68,33.43a50.07,50.07,0,0,1,1.31-6.92c4.94,7.94,5.87,18.17,8.08,27.08,1.68,6.8.61,13.8,3.37,20.48,2.69,6.51,8.91,11.35,13,17,6.59,9.12,13.37,18.09,20.08,27.12,13.41,18.05,26.62,36.35,37.44,56.1,7.62,13.92,18.83,25.57,28.41,38.11,8.48,11.08,17.64,21.5,24.88,33.5,3.53,5.85,12.51,33.41-1.29,33.9-7.32.26-12.38-11.7-15.64-16.59-5.74-8.61-13.57-15.76-18.94-24.85-15-25.34-34-49.3-48.07-75.54-5.21-9.68-9.75-19-15.91-28.47-7.23-11.13-14.21-22.45-22-33.2-5.51-7.59-15-17.42-14.56-27.79C1103,2321.79,1100.79,2307.19,1102.37,2294.37Z"/><path class="cls-1" d="M664.53,2670.89c10.3,1.72,22.94,14.31,31,20.5a337.85,337.85,0,0,1,33.67,29.82c21.21,21.24,40.11,44.63,58.76,68.11,31.28,39.37,62.76,78.6,95.71,116.59,4.29,4.94,1.12,14.27-5.37,14.92-15.81,1.57-30.43,8.17-46.07,10.31a51.32,51.32,0,0,0-9.07,2.57c-40.41,13.47-81.86,23.17-121.34,39.6-20.46,8.52-41.15,17.09-63,21.38-14.54,2.86-32.26,11.69-45,2.59-26.12-18.69-41.69-46.08-64.38-67.79-14.5-13.87-29.25-27.49-43.14-42-11.33-11.82-37.77-29.32-35.83-47.28,1.43-13.31,15.92-24.68,25.77-32.28a179.69,179.69,0,0,0,21.25-18.68,58.19,58.19,0,0,1,11.79-9.45c14.59-9,26.37-21.26,39.36-32.15,12.51-10.5,24-22.4,38.45-30.49a37.49,37.49,0,0,0,6.17-4.38,220.75,220.75,0,0,1,37-26.24c6-3.33,10.88-8.52,16.49-12.55S658.54,2669.89,664.53,2670.89ZM465.14,2838.36c.12,3,3.86,4.77,13.75,4.2,25.28-1.43,50.32-5.36,75.35-9.09,22.19-3.31,44.64-3.22,66.47-6.61,12.46-1.94,24.91-4,37.27-6.53,12.81-2.6,41.63-3.92,40.15-24-.91-12.18-12.12-25.52-16.73-36.76-7.94-19.36-16.55-39.17-23.35-58.78-2.9-8.37-8.75-10.1-16.56-6-1.67.88-3.24,2-4.94,2.79-18.9,9.22-33.39,24.77-51.18,35.57-5,5.88-11.57,9.71-17.57,14.31a168.53,168.53,0,0,0-15.87,13.45,216.37,216.37,0,0,1-35.29,28.37,36.54,36.54,0,0,0-4.32,3.57c-7.09,6.28-14.13,12.59-21.22,18.85S464.87,2831.41,465.14,2838.36Zm208-5.76c-17.37-5.92-52.49,4.63-67.31,6.29-24.49,2.75-50.05,5.61-73.81,8.88-5.6.77-59.2,6.46-59.41,5.79,5.92,19.31,33.33,33.93,46.89,48.28,16,16.93,31.51,34.28,46.75,51.88,7.41,8.55,20.33,28.12,34.11,24.33,15.61-4.3,27.61-24.94,36.89-37,18.4-24,37.55-48.3,54-73.44a15.93,15.93,0,0,0,2.46-5c1.6-6.91-9.49-22-14.44-26.58A16.43,16.43,0,0,0,673.16,2832.6Zm52.43,29.15c-11.54,4.69-21.84,11.37-29.73,21.67-8.25,10.76-72,103.67-77.62,99.47,8.81,7.64,33.39-3.07,43.21-6.16,19.19-6,36.95-16.12,55.92-22.21,35.73-11.46,70.78-24.12,106.92-34.05,7.84-2.16,15.67-4.34,23.43-6.73.86-.26,1.38-2,1.83-3.08.14-.36-.31-1.22-.73-1.5a56.06,56.06,0,0,0-7.88-5c-4.58-2.09-9.54-3.37-14.05-5.59a272.48,272.48,0,0,0-35.11-14,146.91,146.91,0,0,1-20.88-8.75C756.71,2868.53,741.66,2864.36,725.59,2861.75Zm129.62,34.93c1.79-7.33-14.7-23.23-18.83-28.76-47.45-63.46-95.54-132.4-163.23-175.18a2.37,2.37,0,0,0-1.76.11c-1.3.48-1.73,1.58-1.22,3.05,2.69,7.71,5.29,15.46,8.14,23.11,7.74,20.84,13,47,27.22,64.53,8.61,10.64,20.67,20.86,30.66,30.29,6,5.65,13.68,12.43,16,20.69.67,2.4,1.18,20.85-5.32,18.67,20.81,7,40.76,18.75,61.17,25,10.16,3.13,19.66,8.42,29.46,12.74C843.21,2893.49,848.88,2896.15,855.21,2896.68ZM708,2855.58c5-3.22,9.71-6.46,14.62-9.26,5.4-3.06,11.88-4.17,16.85-9.26-6.14-13.17-18.5-20.42-27.49-30.62-7.61,2-12.3,7.18-17.13,12a9.55,9.55,0,0,0-2.3,5.06c-.89,5.72-.69,11.35,2.67,16.43,2.78,4.19,5.37,8.52,8.34,12.56C704.58,2853.91,706.52,2854.6,708,2855.58Z"/><path class="cls-1" d="M476.71,1834.89a10.27,10.27,0,0,1-3.12-1.69c-11.93-9.17-19.9-22.28-28.67-34.25-8.33-11.38-16.47-18.27-4.36-28.75,8.48-7.34,18.39-13.91,26-22.19,5.65-6.17,10.53-19,21-13.4,4.41,2.34,10.25,14.37,13.83,18.48,7.37,8.47,20.17,21.5,16.85,33.55s-19,14-23.94,24.86C491.4,1817.86,486.32,1837.87,476.71,1834.89Zm26.56-50.7c.28-4.17-2.36-7-4.67-9.93-4.68-5.91-9.44-11.74-14.16-17.61a4.5,4.5,0,0,0-6.53-.82c-8.12,6.93-15.8,14.41-25.23,19.67-2,1.1-2.34,4.68-1,6.76,6.48,10,14.12,19.09,21.5,28.38.53.67,2.23.41,3.39.57C482.33,1798.66,484.1,1794.14,503.27,1784.19Z"/><path class="cls-1" d="M1299.2,2063.14c10.68,3.17,20.14,11.62,20.89,22.48,1.15,16.74-17.06,31-32.56,22.29-10.56-5.94-23.11-21.42-17.06-34.38C1275.74,2062.24,1288.12,2059.85,1299.2,2063.14Zm1.91,33c23-10-8.77-36.78-17.91-21C1276.9,2086.07,1289,2101.37,1301.11,2096.13Z"/><path class="cls-1" d="M394.69,1105.87c4.43,7.91,15.82,17.06,19.66,21.31,10.09,11.16,20.79,21.75,31.5,32.31,8.95,8.85,18.28,17.31,27.65,25.71,4.74,4.26,19.5,22.48,25.41,22.91-13.35-1-23.72,7.72-37.24,8.14a23.18,23.18,0,0,0-7.33,1.68c-10.61,4-21.21,8.09-31.7,12.39-4.39,1.8-6.6,5.63-7.68,10.18-3.6,15.24,64.11,9.31,72.72,12.52,15.63,5.83-.78,23.19-8.31,30.88-11.14,11.38-19.46,25.18-30.38,36.81-4.41,4.71-10.27,9.1-10.49,16.15-.18,5.87,9.11,10.51,14.33,9.66,3.25-.53,6-2.56,8.58-4.65,28.31-23.13,54.34-48.87,83.57-70.77,6-4.48,7.5,16.87,8.12,20.56,1.55,9.29,2.73,18.64,3.8,28,.78,6.93,2.07,30.39,12.25,31.09,7.62.52,9-16.56,9.84-21.69,2.84-18.09,2.4-38.68,8.2-56,8.21,2.56,17.86,11.25,25.59,15.67q14.1,8,27.45,17.3c14.55,10.06,29.89,17.89,44.85,27.35,6.18,3.9,25,21.24,32.11,13.5,8.46-9.19-5.68-16.67-11.24-22.11-7.53-7.38-14.4-15.4-21.44-23.23-19.21-21.38-42.58-40.43-61.83-62.38-6.36-7.26-10.46-15.61,1.91-17.48,21.79-3.35,44-8.76,65.54-13.79,5.68-1.33,30.52-4.59,21.11-16.69a8,8,0,0,0-6.66-2.93q-22.47.39-44.94.83c-9,.17-17.95-.3-26.88-1-11.77-.95-11.3-5-3.48-13.56,12.63-13.79,24.93-27.87,36.15-42.83,4-5.39,14.39-16.59,12.38-24.06-4.46-16.52-32.57,10.38-37.5,14.9C629,1132.87,617.53,1143,606.91,1154c-7.12,7.41-17.94,27.17-27.29,11.94-15.2-24.73-24.42-51.54-36.28-77.75-2.24-4.93-14.15-27.61-19.31-15.4a19,19,0,0,0-1,7.39c-.05,16,1.94,32.33,4.31,48.18.26,1.76,4.19,43.37-.94,40-35.24-22.89-68.5-47.6-105.46-67.5-5.55-3-11.11-6-16.71-8.87-2.58-1.33-6.21-.28-8.48,2.32a18.84,18.84,0,0,0-2.13,3.09C392.26,1099.82,392.93,1102.75,394.69,1105.87Zm78.72,205c0,.38-.07.75-.1,1.13C471.94,1311.6,472,1311.22,473.41,1310.85Zm172.13-174.4a8.32,8.32,0,0,1,.41.85l-1-1.29C645.17,1136.16,645.43,1136.26,645.54,1136.45Zm-211.92-13.39c12.48,7.39,25,14.69,37.3,22.29,16.13,10,32.2,19.55,46.74,31.41,9.55,7.79,19.08,8.48,19.76-6.11a213.4,213.4,0,0,0-2.16-40.88c-.64-4.38.1-31.6-1.73-33.24,13.88,12.43,16.34,38.8,26.76,54.51,6.33,9.53,10.83,27.15,22.06,32.47,11.07,5.24,20.34-8.93,26.83-15.3s12.49-12.94,18.76-19.39c5.28-5.43,31.86-35.71,37.61-32.41-6.73,12-19,20.57-28.18,30.45-10.44,11.19-20.14,22.19-27.34,35.85-1.75,3.33-2.26,7.56-.33,10.79,6.83,11.41,37.84,3.88,48.36,3.88,6.87-.3,17.46-2.76,23.51.36-22,11.23-49.5,2.57-71.35,15.57-16.46,9.79-1.66,27.25,7,37,13.73,15.39,29,29.35,44,43.39,13.41,12.5,26.13,27,40.85,37.93-12.44-4.45-22.45-13.63-33.19-21-12.21-8.38-23.95-17.41-36.18-25.76-13-8.84-29.8-23.23-46.26-23.89-16.63-.67-13.23,22.14-16,34.13a1.62,1.62,0,0,1-1.34.91c-1.12-.21-3-.49-3.15-1.14-2.94-10.25-1.72-28.5-8-37.09-9.23-12.51-36,13.19-42.47,18.93a215.05,215.05,0,0,0-20.08,20c-10.65,12.26-24.62,21.7-37.57,31.76,6.72-13.31,74-67.62,51.38-83.41-2.75-1.92-6.19-2.52-9.51-3a388.58,388.58,0,0,0-68.32-4.31c-.24-1.76,1.89-2.78,3.61-3.2,10-2.46,20.3-3.07,30.31-5.31,7-1.56,60.49-10.75,45.8-25.28-16.08-15.91-33.6-32.2-50.63-47.83q-13.2-12.12-26.43-24.22c-2.3-2.11-18.82-20.78-21.78-19.82,1.8-.58,3.69.44,5.31,1.42Q425.56,1118.31,433.62,1123.06Z"/><path class="cls-1" d="M1689.88,997.15c-3.51-10.35-21.57-1-28,2.09-25.86,12.68-49,29.28-75,41.9-4.05,2-10.46,7.47-15,5.44-4.31-1.94-5.62-10-6.87-13.93-2.58-8.14-3.74-16.66-6.19-24.84-1.77-5.91-10.63-27.82-18.53-14.72-5.14,8.53-4.32,25.17-5.51,35-1.32,10.89-2,22.39-4.88,33-12.75-.47-22.85-11.8-31.45-19.86-19.46-18.25-37.7-37.62-57.6-55.52-5.76-5.17-32.39-36-39.36-18-2.29,6,3.62,12.62,6.94,16.94,7.74,10.08,15.54,20.14,22.86,30.54,13.16,18.73,25.3,38.2,41.41,54.71,4.87,5,8.65,10.71,9.48,17.92-1.2.85-2.3,2.17-3.62,2.47-14.85,3.36-28.59,10.43-43.71,12.87a108.93,108.93,0,0,0-13.31,3.46c-4.79,1.41-6.94,9.66-3.51,13.45a31.39,31.39,0,0,0,5,4.59c12.62,8.92,26.68,14.59,41.6,18.38.92.23,1.57,2.1,2,3.33.17.47-.42,1.47-.94,1.91a31.71,31.71,0,0,1-5.44,4.15c-9.45,5-19.3,9.26-28.41,14.76s-17.54,12.16-26.27,18.3c-6.23,4.39-12.71,8.44-18.64,13.21-9.77,7.84-27.58,17.54-30.26,31-6.84,34.41,55.37-6.22,62.34-9.68a145.21,145.21,0,0,0,21.67-12.62c8.55-6.27,18.29-11,27.77-15.87,10.16-5.25,21.08-8.85,31.19-14.33,4.54-2.46,10.13-3.06,15.3-4.25,2.51-.59,6.65,1.87,7.57,4.17,1.43,3.54,3.15,7,4,10.71,1.81,7.51,7.29,59.39,22.41,44,5.33-5.44,4.65-11.57,6-18.37,3.34-16.36,5.93-31.6,5.73-48.21,0-.67.09-1.51.73-1.75a1.73,1.73,0,0,1,1.51.47c13.81,10.07,24.66,23.52,37.37,35.08,14.34,13,29.58,24.91,44.67,37,10.85,8.43,22.28,16.11,33.52,24,1.18.83,2.85.93,4.28,1.4,2.42.79,6.51-2.4,6.35-5.1-.13-2.26.07-4.8-.89-6.7a114.65,114.65,0,0,0-8.18-13.74c-18.68-26.71-39.77-52.07-59.62-77.92-3.86-5-15.37-15.56-13-22.5a2.39,2.39,0,0,1,1.42-1.19c14.87-6.67,31.36-8.4,47.4-10,9.84-1,38.88.48,43.23-11,5.14-13.65-63.06-24-72.39-25.91-.92-.19-24-5.27-16.9-10.75,8.46-6.46,17.13-12.67,25.45-19.31,11.9-9.48,23.8-19.22,35.3-29.16,7.26-6.28,21.81-18.57,19.16-30.07C1690.07,997.77,1690,997.45,1689.88,997.15Zm-18.22,7.14-.22.14c0-.13.07-.26.12-.38C1671.59,1004.14,1671.63,1004.21,1671.66,1004.29Zm-1.68,10.76c-4.55,4.07-10.08,7.68-13.24,10.18-12.31,9.76-24.22,20.26-37.36,28.61-12.45,7.92-20.81,14.94-28.29,27.57-1.7,2.86-3,6.83-.73,9.22a8,8,0,0,0,3.66,1.8,350.29,350.29,0,0,0,70.21,12.69c6.35.45,13.07.68,18.46,4.07-26.57,3.37-52.19,4.43-78.43,10.26-10,2.22-16.7,3.07-15.23,14.76,1.54,12.21,17.35,23.7,25.13,32.82q16.24,19,31.39,39c7.62,10,15.92,18.65,22.29,29.72-2.31.58-4.58-.94-6.46-2.39-13.54-10.44-26.08-22.81-38.51-34.6-11.26-10.68-22.23-21.82-33.85-32.11-5.82-5.16-20.75-24.19-30.45-19.7-8.36,3.88-9.19,17.08-9.66,25-.81,13.5-.07,26.74-2.31,40.28-1.83.74-3.13-1.86-3.37-3.82-1.6-13.12-4.29-42.15-16.3-50.41-8-5.49-21,3.47-28.38,6.64-12.67,5.44-25,11.62-37.18,18.07-24.45,12.95-48.26,27.09-73.13,39.22-4.2,2-8.33,6.14-12.9,7.2-8.5,2-5.13-2.35-.15-6.38a445.84,445.84,0,0,1,58-39.2c10.21-5.89,20.57-11.7,31.08-17,8.22-4.16,16.87-7.06,22.06-15.34,9.43-15-19.08-21.84-28.33-24.26-4-1-8.18-2.93-12.26-3.36s-9-2.74-6.21-7.68c1.45-2.54,7.22-2.7,9.63-3.36l26-7.19c6.53-1.81,13.24-3.7,18.62-7.81,9.75-7.43,9.67-16.7,2.48-25.19q-18.46-21.85-37-43.67c-7.29-8.63-16.21-15.59-22.73-24.89-6.63-9.45-16.48-16.47-22.37-26.75,23.47,16.41,41.08,39.71,61,60.06,12.81,13.1,24.2,26.14,41.22,33.78a26.46,26.46,0,0,0,9.67,2.61c21.24.9,16.39-21.38,17.69-34.61.21-2.1,4-29.44,4-29.43.38.16.49.65.55,1.06,1.81,13.11,6.11,25.54,8.66,38.46,2.32,11.79,7.88,15.34,20.55,10.38,10.29-4,18.15-11.68,28.08-16a255.68,255.68,0,0,0,35.06-18.62c5.83-3.67,11.29-7.92,17.12-11.57s12.49-9.11,19.7-9.33C1677.17,1007.62,1674,1011.51,1670,1015.05Z"/><path class="cls-1" d="M655.67,485.42c-1.16,6.17,1.88,11,5,15.78A610.93,610.93,0,0,0,706.84,563c10.87,12.92,27.39,24.32,33.25,40.76,6.85,19.27-13.82,13.09-24.12,8.34-35.42-16.35-57.41-46.38-88.08-68.5-3.77-2.72-22.12-21.57-25.76-11.37q-7.21,20.19-13.58,40.67c-2.86,9.17-5.52,30.11-15.7,33.92-17,6.37-23.89-38.2-25.62-49.66-.86-5.66-1.4-11.38-2.42-17a25.09,25.09,0,0,0-2.85-8c-4.85-8.28-43.61,10-51.52,13-34.67,13-66.73,41.3-103.32,47.94-18.78,3.41-41.52-6.34-22.86-25,11.65-11.63,28.58-16.52,43.08-23.44,18.23-8.69,34.41-20.14,50.29-32.2,10.64-8.08,21.62-15.83,31.55-24.79,16.21-14.63-8.47-12.09-17.93-12.66-15.18-.92-30.36-2-45.5-3.52-6.36-.62-19-2.14-21.81-9.13C397,445,425,439,436.26,436.58c9-1.89,18.11-3,27.22-4.11,10.17-1.26,18-2.3,13.4-15.63a366.36,366.36,0,0,0-29.37-63.24c-8.69-14.8-16.18-30.31-24.11-45.55-.87-1.65-1.74-3.67-1.57-5.42a18.34,18.34,0,0,1,2.32-7.83c1.84-2.94,7.76-4.18,10.33-2.7s5.21,2.64,7.13,4.63c21.82,22.69,44.26,44.8,64.34,69.14,6,7.31,13.1,13.79,19.95,20.38.74.7,4.39.06,4.69-.72a171.11,171.11,0,0,0,7.79-26.82c1.51-7.53.69-16.88,5.25-23.33,8.56-12.13,20.54-2.52,24.77,7.95,4.83,12,4.63,25.32,8.6,37.53,1.79,5.51,4.8,11.77,10.52,12.63,3,.46,6-.79,8.76-2.14,17.41-8.53,34.12-19.22,51.41-28.24,4.23-2.2,8.77-4.1,12.42-7.07,14.3-11.66,31.27-18.35,47.79-25.7,14.78-6.56,30-11.77,42.66-22.59,6.82-5.82,16.21-5,24.82-3.59,1.29.22,2.74,2.59,3.16,4.22s.37,4.31-.66,5.38c-3.94,4.05-8.76,7.28-12.53,11.46-20.47,22.74-45.6,40.45-66.82,62.38-3.25,3.35-7.8,5.4-11.53,8.34-7.48,5.89-15.15,11.62-22,18.15-3.05,2.88-7.9,6.27-5.12,11.93,2.06,4.2,6.42,3.37,10.09,3.52,23.82.95,47.64,1.76,71.46,2.75,16.89.71,23,12.43,6,20-15.54,6.9-32.57,8.88-48.3,14.78C691.84,469.78,657.38,476.27,655.67,485.42Zm-7.18,59.25c6.78,5.23,14,10.09,20.55,15.39,18.21,14.79,35.87,30.23,53.55,45.63,1.52,1.33,3.71,2.69,5.37,1.55,2.24-1.55-37.47-47.85-40.48-51.35-7.5-8.74-15.31-17.25-22.66-26.12-7.71-9.32-15.77-19.24-18.44-30.89-.51-2.23-1.13-4.55-2.66-6.25-5.7-6.31-30,1.73-34.37,7.82C599.88,513.73,639.35,537.6,648.49,544.67ZM398.13,562c-4.93,2.56-30,12.21-28.82,18.32,2.13,11.24,65.38-21,74-26.09,19.62-11.66,41.47-17.17,62.17-26.74,8.35-3.86,28.44-10.87,29.8-21.76.78-6.23-4.94-13.46-10.4-15.74-10.51-4.37-21.29,1.25-28.17,8.39C482.67,513,465.27,524,447.53,533.55,430.56,542.69,415.12,553.19,398.13,562Zm42.05-112.77-1.07.17c-7.82,1.25-16.09,2.69-22.08,7.89,3.2,3.19,8.12,3.71,12.63,3.93,19.77.95,38.26-.89,57.82,1.91a157.72,157.72,0,0,1,39.45,11c13.12,5.59,19.89,8.19,24.34,21.92,8.62,30.17,8.76,60.49,16,90.5.3,1.23.86,2.71,2.12,2.87s2.09-1,2.68-2.1c7.36-13.11,9.19-28.81,12.52-43.34,3.94-17.17,7.6-34.66,16.09-50.28,9.81-18.07,32.74-15.73,49.06-23,23.46-10.47,51-14.54,75.92-20.88,3.76-.95,8.45-3.22,7.84-7.05l-113-5.21c-11.08-.51-20.5,3.81-29.3-4.52-7.67-7.26-12-17.44-15.4-27.25-4.7-13.62-6.23-28.06-10.65-41.75-3.16-9.81-13.2-26.89-14.57-5.55-.82,12.61-2.15,24.73-3.14,37.27-1,13.14-3.21,28.23-14.4,35.19-4.36,2.71-9.53,3.73-14.57,4.71C492.41,440.76,466.35,445.09,440.18,449.27Zm178.09-21.22a28.45,28.45,0,0,0,6.17.41c6.65-.65,12-5.45,16.94-10,9.74-9.07,19.27-18.27,30.18-26,13-9.14,25.4-20,37.72-30C720,353.72,730,345.15,741.19,336.8c4.9-3.64,13.91-9.06,14-15.49,0,.68-23.73,10.93-26.18,12.33-40.46,23.14-80.95,46.54-121.82,68.82-6.66,3.63-20.17,10.44-9.54,19.17C600.85,424.22,611,427,618.27,428.05ZM475.81,385.18c3.24,6.09,6.57,12.15,10.07,18.2s4.85,18.44,12,21.64c8.36,3.77,25.74-4.31,30.88-10.87a7.48,7.48,0,0,0,1.82-4.07c.13-2.77-2.14-5-4.24-6.79-27.61-23.84-51.77-50.87-75.45-79-2.47-2.94-5.11-6-8.71-7.33,2.51,5.53,5,11.05,7.66,16.51C458.52,351,466.77,368.15,475.81,385.18Z"/><path class="cls-1" d="M1902.46,1141.75c14.57,10.76,25.62,29.62,36.22,44.08,8.11,11.05,3.93,11-9,18.4-10.49,6-18.6,15-28.39,21.92-10.21,7.2-11.32,4.08-19.28-3.13-8.75-7.92-17.59-15.79-26.66-23.35-4.61-3.84-15.46-6.5-16.36-13.59-.47-3.67,2.61-6.81,5.76-8.75,11-6.73,22.29-13.59,31.45-22.72C1886,1144.9,1893,1134.75,1902.46,1141.75Zm-8.66,16.64c-4.47-.88-7.1,4.45-10.2,6.84-6.48,5-12.65,10.37-18.84,15.71-.79.69-1,2.1-1.58,3.57,1.5,1.76,2.8,4.12,4.79,5.5a114.16,114.16,0,0,1,22.4,20.09,3,3,0,0,0,1.59,1c1.18.24,2.8.84,3.55.31,6.71-4.74,18.82-8.77,22.49-16.68,5.52-11.91-10-22.38-17.24-31-1.77-2.11-3.68-4.32-6.3-5.16A4.59,4.59,0,0,0,1893.8,1158.39Z"/><path class="cls-1" d="M1411.92,709.71c10.49-14.78,29.13-26.18,43.38-37.07,10.9-8.31,11-4.14,18.57,8.62,6.19,10.38,15.39,18.31,22.46,28,7.39,10.07,4.3,11.24-2.75,19.34-7.76,8.9-15.46,17.89-22.84,27.1-3.75,4.68-6.2,15.58-13.28,16.63-3.65.54-6.85-2.49-8.85-5.6-6.94-10.81-14-22-23.32-31C1415.39,726.13,1405.11,719.32,1411.92,709.71Zm16.81,8.34c-.79,4.48,4.58,7,7,10.07,5.11,6.37,10.61,12.44,16.07,18.52.7.78,2.12.92,3.6,1.51,1.74-1.53,4.07-2.88,5.41-4.88a113.53,113.53,0,0,1,19.66-22.79,3.11,3.11,0,0,0,.94-1.61c.21-1.18.78-2.82.24-3.55-4.87-6.62-9.13-18.65-17.12-22.17-12-5.29-22.18,10.45-30.64,17.83-2.07,1.81-4.25,3.77-5,6.41A5.23,5.23,0,0,0,1428.73,718.05Z"/><path class="cls-1" d="M1104.19,540.32c-.74,0-1.49-.09-2.24-.18-30.34-3.54-24.85-33.19-8.11-49.68,6.78-6.67,14.8-9.13,24-8.74C1162.54,483.61,1139.65,542,1104.19,540.32Zm15.2-17.91c11.65-9.77,16.9-34.41-5.53-28a65.19,65.19,0,0,0-8.76,3.22c-8.06,3.64-12.47,9.94-13.54,18.74-1.68,13.78,15.72,12.72,24.27,8.38A19.39,19.39,0,0,0,1119.39,522.41Z"/><path class="cls-1" d="M550.8,919.6c1.93,3.83,5.53,6.77,11.46,8.07,12.54,2.74,27-6,34-15.94a13.07,13.07,0,0,0,2.19-7c.14-8-3.45-14.54-9-19.9A11.43,11.43,0,0,0,582.7,882a161,161,0,0,0-16.87.15c-4.81.21-8.28,2.9-10.5,7C550.44,898.15,546.5,911.08,550.8,919.6Zm13.06-18.32c4-6.58,13.92-11.57,18.64-3.53,5.13,8.75-8.34,19.27-16.49,14.85C561.25,910,561.41,905.34,563.86,901.28Z"/><path class="cls-1" d="M1843,800.57c3.9-16.48,24.13-31.69,34.27-4.68,5.06,13.48,1,28.31-15.79,27.1S1840.53,810.92,1843,800.57Zm21.65,6.75c.38-4.42.22-8.74-2.75-12.37-.75-.92-2.18-2.31-2.82-2.09-1.64.56-3.8,1.59-4.35,3-1.91,4.85-1.15,9.73,1.5,14.2a8.71,8.71,0,0,0,2.8,2.33c1.43,1,4.19,0,4.57-1.54C1863.86,809.65,1864.27,808.49,1864.62,807.32Z"/><path class="cls-1" d="M1152.48,1000.24c2.43-10.27,1.24-21.59.94-33.44-.25-9.72,2.58-18.85.2-28.54-2-8.06-6.78-14.7-12.27-20.76-8.6-9.5-15.53-20.4-21.92-31.46-8.29-14.32-19.25-27-27.16-41.51-8.38-15.37-16.37-31-26.18-45.53-12.52-18.57-26-36.48-39.35-54.45-6.75-9.08-12.2-16.23-22.77-21.15-16.29-7.58-33.21-13.64-49.12-22-15.15-7.92-30.24-16.69-47.43-19.16-6.65-1-7.59.1-12.41,3.85-6.41,5-16.47,8.35-16.91,17.88-.37,8.3,4,17.57,5.81,25.57q2.65,11.65,5.81,23.18c2,7.48,2.82,15.69,5.27,22.89,3.87,11.36,6.33,23.09,9.11,34.72a20,20,0,0,0,4.65,9.35,48.2,48.2,0,0,1,4.35,5c10.63,15.3,22.58,29.69,31.94,45.88a88.54,88.54,0,0,0,8.53,11.84c8.75,10.64,16.93,21.69,22.93,34.22a70.89,70.89,0,0,0,6.35,10.15c5.66,8,11.37,15.88,17.26,23.67a66.32,66.32,0,0,1,5.67,9,224.06,224.06,0,0,0,22,33.29,34.18,34.18,0,0,0,5.81,5.45c3.14,2.47,6.45,4.72,9.72,7a19.07,19.07,0,0,0,8.54,3.46c7,1,13.84,3.07,20.76,4.59a206.2,206.2,0,0,1,31.35,9.87c15.6,6.17,22.72,8.78,36.11-2.72A36.82,36.82,0,0,0,1152.48,1000.24ZM921.06,695.54a2.06,2.06,0,0,1,1.32.05c9.62,4.06,19.56,6.68,29,11.39,13.45,6.72,29,12.29,41.58,20.29a8.81,8.81,0,0,1,4.22,7.32A15.93,15.93,0,0,1,993,745.3c-3.93,4.43-8,4-13.33,1.8-11.22-4.62-22-9.58-32.63-15.16-9.22-4.83-18.76-7.5-23.69-17.71a36.1,36.1,0,0,1-3.27-17.86C920.1,696.07,920.68,695.68,921.06,695.54Zm75.43,120.2c1,6.48,2.43,12.8,3.93,19.16.8,3.43,1.64,6.87,2.46,10.34-6.37-4.79-11.54-14.49-16.36-20.93-5.89-7.87-12.78-15-17.54-23.69-3.18-5.81-24.89-52-14.26-56.59,4.87-2.09,22.39,11,26.52,13.84,5.33,3.64,5.33,12.71,6.5,18.36C990.45,789.35,994.4,802.54,996.49,815.74ZM906,688.56c6,1.46,11.74,19.21,5.73,21.67-1.35.55-3.85,0-6.64-1.12-5.8-2.34-12.85-7.2-13.4-10.05C890.64,693.82,901.55,687.49,906,688.56Zm8.91,103.28a41,41,0,0,1-2.82,10c-6.12-3.28-8.53-22.18-10.35-28.74-2.83-10.22-4.63-20.6-7.38-30.92-3-11.2-5.76-22.46-7.91-33.85,4.57,7.87,9.51,14.68,14.65,22,4.79,6.8,7.28,16.22,12.51,22.46,2.08,4.11,1.77,8.73,1.89,13.07C915.69,774.06,916.27,783.31,914.88,791.84ZM917,742.06c-1.46-2-3.34-3.81-4.78-6-3.34-5-18.48-26.56-3.19-16.73q8.33,5.35,16.6,10.76c4.69,3,10.94,4.92,14.18,9.57A23.85,23.85,0,0,1,942,743.6c2.45,5.41,3.69,12.08,5.56,17.38a206.17,206.17,0,0,1,7.54,28,1.57,1.57,0,0,1-.22,1.47c-.57.51-1.44,0-2-.56C938.23,775.93,929,758.33,917,742.06Zm6.27,27.77c.84.08,2,.07,2.43.59,5,6.05,10.45,11.82,15,18.58-1.26,1-2.14,2-3.25,2.38-2.92,1-5.88,1.65-8.62,3.22-4.87,2.8-6.12.75-6.39-4.13-.37-6.54,0-13.12.13-19.68C922.65,770.45,923.1,769.81,923.3,769.83ZM1020,959.68c-3.72,6.14-8.89-5.81-10.47-8.23-16-24.6-32.51-49.79-49.73-73.29-7.06-9.64-13.57-19.64-20.24-29.53-4-5.87-7.78-11.85-12.24-17.31a50.08,50.08,0,0,1-8.47-14.9c3.66-11.41,15.93-13.85,26.28-16.66a26.2,26.2,0,0,1,7.87-1.29c10.54.44,16.38,14.78,21.94,22.07,9.94,13,18.58,27,27.82,40.53,5.06,7.42,10.65,15.25,13,23.95,3.39,12.58,4.31,26.84,3.56,39.78-.58,10,1.2,19.68,1.53,29.61C1020.94,956.21,1021,958.13,1020,959.68Zm6-85.33a83.35,83.35,0,0,1-12.14-19c-2.83-6.44-4.5-13.44-6.19-20.31-2.86-11.6-5.43-23.27-7.94-35-2.31-10.81-6.35-22.95-4.58-34.07,8.36,6.44,12.53,17.88,18.54,26.36q10.47,14.79,20.5,29.88c3.66,5.5,8,10.53,11.95,15.87a193.07,193.07,0,0,1,10.9,16.67A329.75,329.75,0,0,0,1081.66,891a211.66,211.66,0,0,1,19.39,28.57,53.61,53.61,0,0,0,6,8.72c5,6,12,12.32,15.94,19,4.44,7.5,4.18,19.41,5.15,27.91-5.54-2-10.69-6.12-14.52-10.57A98.18,98.18,0,0,0,1097,949.27c-6.52-4.74-12-10.49-17.61-16.11-3.14-3.12-6.21-6.31-9.44-9.33-11.07-10.35-19.82-22.48-30-33.67C1035.35,885,1030.46,879.83,1026,874.35Zm63.62,132.12c-.24.7-1.06,1.63-1.68,1.68a9.9,9.9,0,0,1-3.88-.54c-9.24-3.14-18.7-5.45-28.12-7.93-9.2-2.43-16.74-7.87-23.32-14.59a8.19,8.19,0,0,1-2.26-4.68c-.6-7.5-2.42-14.84-2.19-22.47a128.35,128.35,0,0,0-1.24-19.86,86.48,86.48,0,0,1,0-19.89c.5-4.83.71-9.7,1.1-14.54,0-.31.52-.58.8-.87.4,0,1-.21,1.18,0,5.09,6.12,10.76,11.88,15,18.55a597.18,597.18,0,0,1,33.42,59.92c3.66,7.57,7.37,15.12,11,22.72A3.61,3.61,0,0,1,1089.6,1006.47Zm34.18,12.69a19.26,19.26,0,0,1-5.91-.41c-6.46-1.37-13.45-3.79-17.2-9.65-4.44-7-6.8-16.33-10.32-23.86a376.28,376.28,0,0,0-25.58-46.44c-2.56-3.92-10.42-12-7.82-17.48,13,14.45,25.81,29.15,40.16,42.3,6.92,6.34,14.41,11.55,21.82,17.19,6.72,5.11,15.79,15.46,19.83,22.59,2.31,4.08,1.67,4.92-2.76,9C1131.81,1016.28,1128.32,1018.71,1123.78,1019.16Zm20.68-33.43a51.14,51.14,0,0,1-1.3,6.91c-5-7.93-5.88-18.16-8.09-27.08-1.68-6.79-.6-13.79-3.37-20.47-2.69-6.51-8.91-11.35-13-17-6.59-9.12-13.37-18.09-20.07-27.12-13.41-18-26.63-36.35-37.45-56.1-7.62-13.92-18.83-25.57-28.41-38.11-8.47-11.08-17.64-21.5-24.88-33.51-3.53-5.84-12.51-33.4,1.29-33.89,7.32-.26,12.38,11.7,15.64,16.59,5.74,8.61,13.57,15.76,18.94,24.85,15,25.34,34,49.3,48.07,75.54,5.22,9.68,9.76,19,15.91,28.47,7.24,11.13,14.21,22.45,22,33.2,5.51,7.59,15,17.42,14.56,27.79C1143.87,958.31,1146,972.91,1144.46,985.73Z"/><path class="cls-1" d="M1626.35,620.45c-10.3-1.72-22.93-14.3-31-20.5a337.75,337.75,0,0,1-33.67-29.81c-21.21-21.24-40.11-44.64-58.76-68.11-31.28-39.37-62.76-78.6-95.71-116.59-4.29-4.95-1.12-14.28,5.37-14.92,15.81-1.57,30.43-8.17,46.08-10.31a51.5,51.5,0,0,0,9.06-2.58c40.42-13.46,81.87-23.16,121.34-39.59,20.46-8.52,41.16-17.09,63-21.39,14.53-2.85,32.26-11.68,45-2.58,26.12,18.68,41.69,46.07,64.38,67.78,14.5,13.87,29.26,27.5,43.15,42,11.33,11.81,37.77,29.31,35.83,47.27-1.44,13.32-15.93,24.69-25.77,32.28a179.88,179.88,0,0,0-21.25,18.69,58.42,58.42,0,0,1-11.79,9.44c-14.59,9-26.37,21.27-39.36,32.16-12.51,10.49-24,22.4-38.46,30.49a37.43,37.43,0,0,0-6.17,4.37,220.09,220.09,0,0,1-37,26.24c-6,3.34-10.88,8.52-16.5,12.55C1638.63,621.26,1632.35,621.45,1626.35,620.45ZM1825.74,453c-.12-3-3.85-4.76-13.74-4.2-25.29,1.44-50.33,5.37-75.35,9.1-22.2,3.3-44.65,3.22-66.48,6.61-12.46,1.93-24.91,4-37.26,6.52-12.81,2.6-41.64,3.93-40.15,24,.9,12.18,12.11,25.52,16.72,36.75,8,19.36,16.56,39.18,23.35,58.79,2.9,8.37,8.76,10.09,16.56,6,1.68-.88,3.25-2,4.95-2.8,18.9-9.21,33.39-24.76,51.17-35.57,5-5.87,11.57-9.7,17.57-14.3A170,170,0,0,0,1739,530.42a216.27,216.27,0,0,1,35.29-28.37,35.93,35.93,0,0,0,4.33-3.58c7.08-6.27,14.12-12.59,21.21-18.85S1826,459.94,1825.74,453Zm-208,5.77c17.37,5.91,52.49-4.63,67.31-6.3,24.49-2.74,50.06-5.61,73.82-8.87,5.6-.77,59.2-6.46,59.4-5.8-5.91-19.31-33.33-33.93-46.89-48.28-16-16.92-31.5-34.28-46.75-51.87-7.41-8.56-20.33-28.13-34.11-24.33-15.6,4.3-27.61,24.94-36.88,37-18.41,23.95-37.55,48.31-54,73.45a16,16,0,0,0-2.46,4.94c-1.59,6.91,9.49,22,14.44,26.59A16.72,16.72,0,0,0,1617.72,458.75ZM1565.3,429.6c11.53-4.69,21.83-11.38,29.72-21.67,8.26-10.77,72-103.67,77.63-99.47-8.82-7.65-33.4,3.07-43.21,6.16-19.2,6-37,16.11-55.93,22.2-35.72,11.46-70.78,24.12-106.92,34.06-7.83,2.15-15.66,4.33-23.42,6.72-.87.27-1.38,2-1.83,3.09-.15.35.31,1.21.72,1.49a55.17,55.17,0,0,0,7.88,5c4.58,2.1,9.55,3.37,14,5.6a273.58,273.58,0,0,0,35.11,14,146.41,146.41,0,0,1,20.89,8.76C1534.17,422.81,1549.22,427,1565.3,429.6Zm-129.62-34.94c-1.8,7.34,14.69,23.24,18.83,28.77C1502,486.89,1550,555.82,1617.73,598.61a2.37,2.37,0,0,0,1.76-.11c1.31-.48,1.74-1.58,1.22-3.06-2.69-7.71-5.29-15.45-8.13-23.11-7.74-20.83-13-47-27.23-64.53-8.6-10.63-20.66-20.85-30.65-30.28-6-5.65-13.68-12.44-16-20.69-.67-2.41-1.17-20.85,5.32-18.68-20.81-7-40.76-18.75-61.17-25-10.16-3.13-19.66-8.42-29.46-12.74C1447.67,397.86,1442,395.19,1435.68,394.66Zm147.19,41.1c-5,3.22-9.7,6.47-14.62,9.26-5.39,3.07-11.88,4.18-16.85,9.27,6.15,13.17,18.5,20.42,27.5,30.62,7.61-2,12.29-7.18,17.13-12.06a9.63,9.63,0,0,0,2.3-5.06c.88-5.71.69-11.34-2.67-16.42-2.78-4.19-5.37-8.52-8.35-12.57C1586.3,437.43,1584.37,436.75,1582.87,435.76Z"/><path class="cls-1" d="M1814.17,1456.45a10.1,10.1,0,0,1,3.12,1.7c11.94,9.16,19.91,22.28,28.67,34.25,8.33,11.38,16.47,18.27,4.37,28.74-8.48,7.34-18.39,13.92-26,22.2-5.64,6.16-10.52,19-21,13.4-4.42-2.35-10.26-14.37-13.84-18.49-7.36-8.47-20.16-21.5-16.85-33.55s19-14,23.95-24.86C1799.49,1473.48,1804.57,1453.48,1814.17,1456.45Zm-26.55,50.71c-.29,4.17,2.35,7,4.67,9.93,4.67,5.91,9.43,11.74,14.16,17.61a4.49,4.49,0,0,0,6.53.81c8.12-6.92,15.79-14.4,25.22-19.66,2-1.1,2.35-4.69,1-6.77-6.48-10-14.11-19.08-21.5-28.38-.53-.66-2.23-.4-3.38-.57C1808.56,1492.68,1806.79,1497.2,1787.62,1507.16Z"/><path class="cls-1" d="M1889.09,1832.36q-1.11,0-2.25-.18c-30.35-3.54-24.86-33.2-8.1-49.7,6.78-6.68,14.8-9.14,24-8.75C1947.47,1775.62,1924.57,1834,1889.09,1832.36Zm15.2-17.92c11.67-9.77,16.92-34.42-5.52-28a64.82,64.82,0,0,0-8.77,3.22c-8.06,3.64-12.47,10-13.55,18.75-1.68,13.79,15.73,12.73,24.28,8.38A18.28,18.28,0,0,0,1904.29,1814.44Z"/><path class="cls-1" d="M991.68,1228.21c-10.67-3.17-20.14-11.62-20.88-22.49-1.15-16.73,17.05-31,32.55-22.29,10.57,6,23.12,21.42,17.06,34.39C1015.14,1229.1,1002.76,1231.5,991.68,1228.21Zm-1.9-33c-23,10,8.76,36.78,17.9,21C1014,1205.28,1001.87,1190,989.78,1195.22Z"/><path class="cls-1" d="M343.38,1540.4c1.32-9.62,5.71-18.38,14.46-24.49,11.43-8,28.36,4.1,30.81,16.25,3.15,15.58-16.87,33-31.69,26.92a62.06,62.06,0,0,1-6.75-3.32,12.22,12.22,0,0,1-6.45-10.76C343.7,1543.74,343.55,1542.49,343.38,1540.4Zm9.92-2.16c-2.22,16.09,22.63,12.31,23.38-1.79C377.57,1519.79,355,1526.16,353.3,1538.24Z"/></g></g></svg>